<?xml version="1.0" encoding="iso-8859-1"?>
<!-- Generator: Adobe Illustrator 19.0.0, SVG Export Plug-In . SVG Version: 6.00 Build 0)  -->
<svg version="1.1" id="Layer_1" xmlns="http://www.w3.org/2000/svg" xmlns:xlink="http://www.w3.org/1999/xlink" x="0px" y="0px"
	 viewBox="0 0 511.988 511.988" style="enable-background:new 0 0 511.988 511.988;" xml:space="preserve">
<polygon style="fill:#AC92EB;" points="106.005,236.665 106.005,483.317 126.005,501.989 158.004,501.989 302.072,501.989 
	332.664,493.989 338.664,471.317 338.664,236.665 "/>
<polygon style="fill:#F5F7FA;" points="286.994,346.991 245.002,337.991 220.003,306.492 199.003,340.991 166.504,347.491 
	191.003,373.991 184.503,424.49 220.003,407.49 259.502,421.99 258.002,378.491 "/>
<polygon style="fill:#FFE1C5;" points="145.911,11.31 84.677,27.982 128.004,232.634 204.003,228.635 "/>
<polygon style="fill:#FFCE54;" points="275.994,164.495 258.502,232.634 302.072,232.634 313.993,177.995 "/>
<path style="fill:#E6E9ED;" d="M286.244,132.995l-8.25,27l39.999,11.5l9-24C326.993,147.495,287.494,133.495,286.244,132.995z"/>
<polygon style="fill:#EC87C0;" points="311.493,106.996 292.494,106.996 282.494,121.965 321.993,136.495 321.993,121.965 "/>
<path d="M405.32,277.337h-53.328v-42.671c0-5.89-4.781-10.671-10.672-10.671h-24.686l9.953-48.155c0,0,0,0,0.016,0l0,0l6.483-31.328
	v-0.016l0,0l2.156-10.438c1.734-8.375,0.094-16.906-4.593-24.062c-4.688-7.125-11.891-12.031-20.25-13.75
	c-2.156-0.453-4.344-0.672-6.515-0.672c-15.078,0-28.25,10.734-31.312,25.515l-21.288,102.905h-40.562L157.863,8.123
	c-1.406-5.719-7.187-9.218-12.906-7.812L82.802,15.529c-2.75,0.688-5.125,2.406-6.593,4.828c-1.453,2.422-1.906,5.328-1.234,8.078
	l10.156,41.437l0,0l0,0l20.296,82.873l0,0l0,0l10.141,41.437c0,0,0,0,0,0.016l0,0l7.296,29.796h-16.203
	c-5.89,0-10.656,4.781-10.656,10.671v245.324c0,17.656,14.343,31.999,31.999,31.999h191.989c17.64,0,31.999-14.343,31.999-31.999
	v-32h53.328c17.64,0,31.998-14.344,31.998-31.999V309.336C437.318,291.681,422.96,277.337,405.32,277.337z M289.135,146.308
	l20.89,4.312l-2.156,10.453l-20.89-4.328L289.135,146.308z M303.885,116.902c0.734,0,1.468,0.078,2.187,0.219
	c2.797,0.594,5.188,2.219,6.75,4.594s2.109,5.234,1.531,8.031l-20.89-4.343C294.478,120.48,298.869,116.902,303.885,116.902z
	 M282.65,177.636l20.891,4.328l-8.703,42.03h-21.781L282.65,177.636z M139.676,23.56l49.077,200.434h-33.921
	c-2.5-3.188-6.718-4.812-10.937-3.797l-5.062-20.718l0,0c5.719-1.391,9.219-7.172,7.812-12.891
	c-1.391-5.719-7.172-9.218-12.891-7.828l-5.078-20.718c5.719-1.406,9.234-7.171,7.828-12.89c-1.406-5.734-7.172-9.234-12.906-7.844
	l0,0l-5.062-20.718l0,0c5.719-1.391,9.218-7.156,7.812-12.891c-1.391-5.718-7.172-9.234-12.891-7.828l-5.078-20.718
	c5.719-1.406,9.219-7.172,7.828-12.891c-1.406-5.734-7.172-9.234-12.906-7.828l0,0l-5.077-20.718L139.676,23.56z M330.649,479.989
	c0,5.875-4.781,10.672-10.656,10.672H128.004c-5.89,0-10.671-4.797-10.671-10.672V245.337h213.316v42.656v149.34V479.989z
	 M415.991,415.99c0,5.875-4.797,10.672-10.671,10.672h-53.328V298.665h53.328c5.874,0,10.671,4.781,10.671,10.671V415.99z"/>
<path d="M292.947,338.46l-41.039-5.969l-18.344-37.186c-1.797-3.641-5.5-5.938-9.562-5.938s-7.781,2.297-9.562,5.938l-18.359,37.186
	l-41.031,5.969c-4.015,0.562-7.359,3.391-8.609,7.25c-1.266,3.859-0.219,8.094,2.688,10.938l29.702,28.938l-7.015,40.874
	c-0.688,4,0.969,8.046,4.25,10.437c3.281,2.375,7.64,2.688,11.234,0.812l36.703-19.312l36.702,19.312
	c1.562,0.812,3.266,1.219,4.953,1.219c2.219,0,4.422-0.688,6.281-2.031c3.273-2.391,4.914-6.437,4.227-10.437l-6.992-40.874
	l29.68-28.938c2.906-2.844,3.953-7.078,2.703-10.938S296.963,339.022,292.947,338.46z M250.268,374.225
	c-2.516,2.453-3.672,5.984-3.078,9.453l4.312,25.093l-22.546-11.858c-1.547-0.812-3.25-1.219-4.953-1.219s-3.406,0.406-4.969,1.219
	l-22.531,11.858l4.297-25.093c0.594-3.469-0.547-7-3.062-9.453l-18.234-17.766l25.187-3.656c3.484-0.516,6.484-2.688,8.031-5.844
	l11.281-22.843l11.265,22.843c1.547,3.156,4.562,5.328,8.031,5.844l25.203,3.656L250.268,374.225z"/>
<g>
</g>
<g>
</g>
<g>
</g>
<g>
</g>
<g>
</g>
<g>
</g>
<g>
</g>
<g>
</g>
<g>
</g>
<g>
</g>
<g>
</g>
<g>
</g>
<g>
</g>
<g>
</g>
<g>
</g>
</svg>
