<?xml version="1.0" encoding="iso-8859-1"?>
<!-- Generator: Adobe Illustrator 19.0.0, SVG Export Plug-In . SVG Version: 6.00 Build 0)  -->
<svg version="1.1" id="Layer_1" xmlns="http://www.w3.org/2000/svg" xmlns:xlink="http://www.w3.org/1999/xlink" x="0px" y="0px"
	 viewBox="0 0 511.991 511.991" style="enable-background:new 0 0 511.991 511.991;" xml:space="preserve">
<g>
	<path style="fill:#EAC6BB;" d="M455.928,303.476c0,109.622-88.873,198.496-198.504,198.496
		c-109.623,0-198.496-88.874-198.496-198.496c0-109.624,88.874-198.497,198.496-198.497
		C367.055,104.979,455.928,193.853,455.928,303.476z"/>
	<path style="fill:#EAC6BB;" d="M501.584,286.398c0,21.03-17.047,38.077-38.094,38.077c-21.031,0-38.062-17.047-38.062-38.077
		c0-21.031,17.03-38.078,38.062-38.078C484.537,248.321,501.584,265.367,501.584,286.398z"/>
	<path style="fill:#EAC6BB;" d="M82.591,286.398c0,21.03-17.046,38.077-38.085,38.077c-21.031,0-38.078-17.047-38.078-38.077
		c0-21.031,17.047-38.078,38.078-38.078C65.545,248.321,82.591,265.367,82.591,286.398z"/>
</g>
<path d="M459.537,234.164c-10.172-32.483-28.077-62.249-52.826-86.982c-40.344-40.343-93.983-62.562-151.029-62.562
	c-22.148,0-43.78,3.359-64.319,9.828c-3.031-5.781-5.18-12.141-6.25-18.937c-1.938-12.344,1.047-24.718,8.414-34.828
	c7.359-10.109,18.218-16.734,30.57-18.671c12.32-1.938,26.093,2.016,33.507,9.625c4.156,4.281,5.688,9,4.68,14.469
	c-1.078,5.828-4.203,10.5-8.796,13.156c-3.852,2.219-8.211,2.734-11.914,1.422c-2.203-0.984-5.062-7.266-4.43-9.703
	c1.703-5.64-1.5-11.593-7.148-13.312c-5.648-1.688-11.601,1.5-13.304,7.156c-4,13.281,4.93,31.437,17.703,35.968
	c9.648,3.438,20.5,2.312,29.773-3.031c9.953-5.75,16.922-15.875,19.125-27.78c2.266-12.25-1.438-24.047-10.391-33.25
	C260.767,4.278,239.823-2.081,220.784,0.903c-17.992,2.828-33.804,12.484-44.522,27.203c-10.727,14.719-15.078,32.75-12.25,50.718
	c1.289,8.219,3.758,15.969,7.203,23.093c-24.539,10.562-47.108,25.796-66.569,45.265c-24.75,24.75-42.671,54.515-52.827,86.982
	C23.101,235.008,0,258.617,0,287.539c0,26.999,20.172,49.373,46.234,52.904c8.171,40.953,28.21,78.593,58.413,108.811
	c40.343,40.344,93.983,62.562,151.036,62.562c57.046,0,110.686-22.218,151.029-62.562c30.186-30.187,50.217-67.811,58.389-108.732
	c26.391-3.234,46.89-25.749,46.89-52.982C511.989,258.414,488.553,234.664,459.537,234.164z M42.983,317.819
	c-12.57-4.328-21.625-16.265-21.625-30.28c0-15.188,10.617-27.922,24.812-31.219c-2.703,13.656-4.086,27.656-4.086,41.891
	C42.084,304.789,42.397,311.35,42.983,317.819z M391.617,434.144c-36.312,36.297-84.593,56.297-135.936,56.297
	c-51.351,0-99.623-20-135.935-56.297c-36.304-36.311-56.304-84.576-56.304-135.934c0-51.343,20-99.624,56.304-135.92
	c18.445-18.453,39.991-32.687,63.444-42.218c15.375,17.671,37.968,28.5,62.327,28.5c4.242,0,8.539-0.312,12.859-1
	c5.828-0.906,9.805-6.375,8.891-12.203s-6.383-9.812-12.203-8.89c-18.367,2.875-36.14-2.766-49.272-13.984
	c16.07-4.297,32.804-6.516,49.89-6.516c51.343,0,99.623,20,135.936,56.312c36.296,36.296,56.295,84.577,56.295,135.92
	C447.912,349.568,427.913,397.834,391.617,434.144z M468.365,318.038c0.594-6.547,0.906-13.155,0.906-19.827
	c0-14.281-1.391-28.344-4.109-42.047c14.516,3.047,25.469,15.953,25.469,31.375C490.631,301.789,481.271,313.913,468.365,318.038z"
	/>
<path d="M314.524,385.068c-5.109-2.938-11.64-1.188-14.593,3.938c0,0.031-2.312,3.453-7.859,7.031
	c-6.328,4.094-17.797,8.969-36.602,8.969c-34.062,0-44.78-15.688-45.226-16.359c0.078,0.109,0.117,0.172,0.117,0.172l-0.016,0.016
	c-1.867-3.109-5.258-5.188-9.148-5.188c-5.898,0-10.68,4.781-10.68,10.672c0,2.031,0.57,3.906,1.539,5.5h-0.008
	c0.75,1.266,5.008,7.827,15.015,14.202c12.875,8.188,29.156,12.344,48.405,12.344c19.273,0,35.492-4.172,48.211-12.391
	c9.905-6.406,14.046-13.062,14.78-14.312C321.399,394.537,319.634,388.006,314.524,385.068z"/>
<path d="M170.238,244.821c-5.898,0-10.68,4.781-10.68,10.671c0,5.891,4.781,10.672,10.68,10.672s10.679-4.781,10.679-10.672
	C180.917,249.602,176.137,244.821,170.238,244.821z"/>
<path d="M341.117,244.821c-5.906,0-10.687,4.781-10.687,10.671c0,5.891,4.78,10.672,10.687,10.672s10.688-4.781,10.688-10.672
	C351.805,249.602,347.023,244.821,341.117,244.821z"/>
<g>
</g>
<g>
</g>
<g>
</g>
<g>
</g>
<g>
</g>
<g>
</g>
<g>
</g>
<g>
</g>
<g>
</g>
<g>
</g>
<g>
</g>
<g>
</g>
<g>
</g>
<g>
</g>
<g>
</g>
</svg>
