<?xml version="1.0" encoding="iso-8859-1"?>
<!-- Generator: Adobe Illustrator 19.0.0, SVG Export Plug-In . SVG Version: 6.00 Build 0)  -->
<svg version="1.1" id="Layer_1" xmlns="http://www.w3.org/2000/svg" xmlns:xlink="http://www.w3.org/1999/xlink" x="0px" y="0px"
	 viewBox="0 0 511.988 511.988" style="enable-background:new 0 0 511.988 511.988;" xml:space="preserve">
<rect x="12.005" y="72.995" style="fill:#5D9CEC;" width="488.99" height="366.99"/>
<polygon style="fill:#F5F7FA;" points="297.995,55.996 258.667,69.996 51.327,51.996 44.671,403.318 197.325,403.99 
	261.995,424.661 472.663,401.318 472.663,54.668 "/>
<polygon style="fill:#ED5564;" points="353.993,31.996 353.993,478.988 373.993,467.988 393.993,473.988 393.993,31.996 "/>
<path d="M85.264,127.995h127.998c5.891,0,10.656-4.781,10.656-10.656c0-5.906-4.766-10.688-10.656-10.688H85.264
	c-5.891,0-10.671,4.781-10.671,10.688C74.593,123.214,79.373,127.995,85.264,127.995z"/>
<path d="M85.264,170.65h127.998c5.891,0,10.656-4.766,10.656-10.656s-4.766-10.656-10.656-10.656H85.264
	c-5.891,0-10.671,4.765-10.671,10.656S79.373,170.65,85.264,170.65z"/>
<path d="M85.264,213.337h127.998c5.891,0,10.656-4.781,10.656-10.687c0-5.875-4.766-10.656-10.656-10.656H85.264
	c-5.891,0-10.671,4.781-10.671,10.656C74.593,208.556,79.373,213.337,85.264,213.337z"/>
<path d="M85.264,255.992h127.998c5.891,0,10.656-4.781,10.656-10.656c0-5.906-4.766-10.688-10.656-10.688H85.264
	c-5.891,0-10.671,4.781-10.671,10.688C74.593,251.211,79.373,255.992,85.264,255.992z"/>
<path d="M85.264,298.648h127.998c5.891,0,10.656-4.766,10.656-10.656s-4.766-10.656-10.656-10.656H85.264
	c-5.891,0-10.671,4.766-10.671,10.656S79.373,298.648,85.264,298.648z"/>
<path d="M149.263,319.991H85.264c-5.891,0-10.671,4.781-10.671,10.656c0,5.905,4.781,10.687,10.671,10.687h63.999
	c5.89,0,10.656-4.781,10.656-10.687C159.919,324.772,155.153,319.991,149.263,319.991z"/>
<path d="M501.319,63.996h-21.188V53.34c0-5.906-4.766-10.687-10.656-10.687h-64.154V31.996c0-5.891-4.766-10.656-10.656-10.656
	h-42.672c-5.891,0-10.672,4.765-10.672,10.656v10.656h-7.516c-44.67,0-66.936,9.187-77.811,17.046
	c-10.875-7.859-33.14-17.046-77.811-17.046H42.515c-5.891,0-10.656,4.781-10.656,10.687v10.656H10.672
	C4.781,63.995,0,68.776,0,74.651v362.68c0,5.875,4.781,10.656,10.672,10.656h210.871c6.766,3.219,23.531,10.656,34.452,10.656
	c10.922,0,27.688-7.438,34.453-10.656h50.873v32c0,3.688,1.922,7.125,5.062,9.062c3.141,1.953,7.078,2.125,10.375,0.469
	l16.562-8.281l16.562,8.281c1.516,0.766,3.141,1.125,4.781,1.125c1.938,0,3.891-0.531,5.609-1.594
	c3.141-1.938,5.047-5.375,5.047-9.062v-32h95.998c5.891,0,10.671-4.781,10.671-10.656V74.652
	C511.99,68.777,507.21,63.996,501.319,63.996z M341.321,63.996v330.65h-10.655c-26.718,0-48.218,5.234-63.999,15.546V78.511
	c4.484-4,20.703-14.515,67.139-14.515H341.321z M53.186,63.996h124.998c46.437,0,62.655,10.516,67.14,14.515v331.681
	c-15.781-10.312-37.281-15.546-63.999-15.546H53.186V63.996z M223.996,426.645H21.328V85.339h10.531v319.995
	c0,5.874,4.766,10.655,10.656,10.655h138.81c15.938,0,38.156,2.219,53.483,12.844c1.844,1.266,3.391,2.531,4.703,3.733
	c-3.953-1.577-7.812-3.327-10.75-4.78C227.293,427.052,225.652,426.645,223.996,426.645z M287.995,426.645
	c-1.656,0-3.297,0.406-4.766,1.141c-2.938,1.469-6.797,3.203-10.75,4.796c1.312-1.218,2.859-2.468,4.703-3.749
	c15.328-10.625,37.546-12.844,53.483-12.844h10.655v10.656H287.995z M383.993,462.738l-5.891-2.953
	c-1.5-0.766-3.141-1.141-4.781-1.141c-1.625,0-3.266,0.375-4.766,1.141l-5.891,2.953V42.653h21.328L383.993,462.738L383.993,462.738
	z M458.804,63.996v330.65h-53.482V63.996H458.804z M490.663,426.645h-85.342v-10.656h64.154c5.891,0,10.656-4.781,10.656-10.655
	V85.339h10.531v341.306H490.663z"/>
<g>
</g>
<g>
</g>
<g>
</g>
<g>
</g>
<g>
</g>
<g>
</g>
<g>
</g>
<g>
</g>
<g>
</g>
<g>
</g>
<g>
</g>
<g>
</g>
<g>
</g>
<g>
</g>
<g>
</g>
</svg>
