<?xml version="1.0" standalone="no"?><!-- Generator: Gravit.io --><svg xmlns="http://www.w3.org/2000/svg" xmlns:xlink="http://www.w3.org/1999/xlink" style="isolation:isolate" viewBox="0 0 404.567 113.849" width="404.567px" height="113.849px"><defs><clipPath id="_clipPath_2JOToGuS1Yn4LDoMymDkHJKfZDDkfkyA"><rect width="404.567" height="113.849"/></clipPath></defs><g clip-path="url(#_clipPath_2JOToGuS1Yn4LDoMymDkHJKfZDDkfkyA)"><g><path d=" M 76.731 2.472 L 92.537 91.369 C 92.832 93.025 91.741 94.561 90.057 94.86 L 26.928 106.085 L 0.184 25.437 C -0.973 18.932 3.457 12.451 10.07 11.275 L 73.199 0.05 C 74.883 -0.249 76.436 0.816 76.731 2.472 Z " fill="rgb(255,244,202)"/><path d=" M 76.731 2.472 L 92.537 91.369 C 92.832 93.025 91.741 94.561 90.057 94.86 L 47.971 102.343 L 31.113 7.533 L 73.199 0.05 C 74.883 -0.249 76.436 0.816 76.731 2.472 Z " fill="rgb(255,225,186)"/><path d=" M 89.442 37.017 L 92.914 25.564 C 93.218 24.565 92.974 23.486 92.27 22.711 C 91.567 21.937 90.506 21.577 89.464 21.763 L 65.415 26.039 L 70.672 55.605 L 94.721 51.329 C 96.947 50.933 98.001 48.358 96.649 46.572 L 89.442 37.017 Z " fill="rgb(255,99,123)"/><path d=" M 63.312 14.212 L 0.184 25.437 L 15.464 111.377 C 15.759 113.032 17.312 114.098 18.996 113.799 L 79.119 103.109 C 80.803 102.809 81.893 101.273 81.599 99.618 L 66.844 16.634 C 66.55 14.978 64.996 13.913 63.312 14.212 Z " fill="rgb(102,192,238)"/><path d=" M 66.844 16.634 L 81.599 99.618 C 81.893 101.273 80.803 102.809 79.119 103.109 L 49.057 108.454 L 33.251 19.557 L 63.312 14.212 C 64.996 13.913 66.55 14.978 66.844 16.634 Z " fill="rgb(106,169,255)"/><path d=" M 42.809 30.058 C 39.502 30.646 37.3 32.563 35.953 34.755 C 33.933 33.162 31.206 32.121 27.899 32.709 C 22.006 33.757 18.289 39.36 19.382 45.509 C 20.728 53.078 28.974 56.553 38.816 62.367 C 39.501 62.734 40.205 62.853 40.926 62.724 C 41.647 62.596 42.267 62.242 42.784 61.662 C 49.61 53.311 56.603 46.944 55.215 39.138 C 54.122 32.988 48.701 29.011 42.809 30.058 Z " fill="rgb(255,244,202)"/><path d=" M 27.157 72.493 C 27.448 74.126 26.337 75.689 24.677 75.984 C 23.017 76.279 21.436 75.195 21.145 73.562 C 20.855 71.929 21.965 70.366 23.626 70.071 C 25.286 69.775 26.867 70.86 27.157 72.493 Z " fill="rgb(255,244,202)"/><path d=" M 67.437 89.732 C 67.727 91.365 66.617 92.928 64.956 93.223 C 63.296 93.518 61.715 92.434 61.424 90.801 C 61.134 89.168 62.244 87.605 63.905 87.31 C 65.565 87.015 67.146 88.099 67.437 89.732 Z " fill="rgb(255,225,186)"/><path d=" M 63.231 66.079 C 63.525 67.734 62.435 69.27 60.751 69.57 L 36.702 73.846 C 35.018 74.145 33.464 73.079 33.17 71.424 C 32.875 69.768 33.966 68.232 35.65 67.933 L 59.699 63.657 C 61.383 63.357 62.937 64.423 63.231 66.079 Z " fill="rgb(255,244,202)"/><path d=" M 65.334 77.905 C 65.628 79.561 64.537 81.097 62.853 81.397 L 26.78 87.811 C 25.096 88.11 23.542 87.044 23.248 85.388 C 22.954 83.732 24.045 82.197 25.728 81.897 L 61.802 75.483 C 63.486 75.184 65.039 76.249 65.334 77.905 Z " fill="rgb(255,244,202)"/><path d=" M 55.412 91.87 C 55.707 93.525 54.616 95.062 52.932 95.361 L 28.883 99.637 C 27.199 99.937 25.645 98.871 25.351 97.215 C 25.056 95.559 26.147 94.023 27.831 93.724 L 51.88 89.448 C 53.564 89.148 55.118 90.214 55.412 91.87 Z " fill="rgb(255,244,202)"/><g><path d=" M 55.412 91.87 C 55.707 93.525 54.616 95.062 52.932 95.361 L 46.92 96.43 L 45.868 90.517 L 51.88 89.448 C 53.564 89.148 55.118 90.214 55.412 91.87 Z " fill="rgb(255,225,186)"/><path d=" M 42.784 61.662 C 42.267 62.242 41.647 62.596 40.926 62.724 L 35.953 34.755 C 37.3 32.563 39.502 30.646 42.809 30.058 C 48.701 29.011 54.122 32.988 55.215 39.138 C 56.603 46.943 49.61 53.311 42.784 61.662 Z " fill="rgb(255,225,186)"/><path d=" M 65.334 77.905 C 65.628 79.561 64.537 81.097 62.853 81.397 L 44.817 84.604 L 43.765 78.69 L 61.802 75.483 C 63.486 75.184 65.039 76.249 65.334 77.905 Z " fill="rgb(255,225,186)"/><path d=" M 60.751 69.57 L 42.714 72.777 L 41.662 66.864 L 59.699 63.657 C 61.383 63.357 62.937 64.423 63.231 66.079 C 63.525 67.734 62.435 69.27 60.751 69.57 Z " fill="rgb(255,225,186)"/></g></g><linearGradient id="_lgradient_40" x1="0" y1="0.5" x2="1" y2="0.5" gradientTransform="matrix(38.52,0,0,42,118.993,27.075)" gradientUnits="userSpaceOnUse"><stop offset="1.7391304347826086%" stop-opacity="1" style="stop-color:rgb(113,108,108)"/><stop offset="33.04347826086956%" stop-opacity="1" style="stop-color:rgb(0,0,0)"/></linearGradient><path d=" M 138.313 34.395 L 128.653 34.395 L 128.653 44.295 L 138.313 44.295 L 138.313 44.295 Q 141.913 44.295 143.773 43.035 L 143.773 43.035 L 143.773 43.035 Q 145.633 41.775 145.633 39.315 L 145.633 39.315 L 145.633 39.315 Q 145.633 36.855 143.773 35.625 L 143.773 35.625 L 143.773 35.625 Q 141.913 34.395 138.313 34.395 L 138.313 34.395 L 138.313 34.395 Z  M 149.833 47.235 L 149.833 47.235 Q 153.433 48.375 155.473 51.045 L 155.473 51.045 L 155.473 51.045 Q 157.513 53.715 157.513 57.615 L 157.513 57.615 L 157.513 57.615 Q 157.513 63.135 153.223 66.105 L 153.223 66.105 L 153.223 66.105 Q 148.933 69.075 140.713 69.075 L 140.713 69.075 L 118.993 69.075 L 118.993 27.075 L 139.513 27.075 L 139.513 27.075 Q 147.193 27.075 151.303 30.015 L 151.303 30.015 L 151.303 30.015 Q 155.413 32.955 155.413 37.995 L 155.413 37.995 L 155.413 37.995 Q 155.413 41.055 153.943 43.455 L 153.943 43.455 L 153.943 43.455 Q 152.473 45.855 149.833 47.235 L 149.833 47.235 L 149.833 47.235 Z  M 139.993 61.755 L 139.993 61.755 Q 143.833 61.755 145.783 60.495 L 145.783 60.495 L 145.783 60.495 Q 147.733 59.235 147.733 56.595 L 147.733 56.595 L 147.733 56.595 Q 147.733 51.375 139.993 51.375 L 139.993 51.375 L 128.653 51.375 L 128.653 61.755 L 139.993 61.755 Z " fill-rule="evenodd" fill="url(#_lgradient_40)"/><g style="isolation: isolate;"><mask id="_mask_lzPVsBKjyDiZt9xg1ob18fy6nUvfXH1g" x="-200%" y="-200%" width="400%" height="400%"><rect x="-200%" y="-200%" width="400%" height="400%" style="fill:white;"/><path d=" M 138.313 34.395 L 128.653 34.395 L 128.653 44.295 L 138.313 44.295 L 138.313 44.295 Q 141.913 44.295 143.773 43.035 L 143.773 43.035 L 143.773 43.035 Q 145.633 41.775 145.633 39.315 L 145.633 39.315 L 145.633 39.315 Q 145.633 36.855 143.773 35.625 L 143.773 35.625 L 143.773 35.625 Q 141.913 34.395 138.313 34.395 L 138.313 34.395 L 138.313 34.395 Z  M 149.833 47.235 L 149.833 47.235 Q 153.433 48.375 155.473 51.045 L 155.473 51.045 L 155.473 51.045 Q 157.513 53.715 157.513 57.615 L 157.513 57.615 L 157.513 57.615 Q 157.513 63.135 153.223 66.105 L 153.223 66.105 L 153.223 66.105 Q 148.933 69.075 140.713 69.075 L 140.713 69.075 L 118.993 69.075 L 118.993 27.075 L 139.513 27.075 L 139.513 27.075 Q 147.193 27.075 151.303 30.015 L 151.303 30.015 L 151.303 30.015 Q 155.413 32.955 155.413 37.995 L 155.413 37.995 L 155.413 37.995 Q 155.413 41.055 153.943 43.455 L 153.943 43.455 L 153.943 43.455 Q 152.473 45.855 149.833 47.235 L 149.833 47.235 L 149.833 47.235 Z  M 139.993 61.755 L 139.993 61.755 Q 143.833 61.755 145.783 60.495 L 145.783 60.495 L 145.783 60.495 Q 147.733 59.235 147.733 56.595 L 147.733 56.595 L 147.733 56.595 Q 147.733 51.375 139.993 51.375 L 139.993 51.375 L 128.653 51.375 L 128.653 61.755 L 139.993 61.755 Z " fill-rule="evenodd" fill="black" stroke="none"/></mask><path d=" M 138.313 34.395 L 128.653 34.395 L 128.653 44.295 L 138.313 44.295 L 138.313 44.295 Q 141.913 44.295 143.773 43.035 L 143.773 43.035 L 143.773 43.035 Q 145.633 41.775 145.633 39.315 L 145.633 39.315 L 145.633 39.315 Q 145.633 36.855 143.773 35.625 L 143.773 35.625 L 143.773 35.625 Q 141.913 34.395 138.313 34.395 L 138.313 34.395 L 138.313 34.395 Z  M 149.833 47.235 L 149.833 47.235 Q 153.433 48.375 155.473 51.045 L 155.473 51.045 L 155.473 51.045 Q 157.513 53.715 157.513 57.615 L 157.513 57.615 L 157.513 57.615 Q 157.513 63.135 153.223 66.105 L 153.223 66.105 L 153.223 66.105 Q 148.933 69.075 140.713 69.075 L 140.713 69.075 L 118.993 69.075 L 118.993 27.075 L 139.513 27.075 L 139.513 27.075 Q 147.193 27.075 151.303 30.015 L 151.303 30.015 L 151.303 30.015 Q 155.413 32.955 155.413 37.995 L 155.413 37.995 L 155.413 37.995 Q 155.413 41.055 153.943 43.455 L 153.943 43.455 L 153.943 43.455 Q 152.473 45.855 149.833 47.235 L 149.833 47.235 L 149.833 47.235 Z  M 139.993 61.755 L 139.993 61.755 Q 143.833 61.755 145.783 60.495 L 145.783 60.495 L 145.783 60.495 Q 147.733 59.235 147.733 56.595 L 147.733 56.595 L 147.733 56.595 Q 147.733 51.375 139.993 51.375 L 139.993 51.375 L 128.653 51.375 L 128.653 61.755 L 139.993 61.755 Z " fill-rule="evenodd" fill="none" mask="url(#_mask_lzPVsBKjyDiZt9xg1ob18fy6nUvfXH1g)" vector-effect="non-scaling-stroke" stroke-width="4" stroke="rgb(165,195,238)" stroke-linejoin="miter" stroke-linecap="round" stroke-miterlimit="3"/><path d=" M 138.313 34.395 L 128.653 34.395 L 128.653 44.295 L 138.313 44.295 L 138.313 44.295 Q 141.913 44.295 143.773 43.035 L 143.773 43.035 L 143.773 43.035 Q 145.633 41.775 145.633 39.315 L 145.633 39.315 L 145.633 39.315 Q 145.633 36.855 143.773 35.625 L 143.773 35.625 L 143.773 35.625 Q 141.913 34.395 138.313 34.395 L 138.313 34.395 L 138.313 34.395 Z  M 149.833 47.235 L 149.833 47.235 Q 153.433 48.375 155.473 51.045 L 155.473 51.045 L 155.473 51.045 Q 157.513 53.715 157.513 57.615 L 157.513 57.615 L 157.513 57.615 Q 157.513 63.135 153.223 66.105 L 153.223 66.105 L 153.223 66.105 Q 148.933 69.075 140.713 69.075 L 140.713 69.075 L 118.993 69.075 L 118.993 27.075 L 139.513 27.075 L 139.513 27.075 Q 147.193 27.075 151.303 30.015 L 151.303 30.015 L 151.303 30.015 Q 155.413 32.955 155.413 37.995 L 155.413 37.995 L 155.413 37.995 Q 155.413 41.055 153.943 43.455 L 153.943 43.455 L 153.943 43.455 Q 152.473 45.855 149.833 47.235 L 149.833 47.235 L 149.833 47.235 Z  M 139.993 61.755 L 139.993 61.755 Q 143.833 61.755 145.783 60.495 L 145.783 60.495 L 145.783 60.495 Q 147.733 59.235 147.733 56.595 L 147.733 56.595 L 147.733 56.595 Q 147.733 51.375 139.993 51.375 L 139.993 51.375 L 128.653 51.375 L 128.653 61.755 L 139.993 61.755 Z " fill-rule="evenodd" fill="none" vector-effect="non-scaling-stroke" stroke-width="1" stroke="rgb(0,0,0)" stroke-linejoin="miter" stroke-linecap="square" stroke-miterlimit="3"/></g><path d=" M 138.313 34.395 L 128.653 34.395 L 128.653 44.295 L 138.313 44.295 L 138.313 44.295 Q 141.913 44.295 143.773 43.035 L 143.773 43.035 L 143.773 43.035 Q 145.633 41.775 145.633 39.315 L 145.633 39.315 L 145.633 39.315 Q 145.633 36.855 143.773 35.625 L 143.773 35.625 L 143.773 35.625 Q 141.913 34.395 138.313 34.395 L 138.313 34.395 L 138.313 34.395 Z  M 149.833 47.235 L 149.833 47.235 Q 153.433 48.375 155.473 51.045 L 155.473 51.045 L 155.473 51.045 Q 157.513 53.715 157.513 57.615 L 157.513 57.615 L 157.513 57.615 Q 157.513 63.135 153.223 66.105 L 153.223 66.105 L 153.223 66.105 Q 148.933 69.075 140.713 69.075 L 140.713 69.075 L 118.993 69.075 L 118.993 27.075 L 139.513 27.075 L 139.513 27.075 Q 147.193 27.075 151.303 30.015 L 151.303 30.015 L 151.303 30.015 Q 155.413 32.955 155.413 37.995 L 155.413 37.995 L 155.413 37.995 Q 155.413 41.055 153.943 43.455 L 153.943 43.455 L 153.943 43.455 Q 152.473 45.855 149.833 47.235 L 149.833 47.235 L 149.833 47.235 Z  M 139.993 61.755 L 139.993 61.755 Q 143.833 61.755 145.783 60.495 L 145.783 60.495 L 145.783 60.495 Q 147.733 59.235 147.733 56.595 L 147.733 56.595 L 147.733 56.595 Q 147.733 51.375 139.993 51.375 L 139.993 51.375 L 128.653 51.375 L 128.653 61.755 L 139.993 61.755 Z " fill-rule="evenodd" fill="none"/><linearGradient id="_lgradient_41" x1="0" y1="0.5" x2="1" y2="0.5" gradientTransform="matrix(34.02,0,0,33.24,161.502,47.655)" gradientUnits="userSpaceOnUse"><stop offset="1.7391304347826086%" stop-opacity="1" style="stop-color:rgb(113,108,108)"/><stop offset="33.04347826086956%" stop-opacity="1" style="stop-color:rgb(0,0,0)"/></linearGradient><path d=" M 195.522 64.395 L 195.522 64.395 Q 195.522 64.575 195.342 66.915 L 195.342 66.915 L 170.922 66.915 L 170.922 66.915 Q 171.582 69.915 174.042 71.655 L 174.042 71.655 L 174.042 71.655 Q 176.502 73.395 180.162 73.395 L 180.162 73.395 L 180.162 73.395 Q 182.682 73.395 184.632 72.645 L 184.632 72.645 L 184.632 72.645 Q 186.582 71.895 188.262 70.275 L 188.262 70.275 L 193.242 75.675 L 193.242 75.675 Q 188.682 80.895 179.922 80.895 L 179.922 80.895 L 179.922 80.895 Q 174.462 80.895 170.262 78.765 L 170.262 78.765 L 170.262 78.765 Q 166.062 76.635 163.782 72.855 L 163.782 72.855 L 163.782 72.855 Q 161.502 69.075 161.502 64.275 L 161.502 64.275 L 161.502 64.275 Q 161.502 59.535 163.752 55.725 L 163.752 55.725 L 163.752 55.725 Q 166.002 51.915 169.932 49.785 L 169.932 49.785 L 169.932 49.785 Q 173.862 47.655 178.722 47.655 L 178.722 47.655 L 178.722 47.655 Q 183.462 47.655 187.302 49.695 L 187.302 49.695 L 187.302 49.695 Q 191.142 51.735 193.332 55.545 L 193.332 55.545 L 193.332 55.545 Q 195.522 59.355 195.522 64.395 L 195.522 64.395 Z  M 178.782 54.735 L 178.782 54.735 Q 175.602 54.735 173.442 56.535 L 173.442 56.535 L 173.442 56.535 Q 171.282 58.335 170.802 61.455 L 170.802 61.455 L 186.702 61.455 L 186.702 61.455 Q 186.222 58.395 184.062 56.565 L 184.062 56.565 L 184.062 56.565 Q 181.902 54.735 178.782 54.735 L 178.782 54.735 Z " fill-rule="evenodd" fill="url(#_lgradient_41)"/><g style="isolation: isolate;"><mask id="_mask_xKCrJA5aXfrcSwujpUpK5NG6aOClmXS3" x="-200%" y="-200%" width="400%" height="400%"><rect x="-200%" y="-200%" width="400%" height="400%" style="fill:white;"/><path d=" M 195.522 64.395 L 195.522 64.395 Q 195.522 64.575 195.342 66.915 L 195.342 66.915 L 170.922 66.915 L 170.922 66.915 Q 171.582 69.915 174.042 71.655 L 174.042 71.655 L 174.042 71.655 Q 176.502 73.395 180.162 73.395 L 180.162 73.395 L 180.162 73.395 Q 182.682 73.395 184.632 72.645 L 184.632 72.645 L 184.632 72.645 Q 186.582 71.895 188.262 70.275 L 188.262 70.275 L 193.242 75.675 L 193.242 75.675 Q 188.682 80.895 179.922 80.895 L 179.922 80.895 L 179.922 80.895 Q 174.462 80.895 170.262 78.765 L 170.262 78.765 L 170.262 78.765 Q 166.062 76.635 163.782 72.855 L 163.782 72.855 L 163.782 72.855 Q 161.502 69.075 161.502 64.275 L 161.502 64.275 L 161.502 64.275 Q 161.502 59.535 163.752 55.725 L 163.752 55.725 L 163.752 55.725 Q 166.002 51.915 169.932 49.785 L 169.932 49.785 L 169.932 49.785 Q 173.862 47.655 178.722 47.655 L 178.722 47.655 L 178.722 47.655 Q 183.462 47.655 187.302 49.695 L 187.302 49.695 L 187.302 49.695 Q 191.142 51.735 193.332 55.545 L 193.332 55.545 L 193.332 55.545 Q 195.522 59.355 195.522 64.395 L 195.522 64.395 Z  M 178.782 54.735 L 178.782 54.735 Q 175.602 54.735 173.442 56.535 L 173.442 56.535 L 173.442 56.535 Q 171.282 58.335 170.802 61.455 L 170.802 61.455 L 186.702 61.455 L 186.702 61.455 Q 186.222 58.395 184.062 56.565 L 184.062 56.565 L 184.062 56.565 Q 181.902 54.735 178.782 54.735 L 178.782 54.735 Z " fill-rule="evenodd" fill="black" stroke="none"/></mask><path d=" M 195.522 64.395 L 195.522 64.395 Q 195.522 64.575 195.342 66.915 L 195.342 66.915 L 170.922 66.915 L 170.922 66.915 Q 171.582 69.915 174.042 71.655 L 174.042 71.655 L 174.042 71.655 Q 176.502 73.395 180.162 73.395 L 180.162 73.395 L 180.162 73.395 Q 182.682 73.395 184.632 72.645 L 184.632 72.645 L 184.632 72.645 Q 186.582 71.895 188.262 70.275 L 188.262 70.275 L 193.242 75.675 L 193.242 75.675 Q 188.682 80.895 179.922 80.895 L 179.922 80.895 L 179.922 80.895 Q 174.462 80.895 170.262 78.765 L 170.262 78.765 L 170.262 78.765 Q 166.062 76.635 163.782 72.855 L 163.782 72.855 L 163.782 72.855 Q 161.502 69.075 161.502 64.275 L 161.502 64.275 L 161.502 64.275 Q 161.502 59.535 163.752 55.725 L 163.752 55.725 L 163.752 55.725 Q 166.002 51.915 169.932 49.785 L 169.932 49.785 L 169.932 49.785 Q 173.862 47.655 178.722 47.655 L 178.722 47.655 L 178.722 47.655 Q 183.462 47.655 187.302 49.695 L 187.302 49.695 L 187.302 49.695 Q 191.142 51.735 193.332 55.545 L 193.332 55.545 L 193.332 55.545 Q 195.522 59.355 195.522 64.395 L 195.522 64.395 Z  M 178.782 54.735 L 178.782 54.735 Q 175.602 54.735 173.442 56.535 L 173.442 56.535 L 173.442 56.535 Q 171.282 58.335 170.802 61.455 L 170.802 61.455 L 186.702 61.455 L 186.702 61.455 Q 186.222 58.395 184.062 56.565 L 184.062 56.565 L 184.062 56.565 Q 181.902 54.735 178.782 54.735 L 178.782 54.735 Z " fill-rule="evenodd" fill="none" mask="url(#_mask_xKCrJA5aXfrcSwujpUpK5NG6aOClmXS3)" vector-effect="non-scaling-stroke" stroke-width="4" stroke="rgb(165,195,238)" stroke-linejoin="miter" stroke-linecap="round" stroke-miterlimit="3"/><path d=" M 195.522 64.395 L 195.522 64.395 Q 195.522 64.575 195.342 66.915 L 195.342 66.915 L 170.922 66.915 L 170.922 66.915 Q 171.582 69.915 174.042 71.655 L 174.042 71.655 L 174.042 71.655 Q 176.502 73.395 180.162 73.395 L 180.162 73.395 L 180.162 73.395 Q 182.682 73.395 184.632 72.645 L 184.632 72.645 L 184.632 72.645 Q 186.582 71.895 188.262 70.275 L 188.262 70.275 L 193.242 75.675 L 193.242 75.675 Q 188.682 80.895 179.922 80.895 L 179.922 80.895 L 179.922 80.895 Q 174.462 80.895 170.262 78.765 L 170.262 78.765 L 170.262 78.765 Q 166.062 76.635 163.782 72.855 L 163.782 72.855 L 163.782 72.855 Q 161.502 69.075 161.502 64.275 L 161.502 64.275 L 161.502 64.275 Q 161.502 59.535 163.752 55.725 L 163.752 55.725 L 163.752 55.725 Q 166.002 51.915 169.932 49.785 L 169.932 49.785 L 169.932 49.785 Q 173.862 47.655 178.722 47.655 L 178.722 47.655 L 178.722 47.655 Q 183.462 47.655 187.302 49.695 L 187.302 49.695 L 187.302 49.695 Q 191.142 51.735 193.332 55.545 L 193.332 55.545 L 193.332 55.545 Q 195.522 59.355 195.522 64.395 L 195.522 64.395 Z  M 178.782 54.735 L 178.782 54.735 Q 175.602 54.735 173.442 56.535 L 173.442 56.535 L 173.442 56.535 Q 171.282 58.335 170.802 61.455 L 170.802 61.455 L 186.702 61.455 L 186.702 61.455 Q 186.222 58.395 184.062 56.565 L 184.062 56.565 L 184.062 56.565 Q 181.902 54.735 178.782 54.735 L 178.782 54.735 Z " fill-rule="evenodd" fill="none" vector-effect="non-scaling-stroke" stroke-width="1" stroke="rgb(0,0,0)" stroke-linejoin="miter" stroke-linecap="square" stroke-miterlimit="3"/></g><path d=" M 195.522 64.395 L 195.522 64.395 Q 195.522 64.575 195.342 66.915 L 195.342 66.915 L 170.922 66.915 L 170.922 66.915 Q 171.582 69.915 174.042 71.655 L 174.042 71.655 L 174.042 71.655 Q 176.502 73.395 180.162 73.395 L 180.162 73.395 L 180.162 73.395 Q 182.682 73.395 184.632 72.645 L 184.632 72.645 L 184.632 72.645 Q 186.582 71.895 188.262 70.275 L 188.262 70.275 L 193.242 75.675 L 193.242 75.675 Q 188.682 80.895 179.922 80.895 L 179.922 80.895 L 179.922 80.895 Q 174.462 80.895 170.262 78.765 L 170.262 78.765 L 170.262 78.765 Q 166.062 76.635 163.782 72.855 L 163.782 72.855 L 163.782 72.855 Q 161.502 69.075 161.502 64.275 L 161.502 64.275 L 161.502 64.275 Q 161.502 59.535 163.752 55.725 L 163.752 55.725 L 163.752 55.725 Q 166.002 51.915 169.932 49.785 L 169.932 49.785 L 169.932 49.785 Q 173.862 47.655 178.722 47.655 L 178.722 47.655 L 178.722 47.655 Q 183.462 47.655 187.302 49.695 L 187.302 49.695 L 187.302 49.695 Q 191.142 51.735 193.332 55.545 L 193.332 55.545 L 193.332 55.545 Q 195.522 59.355 195.522 64.395 L 195.522 64.395 Z  M 178.782 54.735 L 178.782 54.735 Q 175.602 54.735 173.442 56.535 L 173.442 56.535 L 173.442 56.535 Q 171.282 58.335 170.802 61.455 L 170.802 61.455 L 186.702 61.455 L 186.702 61.455 Q 186.222 58.395 184.062 56.565 L 184.062 56.565 L 184.062 56.565 Q 181.902 54.735 178.782 54.735 L 178.782 54.735 Z " fill-rule="evenodd" fill="none"/><linearGradient id="_lgradient_42" x1="0" y1="0.5" x2="1" y2="0.5" gradientTransform="matrix(20.04,0,0,32.76,201.931,35.315)" gradientUnits="userSpaceOnUse"><stop offset="1.7391304347826086%" stop-opacity="1" style="stop-color:rgb(113,108,108)"/><stop offset="33.04347826086956%" stop-opacity="1" style="stop-color:rgb(0,0,0)"/></linearGradient><path d=" M 210.871 40.055 L 210.871 40.055 Q 212.551 37.715 215.401 36.515 L 215.401 36.515 L 215.401 36.515 Q 218.251 35.315 221.971 35.315 L 221.971 35.315 L 221.971 43.955 L 221.971 43.955 Q 220.411 43.835 219.871 43.835 L 219.871 43.835 L 219.871 43.835 Q 215.851 43.835 213.571 46.085 L 213.571 46.085 L 213.571 46.085 Q 211.291 48.335 211.291 52.835 L 211.291 52.835 L 211.291 68.075 L 201.931 68.075 L 201.931 35.795 L 210.871 35.795 L 210.871 40.055 Z " fill-rule="evenodd" fill="url(#_lgradient_42)"/><g style="isolation: isolate;"><mask id="_mask_ahoUedfop7gbQRF2tXMxeRoDF6Ol3eNm" x="-200%" y="-200%" width="400%" height="400%"><rect x="-200%" y="-200%" width="400%" height="400%" style="fill:white;"/><path d=" M 210.871 40.055 L 210.871 40.055 Q 212.551 37.715 215.401 36.515 L 215.401 36.515 L 215.401 36.515 Q 218.251 35.315 221.971 35.315 L 221.971 35.315 L 221.971 43.955 L 221.971 43.955 Q 220.411 43.835 219.871 43.835 L 219.871 43.835 L 219.871 43.835 Q 215.851 43.835 213.571 46.085 L 213.571 46.085 L 213.571 46.085 Q 211.291 48.335 211.291 52.835 L 211.291 52.835 L 211.291 68.075 L 201.931 68.075 L 201.931 35.795 L 210.871 35.795 L 210.871 40.055 Z " fill-rule="evenodd" fill="black" stroke="none"/></mask><path d=" M 210.871 40.055 L 210.871 40.055 Q 212.551 37.715 215.401 36.515 L 215.401 36.515 L 215.401 36.515 Q 218.251 35.315 221.971 35.315 L 221.971 35.315 L 221.971 43.955 L 221.971 43.955 Q 220.411 43.835 219.871 43.835 L 219.871 43.835 L 219.871 43.835 Q 215.851 43.835 213.571 46.085 L 213.571 46.085 L 213.571 46.085 Q 211.291 48.335 211.291 52.835 L 211.291 52.835 L 211.291 68.075 L 201.931 68.075 L 201.931 35.795 L 210.871 35.795 L 210.871 40.055 Z " fill-rule="evenodd" fill="none" mask="url(#_mask_ahoUedfop7gbQRF2tXMxeRoDF6Ol3eNm)" vector-effect="non-scaling-stroke" stroke-width="4" stroke="rgb(165,195,238)" stroke-linejoin="miter" stroke-linecap="round" stroke-miterlimit="3"/><path d=" M 210.871 40.055 L 210.871 40.055 Q 212.551 37.715 215.401 36.515 L 215.401 36.515 L 215.401 36.515 Q 218.251 35.315 221.971 35.315 L 221.971 35.315 L 221.971 43.955 L 221.971 43.955 Q 220.411 43.835 219.871 43.835 L 219.871 43.835 L 219.871 43.835 Q 215.851 43.835 213.571 46.085 L 213.571 46.085 L 213.571 46.085 Q 211.291 48.335 211.291 52.835 L 211.291 52.835 L 211.291 68.075 L 201.931 68.075 L 201.931 35.795 L 210.871 35.795 L 210.871 40.055 Z " fill-rule="evenodd" fill="none" vector-effect="non-scaling-stroke" stroke-width="1" stroke="rgb(0,0,0)" stroke-linejoin="miter" stroke-linecap="square" stroke-miterlimit="3"/></g><path d=" M 210.871 40.055 L 210.871 40.055 Q 212.551 37.715 215.401 36.515 L 215.401 36.515 L 215.401 36.515 Q 218.251 35.315 221.971 35.315 L 221.971 35.315 L 221.971 43.955 L 221.971 43.955 Q 220.411 43.835 219.871 43.835 L 219.871 43.835 L 219.871 43.835 Q 215.851 43.835 213.571 46.085 L 213.571 46.085 L 213.571 46.085 Q 211.291 48.335 211.291 52.835 L 211.291 52.835 L 211.291 68.075 L 201.931 68.075 L 201.931 35.795 L 210.871 35.795 L 210.871 40.055 Z " fill-rule="evenodd" fill="none"/><linearGradient id="_lgradient_43" x1="0" y1="0.5" x2="1" y2="0.5" gradientTransform="matrix(32.46,0,0,46.68,219.021,47.655)" gradientUnits="userSpaceOnUse"><stop offset="1.7391304347826086%" stop-opacity="1" style="stop-color:rgb(113,108,108)"/><stop offset="33.04347826086956%" stop-opacity="1" style="stop-color:rgb(0,0,0)"/></linearGradient><path d=" M 232.915 80.527 Q 230.154 80.01 227.751 78.765 L 227.751 78.765 L 227.751 78.765 Q 223.641 76.635 221.331 72.855 L 221.331 72.855 L 221.331 72.855 Q 219.021 69.075 219.021 64.275 L 219.021 64.275 L 219.021 64.275 Q 219.021 59.475 221.331 55.695 L 221.331 55.695 L 221.331 55.695 Q 223.641 51.915 227.751 49.785 L 227.751 49.785 L 227.751 49.785 Q 231.861 47.655 237.021 47.655 L 237.021 47.655 L 237.021 47.655 Q 242.121 47.655 245.931 49.785 L 245.931 49.785 L 245.931 49.785 Q 249.741 51.915 251.481 55.875 L 251.481 55.875 L 244.221 59.775 L 244.221 59.775 Q 241.701 55.335 236.961 55.335 L 236.961 55.335 L 236.961 55.335 Q 233.301 55.335 230.901 57.735 L 230.901 57.735 L 230.901 57.735 Q 228.501 60.135 228.501 64.275 L 228.501 64.275 L 228.501 64.275 Q 228.501 68.415 230.901 70.815 L 230.901 70.815 L 230.901 70.815 Q 233.301 73.215 236.961 73.215 L 236.961 73.215 L 236.961 73.215 Q 241.761 73.215 244.221 68.775 L 244.221 68.775 L 251.481 72.735 L 251.481 72.735 Q 249.741 76.575 245.931 78.735 L 245.931 78.735 L 245.931 78.735 Q 242.419 80.726 237.812 80.882 L 237.201 83.415 L 237.201 83.415 Q 239.841 83.715 241.131 85.065 L 241.131 85.065 L 241.131 85.065 Q 242.421 86.415 242.421 88.395 L 242.421 88.395 L 242.421 88.395 Q 242.421 91.155 240.021 92.745 L 240.021 92.745 L 240.021 92.745 Q 237.621 94.335 233.601 94.335 L 233.601 94.335 L 233.601 94.335 Q 232.041 94.335 230.541 94.005 L 230.541 94.005 L 230.541 94.005 Q 229.041 93.675 228.021 93.075 L 228.021 93.075 L 229.461 89.055 L 229.461 89.055 Q 231.381 89.955 233.361 89.955 L 233.361 89.955 L 233.361 89.955 Q 236.481 89.955 236.481 88.035 L 236.481 88.035 L 236.481 88.035 Q 236.481 86.295 233.541 86.295 L 233.541 86.295 L 231.501 86.295 L 232.915 80.527 Z " fill-rule="evenodd" fill="url(#_lgradient_43)"/><g style="isolation: isolate;"><mask id="_mask_JQuNRmkt8ldS2CziJA6GzbvVP4kj0eA7" x="-200%" y="-200%" width="400%" height="400%"><rect x="-200%" y="-200%" width="400%" height="400%" style="fill:white;"/><path d=" M 232.915 80.527 Q 230.154 80.01 227.751 78.765 L 227.751 78.765 L 227.751 78.765 Q 223.641 76.635 221.331 72.855 L 221.331 72.855 L 221.331 72.855 Q 219.021 69.075 219.021 64.275 L 219.021 64.275 L 219.021 64.275 Q 219.021 59.475 221.331 55.695 L 221.331 55.695 L 221.331 55.695 Q 223.641 51.915 227.751 49.785 L 227.751 49.785 L 227.751 49.785 Q 231.861 47.655 237.021 47.655 L 237.021 47.655 L 237.021 47.655 Q 242.121 47.655 245.931 49.785 L 245.931 49.785 L 245.931 49.785 Q 249.741 51.915 251.481 55.875 L 251.481 55.875 L 244.221 59.775 L 244.221 59.775 Q 241.701 55.335 236.961 55.335 L 236.961 55.335 L 236.961 55.335 Q 233.301 55.335 230.901 57.735 L 230.901 57.735 L 230.901 57.735 Q 228.501 60.135 228.501 64.275 L 228.501 64.275 L 228.501 64.275 Q 228.501 68.415 230.901 70.815 L 230.901 70.815 L 230.901 70.815 Q 233.301 73.215 236.961 73.215 L 236.961 73.215 L 236.961 73.215 Q 241.761 73.215 244.221 68.775 L 244.221 68.775 L 251.481 72.735 L 251.481 72.735 Q 249.741 76.575 245.931 78.735 L 245.931 78.735 L 245.931 78.735 Q 242.419 80.726 237.812 80.882 L 237.201 83.415 L 237.201 83.415 Q 239.841 83.715 241.131 85.065 L 241.131 85.065 L 241.131 85.065 Q 242.421 86.415 242.421 88.395 L 242.421 88.395 L 242.421 88.395 Q 242.421 91.155 240.021 92.745 L 240.021 92.745 L 240.021 92.745 Q 237.621 94.335 233.601 94.335 L 233.601 94.335 L 233.601 94.335 Q 232.041 94.335 230.541 94.005 L 230.541 94.005 L 230.541 94.005 Q 229.041 93.675 228.021 93.075 L 228.021 93.075 L 229.461 89.055 L 229.461 89.055 Q 231.381 89.955 233.361 89.955 L 233.361 89.955 L 233.361 89.955 Q 236.481 89.955 236.481 88.035 L 236.481 88.035 L 236.481 88.035 Q 236.481 86.295 233.541 86.295 L 233.541 86.295 L 231.501 86.295 L 232.915 80.527 Z " fill-rule="evenodd" fill="black" stroke="none"/></mask><path d=" M 232.915 80.527 Q 230.154 80.01 227.751 78.765 L 227.751 78.765 L 227.751 78.765 Q 223.641 76.635 221.331 72.855 L 221.331 72.855 L 221.331 72.855 Q 219.021 69.075 219.021 64.275 L 219.021 64.275 L 219.021 64.275 Q 219.021 59.475 221.331 55.695 L 221.331 55.695 L 221.331 55.695 Q 223.641 51.915 227.751 49.785 L 227.751 49.785 L 227.751 49.785 Q 231.861 47.655 237.021 47.655 L 237.021 47.655 L 237.021 47.655 Q 242.121 47.655 245.931 49.785 L 245.931 49.785 L 245.931 49.785 Q 249.741 51.915 251.481 55.875 L 251.481 55.875 L 244.221 59.775 L 244.221 59.775 Q 241.701 55.335 236.961 55.335 L 236.961 55.335 L 236.961 55.335 Q 233.301 55.335 230.901 57.735 L 230.901 57.735 L 230.901 57.735 Q 228.501 60.135 228.501 64.275 L 228.501 64.275 L 228.501 64.275 Q 228.501 68.415 230.901 70.815 L 230.901 70.815 L 230.901 70.815 Q 233.301 73.215 236.961 73.215 L 236.961 73.215 L 236.961 73.215 Q 241.761 73.215 244.221 68.775 L 244.221 68.775 L 251.481 72.735 L 251.481 72.735 Q 249.741 76.575 245.931 78.735 L 245.931 78.735 L 245.931 78.735 Q 242.419 80.726 237.812 80.882 L 237.201 83.415 L 237.201 83.415 Q 239.841 83.715 241.131 85.065 L 241.131 85.065 L 241.131 85.065 Q 242.421 86.415 242.421 88.395 L 242.421 88.395 L 242.421 88.395 Q 242.421 91.155 240.021 92.745 L 240.021 92.745 L 240.021 92.745 Q 237.621 94.335 233.601 94.335 L 233.601 94.335 L 233.601 94.335 Q 232.041 94.335 230.541 94.005 L 230.541 94.005 L 230.541 94.005 Q 229.041 93.675 228.021 93.075 L 228.021 93.075 L 229.461 89.055 L 229.461 89.055 Q 231.381 89.955 233.361 89.955 L 233.361 89.955 L 233.361 89.955 Q 236.481 89.955 236.481 88.035 L 236.481 88.035 L 236.481 88.035 Q 236.481 86.295 233.541 86.295 L 233.541 86.295 L 231.501 86.295 L 232.915 80.527 Z " fill-rule="evenodd" fill="none" mask="url(#_mask_JQuNRmkt8ldS2CziJA6GzbvVP4kj0eA7)" vector-effect="non-scaling-stroke" stroke-width="4" stroke="rgb(165,195,238)" stroke-linejoin="miter" stroke-linecap="round" stroke-miterlimit="3"/><path d=" M 232.915 80.527 Q 230.154 80.01 227.751 78.765 L 227.751 78.765 L 227.751 78.765 Q 223.641 76.635 221.331 72.855 L 221.331 72.855 L 221.331 72.855 Q 219.021 69.075 219.021 64.275 L 219.021 64.275 L 219.021 64.275 Q 219.021 59.475 221.331 55.695 L 221.331 55.695 L 221.331 55.695 Q 223.641 51.915 227.751 49.785 L 227.751 49.785 L 227.751 49.785 Q 231.861 47.655 237.021 47.655 L 237.021 47.655 L 237.021 47.655 Q 242.121 47.655 245.931 49.785 L 245.931 49.785 L 245.931 49.785 Q 249.741 51.915 251.481 55.875 L 251.481 55.875 L 244.221 59.775 L 244.221 59.775 Q 241.701 55.335 236.961 55.335 L 236.961 55.335 L 236.961 55.335 Q 233.301 55.335 230.901 57.735 L 230.901 57.735 L 230.901 57.735 Q 228.501 60.135 228.501 64.275 L 228.501 64.275 L 228.501 64.275 Q 228.501 68.415 230.901 70.815 L 230.901 70.815 L 230.901 70.815 Q 233.301 73.215 236.961 73.215 L 236.961 73.215 L 236.961 73.215 Q 241.761 73.215 244.221 68.775 L 244.221 68.775 L 251.481 72.735 L 251.481 72.735 Q 249.741 76.575 245.931 78.735 L 245.931 78.735 L 245.931 78.735 Q 242.419 80.726 237.812 80.882 L 237.201 83.415 L 237.201 83.415 Q 239.841 83.715 241.131 85.065 L 241.131 85.065 L 241.131 85.065 Q 242.421 86.415 242.421 88.395 L 242.421 88.395 L 242.421 88.395 Q 242.421 91.155 240.021 92.745 L 240.021 92.745 L 240.021 92.745 Q 237.621 94.335 233.601 94.335 L 233.601 94.335 L 233.601 94.335 Q 232.041 94.335 230.541 94.005 L 230.541 94.005 L 230.541 94.005 Q 229.041 93.675 228.021 93.075 L 228.021 93.075 L 229.461 89.055 L 229.461 89.055 Q 231.381 89.955 233.361 89.955 L 233.361 89.955 L 233.361 89.955 Q 236.481 89.955 236.481 88.035 L 236.481 88.035 L 236.481 88.035 Q 236.481 86.295 233.541 86.295 L 233.541 86.295 L 231.501 86.295 L 232.915 80.527 Z " fill-rule="evenodd" fill="none" vector-effect="non-scaling-stroke" stroke-width="1" stroke="rgb(0,0,0)" stroke-linejoin="miter" stroke-linecap="square" stroke-miterlimit="3"/></g><path d=" M 232.915 80.527 Q 230.154 80.01 227.751 78.765 L 227.751 78.765 L 227.751 78.765 Q 223.641 76.635 221.331 72.855 L 221.331 72.855 L 221.331 72.855 Q 219.021 69.075 219.021 64.275 L 219.021 64.275 L 219.021 64.275 Q 219.021 59.475 221.331 55.695 L 221.331 55.695 L 221.331 55.695 Q 223.641 51.915 227.751 49.785 L 227.751 49.785 L 227.751 49.785 Q 231.861 47.655 237.021 47.655 L 237.021 47.655 L 237.021 47.655 Q 242.121 47.655 245.931 49.785 L 245.931 49.785 L 245.931 49.785 Q 249.741 51.915 251.481 55.875 L 251.481 55.875 L 244.221 59.775 L 244.221 59.775 Q 241.701 55.335 236.961 55.335 L 236.961 55.335 L 236.961 55.335 Q 233.301 55.335 230.901 57.735 L 230.901 57.735 L 230.901 57.735 Q 228.501 60.135 228.501 64.275 L 228.501 64.275 L 228.501 64.275 Q 228.501 68.415 230.901 70.815 L 230.901 70.815 L 230.901 70.815 Q 233.301 73.215 236.961 73.215 L 236.961 73.215 L 236.961 73.215 Q 241.761 73.215 244.221 68.775 L 244.221 68.775 L 251.481 72.735 L 251.481 72.735 Q 249.741 76.575 245.931 78.735 L 245.931 78.735 L 245.931 78.735 Q 242.419 80.726 237.812 80.882 L 237.201 83.415 L 237.201 83.415 Q 239.841 83.715 241.131 85.065 L 241.131 85.065 L 241.131 85.065 Q 242.421 86.415 242.421 88.395 L 242.421 88.395 L 242.421 88.395 Q 242.421 91.155 240.021 92.745 L 240.021 92.745 L 240.021 92.745 Q 237.621 94.335 233.601 94.335 L 233.601 94.335 L 233.601 94.335 Q 232.041 94.335 230.541 94.005 L 230.541 94.005 L 230.541 94.005 Q 229.041 93.675 228.021 93.075 L 228.021 93.075 L 229.461 89.055 L 229.461 89.055 Q 231.381 89.955 233.361 89.955 L 233.361 89.955 L 233.361 89.955 Q 236.481 89.955 236.481 88.035 L 236.481 88.035 L 236.481 88.035 Q 236.481 86.295 233.541 86.295 L 233.541 86.295 L 231.501 86.295 L 232.915 80.527 Z " fill-rule="evenodd" fill="none"/><linearGradient id="_lgradient_44" x1="0" y1="0.5" x2="1" y2="0.5" gradientTransform="matrix(30.66,0,0,33.24,257.45,36.315)" gradientUnits="userSpaceOnUse"><stop offset="1.7391304347826086%" stop-opacity="1" style="stop-color:rgb(113,108,108)"/><stop offset="33.04347826086956%" stop-opacity="1" style="stop-color:rgb(0,0,0)"/></linearGradient><path d=" M 272.57 36.315 L 272.57 36.315 Q 280.07 36.315 284.09 39.885 L 284.09 39.885 L 284.09 39.885 Q 288.11 43.455 288.11 50.655 L 288.11 50.655 L 288.11 69.075 L 279.35 69.075 L 279.35 65.055 L 279.35 65.055 Q 276.71 69.555 269.51 69.555 L 269.51 69.555 L 269.51 69.555 Q 265.79 69.555 263.06 68.295 L 263.06 68.295 L 263.06 68.295 Q 260.33 67.035 258.89 64.815 L 258.89 64.815 L 258.89 64.815 Q 257.45 62.595 257.45 59.775 L 257.45 59.775 L 257.45 59.775 Q 257.45 55.275 260.84 52.695 L 260.84 52.695 L 260.84 52.695 Q 264.23 50.115 271.31 50.115 L 271.31 50.115 L 278.75 50.115 L 278.75 50.115 Q 278.75 47.055 276.89 45.405 L 276.89 45.405 L 276.89 45.405 Q 275.03 43.755 271.31 43.755 L 271.31 43.755 L 271.31 43.755 Q 268.73 43.755 266.24 44.565 L 266.24 44.565 L 266.24 44.565 Q 263.75 45.375 262.01 46.755 L 262.01 46.755 L 258.65 40.215 L 258.65 40.215 Q 261.29 38.355 264.98 37.335 L 264.98 37.335 L 264.98 37.335 Q 268.67 36.315 272.57 36.315 L 272.57 36.315 Z  M 271.85 63.255 L 271.85 63.255 Q 274.25 63.255 276.11 62.145 L 276.11 62.145 L 276.11 62.145 Q 277.97 61.035 278.75 58.875 L 278.75 58.875 L 278.75 55.575 L 272.33 55.575 L 272.33 55.575 Q 266.57 55.575 266.57 59.355 L 266.57 59.355 L 266.57 59.355 Q 266.57 61.155 267.98 62.205 L 267.98 62.205 L 267.98 62.205 Q 269.39 63.255 271.85 63.255 L 271.85 63.255 Z " fill-rule="evenodd" fill="url(#_lgradient_44)"/><g style="isolation: isolate;"><mask id="_mask_UEXWBmzxKfzcA7dU3FY03ejEX50BNBoo" x="-200%" y="-200%" width="400%" height="400%"><rect x="-200%" y="-200%" width="400%" height="400%" style="fill:white;"/><path d=" M 272.57 36.315 L 272.57 36.315 Q 280.07 36.315 284.09 39.885 L 284.09 39.885 L 284.09 39.885 Q 288.11 43.455 288.11 50.655 L 288.11 50.655 L 288.11 69.075 L 279.35 69.075 L 279.35 65.055 L 279.35 65.055 Q 276.71 69.555 269.51 69.555 L 269.51 69.555 L 269.51 69.555 Q 265.79 69.555 263.06 68.295 L 263.06 68.295 L 263.06 68.295 Q 260.33 67.035 258.89 64.815 L 258.89 64.815 L 258.89 64.815 Q 257.45 62.595 257.45 59.775 L 257.45 59.775 L 257.45 59.775 Q 257.45 55.275 260.84 52.695 L 260.84 52.695 L 260.84 52.695 Q 264.23 50.115 271.31 50.115 L 271.31 50.115 L 278.75 50.115 L 278.75 50.115 Q 278.75 47.055 276.89 45.405 L 276.89 45.405 L 276.89 45.405 Q 275.03 43.755 271.31 43.755 L 271.31 43.755 L 271.31 43.755 Q 268.73 43.755 266.24 44.565 L 266.24 44.565 L 266.24 44.565 Q 263.75 45.375 262.01 46.755 L 262.01 46.755 L 258.65 40.215 L 258.65 40.215 Q 261.29 38.355 264.98 37.335 L 264.98 37.335 L 264.98 37.335 Q 268.67 36.315 272.57 36.315 L 272.57 36.315 Z  M 271.85 63.255 L 271.85 63.255 Q 274.25 63.255 276.11 62.145 L 276.11 62.145 L 276.11 62.145 Q 277.97 61.035 278.75 58.875 L 278.75 58.875 L 278.75 55.575 L 272.33 55.575 L 272.33 55.575 Q 266.57 55.575 266.57 59.355 L 266.57 59.355 L 266.57 59.355 Q 266.57 61.155 267.98 62.205 L 267.98 62.205 L 267.98 62.205 Q 269.39 63.255 271.85 63.255 L 271.85 63.255 Z " fill-rule="evenodd" fill="black" stroke="none"/></mask><path d=" M 272.57 36.315 L 272.57 36.315 Q 280.07 36.315 284.09 39.885 L 284.09 39.885 L 284.09 39.885 Q 288.11 43.455 288.11 50.655 L 288.11 50.655 L 288.11 69.075 L 279.35 69.075 L 279.35 65.055 L 279.35 65.055 Q 276.71 69.555 269.51 69.555 L 269.51 69.555 L 269.51 69.555 Q 265.79 69.555 263.06 68.295 L 263.06 68.295 L 263.06 68.295 Q 260.33 67.035 258.89 64.815 L 258.89 64.815 L 258.89 64.815 Q 257.45 62.595 257.45 59.775 L 257.45 59.775 L 257.45 59.775 Q 257.45 55.275 260.84 52.695 L 260.84 52.695 L 260.84 52.695 Q 264.23 50.115 271.31 50.115 L 271.31 50.115 L 278.75 50.115 L 278.75 50.115 Q 278.75 47.055 276.89 45.405 L 276.89 45.405 L 276.89 45.405 Q 275.03 43.755 271.31 43.755 L 271.31 43.755 L 271.31 43.755 Q 268.73 43.755 266.24 44.565 L 266.24 44.565 L 266.24 44.565 Q 263.75 45.375 262.01 46.755 L 262.01 46.755 L 258.65 40.215 L 258.65 40.215 Q 261.29 38.355 264.98 37.335 L 264.98 37.335 L 264.98 37.335 Q 268.67 36.315 272.57 36.315 L 272.57 36.315 Z  M 271.85 63.255 L 271.85 63.255 Q 274.25 63.255 276.11 62.145 L 276.11 62.145 L 276.11 62.145 Q 277.97 61.035 278.75 58.875 L 278.75 58.875 L 278.75 55.575 L 272.33 55.575 L 272.33 55.575 Q 266.57 55.575 266.57 59.355 L 266.57 59.355 L 266.57 59.355 Q 266.57 61.155 267.98 62.205 L 267.98 62.205 L 267.98 62.205 Q 269.39 63.255 271.85 63.255 L 271.85 63.255 Z " fill-rule="evenodd" fill="none" mask="url(#_mask_UEXWBmzxKfzcA7dU3FY03ejEX50BNBoo)" vector-effect="non-scaling-stroke" stroke-width="4" stroke="rgb(165,195,238)" stroke-linejoin="miter" stroke-linecap="round" stroke-miterlimit="3"/><path d=" M 272.57 36.315 L 272.57 36.315 Q 280.07 36.315 284.09 39.885 L 284.09 39.885 L 284.09 39.885 Q 288.11 43.455 288.11 50.655 L 288.11 50.655 L 288.11 69.075 L 279.35 69.075 L 279.35 65.055 L 279.35 65.055 Q 276.71 69.555 269.51 69.555 L 269.51 69.555 L 269.51 69.555 Q 265.79 69.555 263.06 68.295 L 263.06 68.295 L 263.06 68.295 Q 260.33 67.035 258.89 64.815 L 258.89 64.815 L 258.89 64.815 Q 257.45 62.595 257.45 59.775 L 257.45 59.775 L 257.45 59.775 Q 257.45 55.275 260.84 52.695 L 260.84 52.695 L 260.84 52.695 Q 264.23 50.115 271.31 50.115 L 271.31 50.115 L 278.75 50.115 L 278.75 50.115 Q 278.75 47.055 276.89 45.405 L 276.89 45.405 L 276.89 45.405 Q 275.03 43.755 271.31 43.755 L 271.31 43.755 L 271.31 43.755 Q 268.73 43.755 266.24 44.565 L 266.24 44.565 L 266.24 44.565 Q 263.75 45.375 262.01 46.755 L 262.01 46.755 L 258.65 40.215 L 258.65 40.215 Q 261.29 38.355 264.98 37.335 L 264.98 37.335 L 264.98 37.335 Q 268.67 36.315 272.57 36.315 L 272.57 36.315 Z  M 271.85 63.255 L 271.85 63.255 Q 274.25 63.255 276.11 62.145 L 276.11 62.145 L 276.11 62.145 Q 277.97 61.035 278.75 58.875 L 278.75 58.875 L 278.75 55.575 L 272.33 55.575 L 272.33 55.575 Q 266.57 55.575 266.57 59.355 L 266.57 59.355 L 266.57 59.355 Q 266.57 61.155 267.98 62.205 L 267.98 62.205 L 267.98 62.205 Q 269.39 63.255 271.85 63.255 L 271.85 63.255 Z " fill-rule="evenodd" fill="none" vector-effect="non-scaling-stroke" stroke-width="1" stroke="rgb(0,0,0)" stroke-linejoin="miter" stroke-linecap="square" stroke-miterlimit="3"/></g><path d=" M 272.57 36.315 L 272.57 36.315 Q 280.07 36.315 284.09 39.885 L 284.09 39.885 L 284.09 39.885 Q 288.11 43.455 288.11 50.655 L 288.11 50.655 L 288.11 69.075 L 279.35 69.075 L 279.35 65.055 L 279.35 65.055 Q 276.71 69.555 269.51 69.555 L 269.51 69.555 L 269.51 69.555 Q 265.79 69.555 263.06 68.295 L 263.06 68.295 L 263.06 68.295 Q 260.33 67.035 258.89 64.815 L 258.89 64.815 L 258.89 64.815 Q 257.45 62.595 257.45 59.775 L 257.45 59.775 L 257.45 59.775 Q 257.45 55.275 260.84 52.695 L 260.84 52.695 L 260.84 52.695 Q 264.23 50.115 271.31 50.115 L 271.31 50.115 L 278.75 50.115 L 278.75 50.115 Q 278.75 47.055 276.89 45.405 L 276.89 45.405 L 276.89 45.405 Q 275.03 43.755 271.31 43.755 L 271.31 43.755 L 271.31 43.755 Q 268.73 43.755 266.24 44.565 L 266.24 44.565 L 266.24 44.565 Q 263.75 45.375 262.01 46.755 L 262.01 46.755 L 258.65 40.215 L 258.65 40.215 Q 261.29 38.355 264.98 37.335 L 264.98 37.335 L 264.98 37.335 Q 268.67 36.315 272.57 36.315 L 272.57 36.315 Z  M 271.85 63.255 L 271.85 63.255 Q 274.25 63.255 276.11 62.145 L 276.11 62.145 L 276.11 62.145 Q 277.97 61.035 278.75 58.875 L 278.75 58.875 L 278.75 55.575 L 272.33 55.575 L 272.33 55.575 Q 266.57 55.575 266.57 59.355 L 266.57 59.355 L 266.57 59.355 Q 266.57 61.155 267.98 62.205 L 267.98 62.205 L 267.98 62.205 Q 269.39 63.255 271.85 63.255 L 271.85 63.255 Z " fill-rule="evenodd" fill="none"/><linearGradient id="_lgradient_45" x1="0" y1="0.5" x2="1" y2="0.5" gradientTransform="matrix(20.04,0,0,32.76,295.239,47.655)" gradientUnits="userSpaceOnUse"><stop offset="1.7391304347826086%" stop-opacity="1" style="stop-color:rgb(113,108,108)"/><stop offset="33.04347826086956%" stop-opacity="1" style="stop-color:rgb(0,0,0)"/></linearGradient><path d=" M 304.179 52.395 L 304.179 52.395 Q 305.859 50.055 308.709 48.855 L 308.709 48.855 L 308.709 48.855 Q 311.559 47.655 315.279 47.655 L 315.279 47.655 L 315.279 56.295 L 315.279 56.295 Q 313.719 56.175 313.179 56.175 L 313.179 56.175 L 313.179 56.175 Q 309.159 56.175 306.879 58.425 L 306.879 58.425 L 306.879 58.425 Q 304.599 60.675 304.599 65.175 L 304.599 65.175 L 304.599 80.415 L 295.239 80.415 L 295.239 48.135 L 304.179 48.135 L 304.179 52.395 Z " fill-rule="evenodd" fill="url(#_lgradient_45)"/><g style="isolation: isolate;"><mask id="_mask_L8Yld1Gx7UmCOQABop6qeqv48TQuiZkf" x="-200%" y="-200%" width="400%" height="400%"><rect x="-200%" y="-200%" width="400%" height="400%" style="fill:white;"/><path d=" M 304.179 52.395 L 304.179 52.395 Q 305.859 50.055 308.709 48.855 L 308.709 48.855 L 308.709 48.855 Q 311.559 47.655 315.279 47.655 L 315.279 47.655 L 315.279 56.295 L 315.279 56.295 Q 313.719 56.175 313.179 56.175 L 313.179 56.175 L 313.179 56.175 Q 309.159 56.175 306.879 58.425 L 306.879 58.425 L 306.879 58.425 Q 304.599 60.675 304.599 65.175 L 304.599 65.175 L 304.599 80.415 L 295.239 80.415 L 295.239 48.135 L 304.179 48.135 L 304.179 52.395 Z " fill-rule="evenodd" fill="black" stroke="none"/></mask><path d=" M 304.179 52.395 L 304.179 52.395 Q 305.859 50.055 308.709 48.855 L 308.709 48.855 L 308.709 48.855 Q 311.559 47.655 315.279 47.655 L 315.279 47.655 L 315.279 56.295 L 315.279 56.295 Q 313.719 56.175 313.179 56.175 L 313.179 56.175 L 313.179 56.175 Q 309.159 56.175 306.879 58.425 L 306.879 58.425 L 306.879 58.425 Q 304.599 60.675 304.599 65.175 L 304.599 65.175 L 304.599 80.415 L 295.239 80.415 L 295.239 48.135 L 304.179 48.135 L 304.179 52.395 Z " fill-rule="evenodd" fill="none" mask="url(#_mask_L8Yld1Gx7UmCOQABop6qeqv48TQuiZkf)" vector-effect="non-scaling-stroke" stroke-width="4" stroke="rgb(165,195,238)" stroke-linejoin="miter" stroke-linecap="round" stroke-miterlimit="3"/><path d=" M 304.179 52.395 L 304.179 52.395 Q 305.859 50.055 308.709 48.855 L 308.709 48.855 L 308.709 48.855 Q 311.559 47.655 315.279 47.655 L 315.279 47.655 L 315.279 56.295 L 315.279 56.295 Q 313.719 56.175 313.179 56.175 L 313.179 56.175 L 313.179 56.175 Q 309.159 56.175 306.879 58.425 L 306.879 58.425 L 306.879 58.425 Q 304.599 60.675 304.599 65.175 L 304.599 65.175 L 304.599 80.415 L 295.239 80.415 L 295.239 48.135 L 304.179 48.135 L 304.179 52.395 Z " fill-rule="evenodd" fill="none" vector-effect="non-scaling-stroke" stroke-width="1" stroke="rgb(0,0,0)" stroke-linejoin="miter" stroke-linecap="square" stroke-miterlimit="3"/></g><path d=" M 304.179 52.395 L 304.179 52.395 Q 305.859 50.055 308.709 48.855 L 308.709 48.855 L 308.709 48.855 Q 311.559 47.655 315.279 47.655 L 315.279 47.655 L 315.279 56.295 L 315.279 56.295 Q 313.719 56.175 313.179 56.175 L 313.179 56.175 L 313.179 56.175 Q 309.159 56.175 306.879 58.425 L 306.879 58.425 L 306.879 58.425 Q 304.599 60.675 304.599 65.175 L 304.599 65.175 L 304.599 80.415 L 295.239 80.415 L 295.239 48.135 L 304.179 48.135 L 304.179 52.395 Z " fill-rule="evenodd" fill="none"/><linearGradient id="_lgradient_46" x1="0" y1="0.5" x2="1" y2="0.5" gradientTransform="matrix(9.36,0,0,32.28,322.812,36.795)" gradientUnits="userSpaceOnUse"><stop offset="1.7391304347826086%" stop-opacity="1" style="stop-color:rgb(113,108,108)"/><stop offset="33.04347826086956%" stop-opacity="1" style="stop-color:rgb(0,0,0)"/></linearGradient><path d=" M 322.812 69.075 L 322.812 36.795 L 332.172 36.795 L 332.172 69.075 L 322.812 69.075 Z " fill-rule="evenodd" fill="url(#_lgradient_46)"/><g style="isolation: isolate;"><mask id="_mask_Bl6WAURBf631LfYwBPYrFzJlsrBY0cAG" x="-200%" y="-200%" width="400%" height="400%"><rect x="-200%" y="-200%" width="400%" height="400%" style="fill:white;"/><path d=" M 322.812 69.075 L 322.812 36.795 L 332.172 36.795 L 332.172 69.075 L 322.812 69.075 Z " fill-rule="evenodd" fill="black" stroke="none"/></mask><path d=" M 322.812 69.075 L 322.812 36.795 L 332.172 36.795 L 332.172 69.075 L 322.812 69.075 Z " fill-rule="evenodd" fill="none" mask="url(#_mask_Bl6WAURBf631LfYwBPYrFzJlsrBY0cAG)" vector-effect="non-scaling-stroke" stroke-width="4" stroke="rgb(165,195,238)" stroke-linejoin="miter" stroke-linecap="round" stroke-miterlimit="3"/><path d=" M 322.812 69.075 L 322.812 36.795 L 332.172 36.795 L 332.172 69.075 L 322.812 69.075 Z " fill-rule="evenodd" fill="none" vector-effect="non-scaling-stroke" stroke-width="1" stroke="rgb(0,0,0)" stroke-linejoin="miter" stroke-linecap="square" stroke-miterlimit="3"/></g><path d=" M 322.812 69.075 L 322.812 36.795 L 332.172 36.795 L 332.172 69.075 L 322.812 69.075 Z " fill-rule="evenodd" fill="none"/><linearGradient id="_lgradient_47" x1="0" y1="0.5" x2="1" y2="0.5" gradientTransform="matrix(11.64,0,0,10.44,321.672,23.558)" gradientUnits="userSpaceOnUse"><stop offset="1.7391304347826086%" stop-opacity="1" style="stop-color:rgb(113,108,108)"/><stop offset="33.04347826086956%" stop-opacity="1" style="stop-color:rgb(0,0,0)"/></linearGradient><path d=" M 327.492 33.998 L 327.492 33.998 Q 324.912 33.998 323.292 32.498 L 323.292 32.498 L 323.292 32.498 Q 321.672 30.998 321.672 28.778 L 321.672 28.778 L 321.672 28.778 Q 321.672 26.558 323.292 25.058 L 323.292 25.058 L 323.292 25.058 Q 324.912 23.558 327.492 23.558 L 327.492 23.558 L 327.492 23.558 Q 330.072 23.558 331.692 24.998 L 331.692 24.998 L 331.692 24.998 Q 333.312 26.438 333.312 28.598 L 333.312 28.598 L 333.312 28.598 Q 333.312 30.938 331.692 32.468 L 331.692 32.468 L 331.692 32.468 Q 330.072 33.998 327.492 33.998 L 327.492 33.998 Z " fill-rule="evenodd" fill="url(#_lgradient_47)"/><g style="isolation: isolate;"><mask id="_mask_sBuB4su6cl41fAqosMqe4K3PKEouEKx5" x="-200%" y="-200%" width="400%" height="400%"><rect x="-200%" y="-200%" width="400%" height="400%" style="fill:white;"/><path d=" M 327.492 33.998 L 327.492 33.998 Q 324.912 33.998 323.292 32.498 L 323.292 32.498 L 323.292 32.498 Q 321.672 30.998 321.672 28.778 L 321.672 28.778 L 321.672 28.778 Q 321.672 26.558 323.292 25.058 L 323.292 25.058 L 323.292 25.058 Q 324.912 23.558 327.492 23.558 L 327.492 23.558 L 327.492 23.558 Q 330.072 23.558 331.692 24.998 L 331.692 24.998 L 331.692 24.998 Q 333.312 26.438 333.312 28.598 L 333.312 28.598 L 333.312 28.598 Q 333.312 30.938 331.692 32.468 L 331.692 32.468 L 331.692 32.468 Q 330.072 33.998 327.492 33.998 L 327.492 33.998 Z " fill-rule="evenodd" fill="black" stroke="none"/></mask><path d=" M 327.492 33.998 L 327.492 33.998 Q 324.912 33.998 323.292 32.498 L 323.292 32.498 L 323.292 32.498 Q 321.672 30.998 321.672 28.778 L 321.672 28.778 L 321.672 28.778 Q 321.672 26.558 323.292 25.058 L 323.292 25.058 L 323.292 25.058 Q 324.912 23.558 327.492 23.558 L 327.492 23.558 L 327.492 23.558 Q 330.072 23.558 331.692 24.998 L 331.692 24.998 L 331.692 24.998 Q 333.312 26.438 333.312 28.598 L 333.312 28.598 L 333.312 28.598 Q 333.312 30.938 331.692 32.468 L 331.692 32.468 L 331.692 32.468 Q 330.072 33.998 327.492 33.998 L 327.492 33.998 Z " fill-rule="evenodd" fill="none" mask="url(#_mask_sBuB4su6cl41fAqosMqe4K3PKEouEKx5)" vector-effect="non-scaling-stroke" stroke-width="4" stroke="rgb(165,195,238)" stroke-linejoin="miter" stroke-linecap="round" stroke-miterlimit="3"/><path d=" M 327.492 33.998 L 327.492 33.998 Q 324.912 33.998 323.292 32.498 L 323.292 32.498 L 323.292 32.498 Q 321.672 30.998 321.672 28.778 L 321.672 28.778 L 321.672 28.778 Q 321.672 26.558 323.292 25.058 L 323.292 25.058 L 323.292 25.058 Q 324.912 23.558 327.492 23.558 L 327.492 23.558 L 327.492 23.558 Q 330.072 23.558 331.692 24.998 L 331.692 24.998 L 331.692 24.998 Q 333.312 26.438 333.312 28.598 L 333.312 28.598 L 333.312 28.598 Q 333.312 30.938 331.692 32.468 L 331.692 32.468 L 331.692 32.468 Q 330.072 33.998 327.492 33.998 L 327.492 33.998 Z " fill-rule="evenodd" fill="none" vector-effect="non-scaling-stroke" stroke-width="1" stroke="rgb(0,0,0)" stroke-linejoin="miter" stroke-linecap="square" stroke-miterlimit="3"/></g><path d=" M 327.492 33.998 L 327.492 33.998 Q 324.912 33.998 323.292 32.498 L 323.292 32.498 L 323.292 32.498 Q 321.672 30.998 321.672 28.778 L 321.672 28.778 L 321.672 28.778 Q 321.672 26.558 323.292 25.058 L 323.292 25.058 L 323.292 25.058 Q 324.912 23.558 327.492 23.558 L 327.492 23.558 L 327.492 23.558 Q 330.072 23.558 331.692 24.998 L 331.692 24.998 L 331.692 24.998 Q 333.312 26.438 333.312 28.598 L 333.312 28.598 L 333.312 28.598 Q 333.312 30.938 331.692 32.468 L 331.692 32.468 L 331.692 32.468 Q 330.072 33.998 327.492 33.998 L 327.492 33.998 Z " fill-rule="evenodd" fill="none"/><linearGradient id="_lgradient_48" x1="0" y1="0.5" x2="1" y2="0.5" gradientTransform="matrix(24.66,0,0,39.9,338.418,47.655)" gradientUnits="userSpaceOnUse"><stop offset="1.7391304347826086%" stop-opacity="1" style="stop-color:rgb(113,108,108)"/><stop offset="33.04347826086956%" stop-opacity="1" style="stop-color:rgb(0,0,0)"/></linearGradient><path d=" M 360.558 78.915 L 363.078 85.515 L 363.078 85.515 Q 361.698 86.535 359.688 87.045 L 359.688 87.045 L 359.688 87.045 Q 357.678 87.555 355.458 87.555 L 355.458 87.555 L 355.458 87.555 Q 349.698 87.555 346.548 84.615 L 346.548 84.615 L 346.548 84.615 Q 343.398 81.675 343.398 75.975 L 343.398 75.975 L 343.398 62.715 L 338.418 62.715 L 338.418 55.515 L 343.398 55.515 L 343.398 47.655 L 352.758 47.655 L 352.758 55.515 L 360.798 55.515 L 360.798 62.715 L 352.758 62.715 L 352.758 75.855 L 352.758 75.855 Q 352.758 77.895 353.808 79.005 L 353.808 79.005 L 353.808 79.005 Q 354.858 80.115 356.778 80.115 L 356.778 80.115 L 356.778 80.115 Q 358.998 80.115 360.558 78.915 L 360.558 78.915 Z " fill-rule="evenodd" fill="url(#_lgradient_48)"/><g style="isolation: isolate;"><mask id="_mask_gxYO9fA2bp4YfRf5YIkt1U9AQpEGYKqd" x="-200%" y="-200%" width="400%" height="400%"><rect x="-200%" y="-200%" width="400%" height="400%" style="fill:white;"/><path d=" M 360.558 78.915 L 363.078 85.515 L 363.078 85.515 Q 361.698 86.535 359.688 87.045 L 359.688 87.045 L 359.688 87.045 Q 357.678 87.555 355.458 87.555 L 355.458 87.555 L 355.458 87.555 Q 349.698 87.555 346.548 84.615 L 346.548 84.615 L 346.548 84.615 Q 343.398 81.675 343.398 75.975 L 343.398 75.975 L 343.398 62.715 L 338.418 62.715 L 338.418 55.515 L 343.398 55.515 L 343.398 47.655 L 352.758 47.655 L 352.758 55.515 L 360.798 55.515 L 360.798 62.715 L 352.758 62.715 L 352.758 75.855 L 352.758 75.855 Q 352.758 77.895 353.808 79.005 L 353.808 79.005 L 353.808 79.005 Q 354.858 80.115 356.778 80.115 L 356.778 80.115 L 356.778 80.115 Q 358.998 80.115 360.558 78.915 L 360.558 78.915 Z " fill-rule="evenodd" fill="black" stroke="none"/></mask><path d=" M 360.558 78.915 L 363.078 85.515 L 363.078 85.515 Q 361.698 86.535 359.688 87.045 L 359.688 87.045 L 359.688 87.045 Q 357.678 87.555 355.458 87.555 L 355.458 87.555 L 355.458 87.555 Q 349.698 87.555 346.548 84.615 L 346.548 84.615 L 346.548 84.615 Q 343.398 81.675 343.398 75.975 L 343.398 75.975 L 343.398 62.715 L 338.418 62.715 L 338.418 55.515 L 343.398 55.515 L 343.398 47.655 L 352.758 47.655 L 352.758 55.515 L 360.798 55.515 L 360.798 62.715 L 352.758 62.715 L 352.758 75.855 L 352.758 75.855 Q 352.758 77.895 353.808 79.005 L 353.808 79.005 L 353.808 79.005 Q 354.858 80.115 356.778 80.115 L 356.778 80.115 L 356.778 80.115 Q 358.998 80.115 360.558 78.915 L 360.558 78.915 Z " fill-rule="evenodd" fill="none" mask="url(#_mask_gxYO9fA2bp4YfRf5YIkt1U9AQpEGYKqd)" vector-effect="non-scaling-stroke" stroke-width="4" stroke="rgb(165,195,238)" stroke-linejoin="miter" stroke-linecap="round" stroke-miterlimit="3"/><path d=" M 360.558 78.915 L 363.078 85.515 L 363.078 85.515 Q 361.698 86.535 359.688 87.045 L 359.688 87.045 L 359.688 87.045 Q 357.678 87.555 355.458 87.555 L 355.458 87.555 L 355.458 87.555 Q 349.698 87.555 346.548 84.615 L 346.548 84.615 L 346.548 84.615 Q 343.398 81.675 343.398 75.975 L 343.398 75.975 L 343.398 62.715 L 338.418 62.715 L 338.418 55.515 L 343.398 55.515 L 343.398 47.655 L 352.758 47.655 L 352.758 55.515 L 360.798 55.515 L 360.798 62.715 L 352.758 62.715 L 352.758 75.855 L 352.758 75.855 Q 352.758 77.895 353.808 79.005 L 353.808 79.005 L 353.808 79.005 Q 354.858 80.115 356.778 80.115 L 356.778 80.115 L 356.778 80.115 Q 358.998 80.115 360.558 78.915 L 360.558 78.915 Z " fill-rule="evenodd" fill="none" vector-effect="non-scaling-stroke" stroke-width="1" stroke="rgb(0,0,0)" stroke-linejoin="miter" stroke-linecap="square" stroke-miterlimit="3"/></g><path d=" M 360.558 78.915 L 363.078 85.515 L 363.078 85.515 Q 361.698 86.535 359.688 87.045 L 359.688 87.045 L 359.688 87.045 Q 357.678 87.555 355.458 87.555 L 355.458 87.555 L 355.458 87.555 Q 349.698 87.555 346.548 84.615 L 346.548 84.615 L 346.548 84.615 Q 343.398 81.675 343.398 75.975 L 343.398 75.975 L 343.398 62.715 L 338.418 62.715 L 338.418 55.515 L 343.398 55.515 L 343.398 47.655 L 352.758 47.655 L 352.758 55.515 L 360.798 55.515 L 360.798 62.715 L 352.758 62.715 L 352.758 75.855 L 352.758 75.855 Q 352.758 77.895 353.808 79.005 L 353.808 79.005 L 353.808 79.005 Q 354.858 80.115 356.778 80.115 L 356.778 80.115 L 356.778 80.115 Q 358.998 80.115 360.558 78.915 L 360.558 78.915 Z " fill-rule="evenodd" fill="none"/><linearGradient id="_lgradient_49" x1="0" y1="0.5" x2="1" y2="0.5" gradientTransform="matrix(35.46,0,0,33.24,366.107,36.315)" gradientUnits="userSpaceOnUse"><stop offset="1.7391304347826086%" stop-opacity="1" style="stop-color:rgb(113,108,108)"/><stop offset="33.04347826086956%" stop-opacity="1" style="stop-color:rgb(0,0,0)"/></linearGradient><path d=" M 383.867 69.555 L 383.867 69.555 Q 378.767 69.555 374.717 67.425 L 374.717 67.425 L 374.717 67.425 Q 370.667 65.295 368.387 61.515 L 368.387 61.515 L 368.387 61.515 Q 366.107 57.735 366.107 52.935 L 366.107 52.935 L 366.107 52.935 Q 366.107 48.135 368.387 44.355 L 368.387 44.355 L 368.387 44.355 Q 370.667 40.575 374.717 38.445 L 374.717 38.445 L 374.717 38.445 Q 378.767 36.315 383.867 36.315 L 383.867 36.315 L 383.867 36.315 Q 388.967 36.315 392.987 38.445 L 392.987 38.445 L 392.987 38.445 Q 397.007 40.575 399.287 44.355 L 399.287 44.355 L 399.287 44.355 Q 401.567 48.135 401.567 52.935 L 401.567 52.935 L 401.567 52.935 Q 401.567 57.735 399.287 61.515 L 399.287 61.515 L 399.287 61.515 Q 397.007 65.295 392.987 67.425 L 392.987 67.425 L 392.987 67.425 Q 388.967 69.555 383.867 69.555 L 383.867 69.555 Z  M 383.867 61.875 L 383.867 61.875 Q 387.467 61.875 389.777 59.445 L 389.777 59.445 L 389.777 59.445 Q 392.087 57.015 392.087 52.935 L 392.087 52.935 L 392.087 52.935 Q 392.087 48.855 389.777 46.425 L 389.777 46.425 L 389.777 46.425 Q 387.467 43.995 383.867 43.995 L 383.867 43.995 L 383.867 43.995 Q 380.267 43.995 377.927 46.425 L 377.927 46.425 L 377.927 46.425 Q 375.587 48.855 375.587 52.935 L 375.587 52.935 L 375.587 52.935 Q 375.587 57.015 377.927 59.445 L 377.927 59.445 L 377.927 59.445 Q 380.267 61.875 383.867 61.875 L 383.867 61.875 Z " fill-rule="evenodd" fill="url(#_lgradient_49)"/><g style="isolation: isolate;"><mask id="_mask_sgTnnEN2ggTEVKzvPVkN2S4WN4YaLycd" x="-200%" y="-200%" width="400%" height="400%"><rect x="-200%" y="-200%" width="400%" height="400%" style="fill:white;"/><path d=" M 383.867 69.555 L 383.867 69.555 Q 378.767 69.555 374.717 67.425 L 374.717 67.425 L 374.717 67.425 Q 370.667 65.295 368.387 61.515 L 368.387 61.515 L 368.387 61.515 Q 366.107 57.735 366.107 52.935 L 366.107 52.935 L 366.107 52.935 Q 366.107 48.135 368.387 44.355 L 368.387 44.355 L 368.387 44.355 Q 370.667 40.575 374.717 38.445 L 374.717 38.445 L 374.717 38.445 Q 378.767 36.315 383.867 36.315 L 383.867 36.315 L 383.867 36.315 Q 388.967 36.315 392.987 38.445 L 392.987 38.445 L 392.987 38.445 Q 397.007 40.575 399.287 44.355 L 399.287 44.355 L 399.287 44.355 Q 401.567 48.135 401.567 52.935 L 401.567 52.935 L 401.567 52.935 Q 401.567 57.735 399.287 61.515 L 399.287 61.515 L 399.287 61.515 Q 397.007 65.295 392.987 67.425 L 392.987 67.425 L 392.987 67.425 Q 388.967 69.555 383.867 69.555 L 383.867 69.555 Z  M 383.867 61.875 L 383.867 61.875 Q 387.467 61.875 389.777 59.445 L 389.777 59.445 L 389.777 59.445 Q 392.087 57.015 392.087 52.935 L 392.087 52.935 L 392.087 52.935 Q 392.087 48.855 389.777 46.425 L 389.777 46.425 L 389.777 46.425 Q 387.467 43.995 383.867 43.995 L 383.867 43.995 L 383.867 43.995 Q 380.267 43.995 377.927 46.425 L 377.927 46.425 L 377.927 46.425 Q 375.587 48.855 375.587 52.935 L 375.587 52.935 L 375.587 52.935 Q 375.587 57.015 377.927 59.445 L 377.927 59.445 L 377.927 59.445 Q 380.267 61.875 383.867 61.875 L 383.867 61.875 Z " fill-rule="evenodd" fill="black" stroke="none"/></mask><path d=" M 383.867 69.555 L 383.867 69.555 Q 378.767 69.555 374.717 67.425 L 374.717 67.425 L 374.717 67.425 Q 370.667 65.295 368.387 61.515 L 368.387 61.515 L 368.387 61.515 Q 366.107 57.735 366.107 52.935 L 366.107 52.935 L 366.107 52.935 Q 366.107 48.135 368.387 44.355 L 368.387 44.355 L 368.387 44.355 Q 370.667 40.575 374.717 38.445 L 374.717 38.445 L 374.717 38.445 Q 378.767 36.315 383.867 36.315 L 383.867 36.315 L 383.867 36.315 Q 388.967 36.315 392.987 38.445 L 392.987 38.445 L 392.987 38.445 Q 397.007 40.575 399.287 44.355 L 399.287 44.355 L 399.287 44.355 Q 401.567 48.135 401.567 52.935 L 401.567 52.935 L 401.567 52.935 Q 401.567 57.735 399.287 61.515 L 399.287 61.515 L 399.287 61.515 Q 397.007 65.295 392.987 67.425 L 392.987 67.425 L 392.987 67.425 Q 388.967 69.555 383.867 69.555 L 383.867 69.555 Z  M 383.867 61.875 L 383.867 61.875 Q 387.467 61.875 389.777 59.445 L 389.777 59.445 L 389.777 59.445 Q 392.087 57.015 392.087 52.935 L 392.087 52.935 L 392.087 52.935 Q 392.087 48.855 389.777 46.425 L 389.777 46.425 L 389.777 46.425 Q 387.467 43.995 383.867 43.995 L 383.867 43.995 L 383.867 43.995 Q 380.267 43.995 377.927 46.425 L 377.927 46.425 L 377.927 46.425 Q 375.587 48.855 375.587 52.935 L 375.587 52.935 L 375.587 52.935 Q 375.587 57.015 377.927 59.445 L 377.927 59.445 L 377.927 59.445 Q 380.267 61.875 383.867 61.875 L 383.867 61.875 Z " fill-rule="evenodd" fill="none" mask="url(#_mask_sgTnnEN2ggTEVKzvPVkN2S4WN4YaLycd)" vector-effect="non-scaling-stroke" stroke-width="4" stroke="rgb(165,195,238)" stroke-linejoin="miter" stroke-linecap="round" stroke-miterlimit="3"/><path d=" M 383.867 69.555 L 383.867 69.555 Q 378.767 69.555 374.717 67.425 L 374.717 67.425 L 374.717 67.425 Q 370.667 65.295 368.387 61.515 L 368.387 61.515 L 368.387 61.515 Q 366.107 57.735 366.107 52.935 L 366.107 52.935 L 366.107 52.935 Q 366.107 48.135 368.387 44.355 L 368.387 44.355 L 368.387 44.355 Q 370.667 40.575 374.717 38.445 L 374.717 38.445 L 374.717 38.445 Q 378.767 36.315 383.867 36.315 L 383.867 36.315 L 383.867 36.315 Q 388.967 36.315 392.987 38.445 L 392.987 38.445 L 392.987 38.445 Q 397.007 40.575 399.287 44.355 L 399.287 44.355 L 399.287 44.355 Q 401.567 48.135 401.567 52.935 L 401.567 52.935 L 401.567 52.935 Q 401.567 57.735 399.287 61.515 L 399.287 61.515 L 399.287 61.515 Q 397.007 65.295 392.987 67.425 L 392.987 67.425 L 392.987 67.425 Q 388.967 69.555 383.867 69.555 L 383.867 69.555 Z  M 383.867 61.875 L 383.867 61.875 Q 387.467 61.875 389.777 59.445 L 389.777 59.445 L 389.777 59.445 Q 392.087 57.015 392.087 52.935 L 392.087 52.935 L 392.087 52.935 Q 392.087 48.855 389.777 46.425 L 389.777 46.425 L 389.777 46.425 Q 387.467 43.995 383.867 43.995 L 383.867 43.995 L 383.867 43.995 Q 380.267 43.995 377.927 46.425 L 377.927 46.425 L 377.927 46.425 Q 375.587 48.855 375.587 52.935 L 375.587 52.935 L 375.587 52.935 Q 375.587 57.015 377.927 59.445 L 377.927 59.445 L 377.927 59.445 Q 380.267 61.875 383.867 61.875 L 383.867 61.875 Z " fill-rule="evenodd" fill="none" vector-effect="non-scaling-stroke" stroke-width="1" stroke="rgb(0,0,0)" stroke-linejoin="miter" stroke-linecap="square" stroke-miterlimit="3"/></g><path d=" M 383.867 69.555 L 383.867 69.555 Q 378.767 69.555 374.717 67.425 L 374.717 67.425 L 374.717 67.425 Q 370.667 65.295 368.387 61.515 L 368.387 61.515 L 368.387 61.515 Q 366.107 57.735 366.107 52.935 L 366.107 52.935 L 366.107 52.935 Q 366.107 48.135 368.387 44.355 L 368.387 44.355 L 368.387 44.355 Q 370.667 40.575 374.717 38.445 L 374.717 38.445 L 374.717 38.445 Q 378.767 36.315 383.867 36.315 L 383.867 36.315 L 383.867 36.315 Q 388.967 36.315 392.987 38.445 L 392.987 38.445 L 392.987 38.445 Q 397.007 40.575 399.287 44.355 L 399.287 44.355 L 399.287 44.355 Q 401.567 48.135 401.567 52.935 L 401.567 52.935 L 401.567 52.935 Q 401.567 57.735 399.287 61.515 L 399.287 61.515 L 399.287 61.515 Q 397.007 65.295 392.987 67.425 L 392.987 67.425 L 392.987 67.425 Q 388.967 69.555 383.867 69.555 L 383.867 69.555 Z  M 383.867 61.875 L 383.867 61.875 Q 387.467 61.875 389.777 59.445 L 389.777 59.445 L 389.777 59.445 Q 392.087 57.015 392.087 52.935 L 392.087 52.935 L 392.087 52.935 Q 392.087 48.855 389.777 46.425 L 389.777 46.425 L 389.777 46.425 Q 387.467 43.995 383.867 43.995 L 383.867 43.995 L 383.867 43.995 Q 380.267 43.995 377.927 46.425 L 377.927 46.425 L 377.927 46.425 Q 375.587 48.855 375.587 52.935 L 375.587 52.935 L 375.587 52.935 Q 375.587 57.015 377.927 59.445 L 377.927 59.445 L 377.927 59.445 Q 380.267 61.875 383.867 61.875 L 383.867 61.875 Z " fill-rule="evenodd" fill="none"/></g></svg>