<?xml version="1.0" standalone="no"?><!-- Generator: Gravit.io --><svg xmlns="http://www.w3.org/2000/svg" xmlns:xlink="http://www.w3.org/1999/xlink" style="isolation:isolate" viewBox="0 0 404.567 113.849" width="404.567px" height="113.849px"><defs><clipPath id="_clipPath_sBmAjnvWYlK4zQxVQe9DnEOnfirOvASQ"><rect width="404.567" height="113.849"/></clipPath></defs><g clip-path="url(#_clipPath_sBmAjnvWYlK4zQxVQe9DnEOnfirOvASQ)"><g><path d=" M 76.731 2.472 L 92.537 91.369 C 92.832 93.025 91.741 94.561 90.057 94.86 L 26.928 106.085 L 0.184 25.437 C -0.973 18.932 3.457 12.451 10.07 11.275 L 73.199 0.05 C 74.883 -0.249 76.436 0.816 76.731 2.472 Z " fill="rgb(255,244,202)"/><path d=" M 76.731 2.472 L 92.537 91.369 C 92.832 93.025 91.741 94.561 90.057 94.86 L 47.971 102.343 L 31.113 7.533 L 73.199 0.05 C 74.883 -0.249 76.436 0.816 76.731 2.472 Z " fill="rgb(255,225,186)"/><path d=" M 89.442 37.017 L 92.914 25.564 C 93.218 24.565 92.974 23.486 92.27 22.711 C 91.567 21.937 90.506 21.577 89.464 21.763 L 65.415 26.039 L 70.672 55.605 L 94.721 51.329 C 96.947 50.933 98.001 48.358 96.649 46.572 L 89.442 37.017 Z " fill="rgb(255,99,123)"/><path d=" M 63.312 14.212 L 0.184 25.437 L 15.464 111.377 C 15.759 113.032 17.312 114.098 18.996 113.799 L 79.119 103.109 C 80.803 102.809 81.893 101.273 81.599 99.618 L 66.844 16.634 C 66.55 14.978 64.996 13.913 63.312 14.212 Z " fill="rgb(102,192,238)"/><path d=" M 66.844 16.634 L 81.599 99.618 C 81.893 101.273 80.803 102.809 79.119 103.109 L 49.057 108.454 L 33.251 19.557 L 63.312 14.212 C 64.996 13.913 66.55 14.978 66.844 16.634 Z " fill="rgb(106,169,255)"/><path d=" M 42.809 30.058 C 39.502 30.646 37.3 32.563 35.953 34.755 C 33.933 33.162 31.206 32.121 27.899 32.709 C 22.006 33.757 18.289 39.36 19.382 45.509 C 20.728 53.078 28.974 56.553 38.816 62.367 C 39.501 62.734 40.205 62.853 40.926 62.724 C 41.647 62.596 42.267 62.242 42.784 61.662 C 49.61 53.311 56.603 46.944 55.215 39.138 C 54.122 32.988 48.701 29.011 42.809 30.058 Z " fill="rgb(255,244,202)"/><path d=" M 27.157 72.493 C 27.448 74.126 26.337 75.689 24.677 75.984 C 23.017 76.279 21.436 75.195 21.145 73.562 C 20.855 71.929 21.965 70.366 23.626 70.071 C 25.286 69.775 26.867 70.86 27.157 72.493 Z " fill="rgb(255,244,202)"/><path d=" M 67.437 89.732 C 67.727 91.365 66.617 92.928 64.956 93.223 C 63.296 93.518 61.715 92.434 61.424 90.801 C 61.134 89.168 62.244 87.605 63.905 87.31 C 65.565 87.015 67.146 88.099 67.437 89.732 Z " fill="rgb(255,225,186)"/><path d=" M 63.231 66.079 C 63.525 67.734 62.435 69.27 60.751 69.57 L 36.702 73.846 C 35.018 74.145 33.464 73.079 33.17 71.424 C 32.875 69.768 33.966 68.232 35.65 67.933 L 59.699 63.657 C 61.383 63.357 62.937 64.423 63.231 66.079 Z " fill="rgb(255,244,202)"/><path d=" M 65.334 77.905 C 65.628 79.561 64.537 81.097 62.853 81.397 L 26.78 87.811 C 25.096 88.11 23.542 87.044 23.248 85.388 C 22.954 83.732 24.045 82.197 25.728 81.897 L 61.802 75.483 C 63.486 75.184 65.039 76.249 65.334 77.905 Z " fill="rgb(255,244,202)"/><path d=" M 55.412 91.87 C 55.707 93.525 54.616 95.062 52.932 95.361 L 28.883 99.637 C 27.199 99.937 25.645 98.871 25.351 97.215 C 25.056 95.559 26.147 94.023 27.831 93.724 L 51.88 89.448 C 53.564 89.148 55.118 90.214 55.412 91.87 Z " fill="rgb(255,244,202)"/><g><path d=" M 55.412 91.87 C 55.707 93.525 54.616 95.062 52.932 95.361 L 46.92 96.43 L 45.868 90.517 L 51.88 89.448 C 53.564 89.148 55.118 90.214 55.412 91.87 Z " fill="rgb(255,225,186)"/><path d=" M 42.784 61.662 C 42.267 62.242 41.647 62.596 40.926 62.724 L 35.953 34.755 C 37.3 32.563 39.502 30.646 42.809 30.058 C 48.701 29.011 54.122 32.988 55.215 39.138 C 56.603 46.943 49.61 53.311 42.784 61.662 Z " fill="rgb(255,225,186)"/><path d=" M 65.334 77.905 C 65.628 79.561 64.537 81.097 62.853 81.397 L 44.817 84.604 L 43.765 78.69 L 61.802 75.483 C 63.486 75.184 65.039 76.249 65.334 77.905 Z " fill="rgb(255,225,186)"/><path d=" M 60.751 69.57 L 42.714 72.777 L 41.662 66.864 L 59.699 63.657 C 61.383 63.357 62.937 64.423 63.231 66.079 C 63.525 67.734 62.435 69.27 60.751 69.57 Z " fill="rgb(255,225,186)"/></g></g><linearGradient id="_lgradient_60" x1="0" y1="0.5" x2="1" y2="0.5" gradientTransform="matrix(38.52,0,0,42,112.326,26.742)" gradientUnits="userSpaceOnUse"><stop offset="1.7391304347826086%" stop-opacity="1" style="stop-color:rgb(113,108,108)"/><stop offset="33.04347826086956%" stop-opacity="1" style="stop-color:rgb(0,0,0)"/></linearGradient><path d=" M 131.646 34.062 L 121.986 34.062 L 121.986 43.962 L 131.646 43.962 L 131.646 43.962 Q 135.246 43.962 137.106 42.702 L 137.106 42.702 L 137.106 42.702 Q 138.966 41.442 138.966 38.982 L 138.966 38.982 L 138.966 38.982 Q 138.966 36.522 137.106 35.292 L 137.106 35.292 L 137.106 35.292 Q 135.246 34.062 131.646 34.062 L 131.646 34.062 L 131.646 34.062 Z  M 143.166 46.902 L 143.166 46.902 Q 146.766 48.042 148.806 50.712 L 148.806 50.712 L 148.806 50.712 Q 150.846 53.382 150.846 57.282 L 150.846 57.282 L 150.846 57.282 Q 150.846 62.802 146.556 65.772 L 146.556 65.772 L 146.556 65.772 Q 142.266 68.742 134.046 68.742 L 134.046 68.742 L 112.326 68.742 L 112.326 26.742 L 132.846 26.742 L 132.846 26.742 Q 140.526 26.742 144.636 29.682 L 144.636 29.682 L 144.636 29.682 Q 148.746 32.622 148.746 37.662 L 148.746 37.662 L 148.746 37.662 Q 148.746 40.722 147.276 43.122 L 147.276 43.122 L 147.276 43.122 Q 145.806 45.522 143.166 46.902 L 143.166 46.902 L 143.166 46.902 Z  M 133.326 61.422 L 133.326 61.422 Q 137.166 61.422 139.116 60.162 L 139.116 60.162 L 139.116 60.162 Q 141.066 58.902 141.066 56.262 L 141.066 56.262 L 141.066 56.262 Q 141.066 51.042 133.326 51.042 L 133.326 51.042 L 121.986 51.042 L 121.986 61.422 L 133.326 61.422 Z " fill-rule="evenodd" fill="url(#_lgradient_60)"/><g style="isolation: isolate;"><mask id="_mask_Zq7kK2M9EI79I7yNZtSxJ6nJIckNfafE" x="-200%" y="-200%" width="400%" height="400%"><rect x="-200%" y="-200%" width="400%" height="400%" style="fill:white;"/><path d=" M 131.646 34.062 L 121.986 34.062 L 121.986 43.962 L 131.646 43.962 L 131.646 43.962 Q 135.246 43.962 137.106 42.702 L 137.106 42.702 L 137.106 42.702 Q 138.966 41.442 138.966 38.982 L 138.966 38.982 L 138.966 38.982 Q 138.966 36.522 137.106 35.292 L 137.106 35.292 L 137.106 35.292 Q 135.246 34.062 131.646 34.062 L 131.646 34.062 L 131.646 34.062 Z  M 143.166 46.902 L 143.166 46.902 Q 146.766 48.042 148.806 50.712 L 148.806 50.712 L 148.806 50.712 Q 150.846 53.382 150.846 57.282 L 150.846 57.282 L 150.846 57.282 Q 150.846 62.802 146.556 65.772 L 146.556 65.772 L 146.556 65.772 Q 142.266 68.742 134.046 68.742 L 134.046 68.742 L 112.326 68.742 L 112.326 26.742 L 132.846 26.742 L 132.846 26.742 Q 140.526 26.742 144.636 29.682 L 144.636 29.682 L 144.636 29.682 Q 148.746 32.622 148.746 37.662 L 148.746 37.662 L 148.746 37.662 Q 148.746 40.722 147.276 43.122 L 147.276 43.122 L 147.276 43.122 Q 145.806 45.522 143.166 46.902 L 143.166 46.902 L 143.166 46.902 Z  M 133.326 61.422 L 133.326 61.422 Q 137.166 61.422 139.116 60.162 L 139.116 60.162 L 139.116 60.162 Q 141.066 58.902 141.066 56.262 L 141.066 56.262 L 141.066 56.262 Q 141.066 51.042 133.326 51.042 L 133.326 51.042 L 121.986 51.042 L 121.986 61.422 L 133.326 61.422 Z " fill-rule="evenodd" fill="black" stroke="none"/></mask><path d=" M 131.646 34.062 L 121.986 34.062 L 121.986 43.962 L 131.646 43.962 L 131.646 43.962 Q 135.246 43.962 137.106 42.702 L 137.106 42.702 L 137.106 42.702 Q 138.966 41.442 138.966 38.982 L 138.966 38.982 L 138.966 38.982 Q 138.966 36.522 137.106 35.292 L 137.106 35.292 L 137.106 35.292 Q 135.246 34.062 131.646 34.062 L 131.646 34.062 L 131.646 34.062 Z  M 143.166 46.902 L 143.166 46.902 Q 146.766 48.042 148.806 50.712 L 148.806 50.712 L 148.806 50.712 Q 150.846 53.382 150.846 57.282 L 150.846 57.282 L 150.846 57.282 Q 150.846 62.802 146.556 65.772 L 146.556 65.772 L 146.556 65.772 Q 142.266 68.742 134.046 68.742 L 134.046 68.742 L 112.326 68.742 L 112.326 26.742 L 132.846 26.742 L 132.846 26.742 Q 140.526 26.742 144.636 29.682 L 144.636 29.682 L 144.636 29.682 Q 148.746 32.622 148.746 37.662 L 148.746 37.662 L 148.746 37.662 Q 148.746 40.722 147.276 43.122 L 147.276 43.122 L 147.276 43.122 Q 145.806 45.522 143.166 46.902 L 143.166 46.902 L 143.166 46.902 Z  M 133.326 61.422 L 133.326 61.422 Q 137.166 61.422 139.116 60.162 L 139.116 60.162 L 139.116 60.162 Q 141.066 58.902 141.066 56.262 L 141.066 56.262 L 141.066 56.262 Q 141.066 51.042 133.326 51.042 L 133.326 51.042 L 121.986 51.042 L 121.986 61.422 L 133.326 61.422 Z " fill-rule="evenodd" fill="none" mask="url(#_mask_Zq7kK2M9EI79I7yNZtSxJ6nJIckNfafE)" vector-effect="non-scaling-stroke" stroke-width="4" stroke="rgb(165,195,238)" stroke-linejoin="miter" stroke-linecap="round" stroke-miterlimit="3"/><path d=" M 131.646 34.062 L 121.986 34.062 L 121.986 43.962 L 131.646 43.962 L 131.646 43.962 Q 135.246 43.962 137.106 42.702 L 137.106 42.702 L 137.106 42.702 Q 138.966 41.442 138.966 38.982 L 138.966 38.982 L 138.966 38.982 Q 138.966 36.522 137.106 35.292 L 137.106 35.292 L 137.106 35.292 Q 135.246 34.062 131.646 34.062 L 131.646 34.062 L 131.646 34.062 Z  M 143.166 46.902 L 143.166 46.902 Q 146.766 48.042 148.806 50.712 L 148.806 50.712 L 148.806 50.712 Q 150.846 53.382 150.846 57.282 L 150.846 57.282 L 150.846 57.282 Q 150.846 62.802 146.556 65.772 L 146.556 65.772 L 146.556 65.772 Q 142.266 68.742 134.046 68.742 L 134.046 68.742 L 112.326 68.742 L 112.326 26.742 L 132.846 26.742 L 132.846 26.742 Q 140.526 26.742 144.636 29.682 L 144.636 29.682 L 144.636 29.682 Q 148.746 32.622 148.746 37.662 L 148.746 37.662 L 148.746 37.662 Q 148.746 40.722 147.276 43.122 L 147.276 43.122 L 147.276 43.122 Q 145.806 45.522 143.166 46.902 L 143.166 46.902 L 143.166 46.902 Z  M 133.326 61.422 L 133.326 61.422 Q 137.166 61.422 139.116 60.162 L 139.116 60.162 L 139.116 60.162 Q 141.066 58.902 141.066 56.262 L 141.066 56.262 L 141.066 56.262 Q 141.066 51.042 133.326 51.042 L 133.326 51.042 L 121.986 51.042 L 121.986 61.422 L 133.326 61.422 Z " fill-rule="evenodd" fill="none" vector-effect="non-scaling-stroke" stroke-width="1" stroke="rgb(0,0,0)" stroke-linejoin="miter" stroke-linecap="square" stroke-miterlimit="3"/></g><path d=" M 131.646 34.062 L 121.986 34.062 L 121.986 43.962 L 131.646 43.962 L 131.646 43.962 Q 135.246 43.962 137.106 42.702 L 137.106 42.702 L 137.106 42.702 Q 138.966 41.442 138.966 38.982 L 138.966 38.982 L 138.966 38.982 Q 138.966 36.522 137.106 35.292 L 137.106 35.292 L 137.106 35.292 Q 135.246 34.062 131.646 34.062 L 131.646 34.062 L 131.646 34.062 Z  M 143.166 46.902 L 143.166 46.902 Q 146.766 48.042 148.806 50.712 L 148.806 50.712 L 148.806 50.712 Q 150.846 53.382 150.846 57.282 L 150.846 57.282 L 150.846 57.282 Q 150.846 62.802 146.556 65.772 L 146.556 65.772 L 146.556 65.772 Q 142.266 68.742 134.046 68.742 L 134.046 68.742 L 112.326 68.742 L 112.326 26.742 L 132.846 26.742 L 132.846 26.742 Q 140.526 26.742 144.636 29.682 L 144.636 29.682 L 144.636 29.682 Q 148.746 32.622 148.746 37.662 L 148.746 37.662 L 148.746 37.662 Q 148.746 40.722 147.276 43.122 L 147.276 43.122 L 147.276 43.122 Q 145.806 45.522 143.166 46.902 L 143.166 46.902 L 143.166 46.902 Z  M 133.326 61.422 L 133.326 61.422 Q 137.166 61.422 139.116 60.162 L 139.116 60.162 L 139.116 60.162 Q 141.066 58.902 141.066 56.262 L 141.066 56.262 L 141.066 56.262 Q 141.066 51.042 133.326 51.042 L 133.326 51.042 L 121.986 51.042 L 121.986 61.422 L 133.326 61.422 Z " fill-rule="evenodd" fill="none"/><linearGradient id="_lgradient_61" x1="0" y1="0.5" x2="1" y2="0.5" gradientTransform="matrix(34.02,0,0,33.24,154.835,48.322)" gradientUnits="userSpaceOnUse"><stop offset="1.7391304347826086%" stop-opacity="1" style="stop-color:rgb(113,108,108)"/><stop offset="33.04347826086956%" stop-opacity="1" style="stop-color:rgb(0,0,0)"/></linearGradient><path d=" M 188.855 65.062 L 188.855 65.062 Q 188.855 65.242 188.675 67.582 L 188.675 67.582 L 164.255 67.582 L 164.255 67.582 Q 164.915 70.582 167.375 72.322 L 167.375 72.322 L 167.375 72.322 Q 169.835 74.062 173.495 74.062 L 173.495 74.062 L 173.495 74.062 Q 176.015 74.062 177.965 73.312 L 177.965 73.312 L 177.965 73.312 Q 179.915 72.562 181.595 70.942 L 181.595 70.942 L 186.575 76.342 L 186.575 76.342 Q 182.015 81.562 173.255 81.562 L 173.255 81.562 L 173.255 81.562 Q 167.795 81.562 163.595 79.432 L 163.595 79.432 L 163.595 79.432 Q 159.395 77.302 157.115 73.522 L 157.115 73.522 L 157.115 73.522 Q 154.835 69.742 154.835 64.942 L 154.835 64.942 L 154.835 64.942 Q 154.835 60.202 157.085 56.392 L 157.085 56.392 L 157.085 56.392 Q 159.335 52.582 163.265 50.452 L 163.265 50.452 L 163.265 50.452 Q 167.195 48.322 172.055 48.322 L 172.055 48.322 L 172.055 48.322 Q 176.795 48.322 180.635 50.362 L 180.635 50.362 L 180.635 50.362 Q 184.475 52.402 186.665 56.212 L 186.665 56.212 L 186.665 56.212 Q 188.855 60.022 188.855 65.062 L 188.855 65.062 Z  M 172.115 55.402 L 172.115 55.402 Q 168.935 55.402 166.775 57.202 L 166.775 57.202 L 166.775 57.202 Q 164.615 59.002 164.135 62.122 L 164.135 62.122 L 180.035 62.122 L 180.035 62.122 Q 179.555 59.062 177.395 57.232 L 177.395 57.232 L 177.395 57.232 Q 175.235 55.402 172.115 55.402 L 172.115 55.402 Z " fill-rule="evenodd" fill="url(#_lgradient_61)"/><g style="isolation: isolate;"><mask id="_mask_iKSumwdp3N1o6TcHWFx2xzv8OYHIqfUQ" x="-200%" y="-200%" width="400%" height="400%"><rect x="-200%" y="-200%" width="400%" height="400%" style="fill:white;"/><path d=" M 188.855 65.062 L 188.855 65.062 Q 188.855 65.242 188.675 67.582 L 188.675 67.582 L 164.255 67.582 L 164.255 67.582 Q 164.915 70.582 167.375 72.322 L 167.375 72.322 L 167.375 72.322 Q 169.835 74.062 173.495 74.062 L 173.495 74.062 L 173.495 74.062 Q 176.015 74.062 177.965 73.312 L 177.965 73.312 L 177.965 73.312 Q 179.915 72.562 181.595 70.942 L 181.595 70.942 L 186.575 76.342 L 186.575 76.342 Q 182.015 81.562 173.255 81.562 L 173.255 81.562 L 173.255 81.562 Q 167.795 81.562 163.595 79.432 L 163.595 79.432 L 163.595 79.432 Q 159.395 77.302 157.115 73.522 L 157.115 73.522 L 157.115 73.522 Q 154.835 69.742 154.835 64.942 L 154.835 64.942 L 154.835 64.942 Q 154.835 60.202 157.085 56.392 L 157.085 56.392 L 157.085 56.392 Q 159.335 52.582 163.265 50.452 L 163.265 50.452 L 163.265 50.452 Q 167.195 48.322 172.055 48.322 L 172.055 48.322 L 172.055 48.322 Q 176.795 48.322 180.635 50.362 L 180.635 50.362 L 180.635 50.362 Q 184.475 52.402 186.665 56.212 L 186.665 56.212 L 186.665 56.212 Q 188.855 60.022 188.855 65.062 L 188.855 65.062 Z  M 172.115 55.402 L 172.115 55.402 Q 168.935 55.402 166.775 57.202 L 166.775 57.202 L 166.775 57.202 Q 164.615 59.002 164.135 62.122 L 164.135 62.122 L 180.035 62.122 L 180.035 62.122 Q 179.555 59.062 177.395 57.232 L 177.395 57.232 L 177.395 57.232 Q 175.235 55.402 172.115 55.402 L 172.115 55.402 Z " fill-rule="evenodd" fill="black" stroke="none"/></mask><path d=" M 188.855 65.062 L 188.855 65.062 Q 188.855 65.242 188.675 67.582 L 188.675 67.582 L 164.255 67.582 L 164.255 67.582 Q 164.915 70.582 167.375 72.322 L 167.375 72.322 L 167.375 72.322 Q 169.835 74.062 173.495 74.062 L 173.495 74.062 L 173.495 74.062 Q 176.015 74.062 177.965 73.312 L 177.965 73.312 L 177.965 73.312 Q 179.915 72.562 181.595 70.942 L 181.595 70.942 L 186.575 76.342 L 186.575 76.342 Q 182.015 81.562 173.255 81.562 L 173.255 81.562 L 173.255 81.562 Q 167.795 81.562 163.595 79.432 L 163.595 79.432 L 163.595 79.432 Q 159.395 77.302 157.115 73.522 L 157.115 73.522 L 157.115 73.522 Q 154.835 69.742 154.835 64.942 L 154.835 64.942 L 154.835 64.942 Q 154.835 60.202 157.085 56.392 L 157.085 56.392 L 157.085 56.392 Q 159.335 52.582 163.265 50.452 L 163.265 50.452 L 163.265 50.452 Q 167.195 48.322 172.055 48.322 L 172.055 48.322 L 172.055 48.322 Q 176.795 48.322 180.635 50.362 L 180.635 50.362 L 180.635 50.362 Q 184.475 52.402 186.665 56.212 L 186.665 56.212 L 186.665 56.212 Q 188.855 60.022 188.855 65.062 L 188.855 65.062 Z  M 172.115 55.402 L 172.115 55.402 Q 168.935 55.402 166.775 57.202 L 166.775 57.202 L 166.775 57.202 Q 164.615 59.002 164.135 62.122 L 164.135 62.122 L 180.035 62.122 L 180.035 62.122 Q 179.555 59.062 177.395 57.232 L 177.395 57.232 L 177.395 57.232 Q 175.235 55.402 172.115 55.402 L 172.115 55.402 Z " fill-rule="evenodd" fill="none" mask="url(#_mask_iKSumwdp3N1o6TcHWFx2xzv8OYHIqfUQ)" vector-effect="non-scaling-stroke" stroke-width="4" stroke="rgb(165,195,238)" stroke-linejoin="miter" stroke-linecap="round" stroke-miterlimit="3"/><path d=" M 188.855 65.062 L 188.855 65.062 Q 188.855 65.242 188.675 67.582 L 188.675 67.582 L 164.255 67.582 L 164.255 67.582 Q 164.915 70.582 167.375 72.322 L 167.375 72.322 L 167.375 72.322 Q 169.835 74.062 173.495 74.062 L 173.495 74.062 L 173.495 74.062 Q 176.015 74.062 177.965 73.312 L 177.965 73.312 L 177.965 73.312 Q 179.915 72.562 181.595 70.942 L 181.595 70.942 L 186.575 76.342 L 186.575 76.342 Q 182.015 81.562 173.255 81.562 L 173.255 81.562 L 173.255 81.562 Q 167.795 81.562 163.595 79.432 L 163.595 79.432 L 163.595 79.432 Q 159.395 77.302 157.115 73.522 L 157.115 73.522 L 157.115 73.522 Q 154.835 69.742 154.835 64.942 L 154.835 64.942 L 154.835 64.942 Q 154.835 60.202 157.085 56.392 L 157.085 56.392 L 157.085 56.392 Q 159.335 52.582 163.265 50.452 L 163.265 50.452 L 163.265 50.452 Q 167.195 48.322 172.055 48.322 L 172.055 48.322 L 172.055 48.322 Q 176.795 48.322 180.635 50.362 L 180.635 50.362 L 180.635 50.362 Q 184.475 52.402 186.665 56.212 L 186.665 56.212 L 186.665 56.212 Q 188.855 60.022 188.855 65.062 L 188.855 65.062 Z  M 172.115 55.402 L 172.115 55.402 Q 168.935 55.402 166.775 57.202 L 166.775 57.202 L 166.775 57.202 Q 164.615 59.002 164.135 62.122 L 164.135 62.122 L 180.035 62.122 L 180.035 62.122 Q 179.555 59.062 177.395 57.232 L 177.395 57.232 L 177.395 57.232 Q 175.235 55.402 172.115 55.402 L 172.115 55.402 Z " fill-rule="evenodd" fill="none" vector-effect="non-scaling-stroke" stroke-width="1" stroke="rgb(0,0,0)" stroke-linejoin="miter" stroke-linecap="square" stroke-miterlimit="3"/></g><path d=" M 188.855 65.062 L 188.855 65.062 Q 188.855 65.242 188.675 67.582 L 188.675 67.582 L 164.255 67.582 L 164.255 67.582 Q 164.915 70.582 167.375 72.322 L 167.375 72.322 L 167.375 72.322 Q 169.835 74.062 173.495 74.062 L 173.495 74.062 L 173.495 74.062 Q 176.015 74.062 177.965 73.312 L 177.965 73.312 L 177.965 73.312 Q 179.915 72.562 181.595 70.942 L 181.595 70.942 L 186.575 76.342 L 186.575 76.342 Q 182.015 81.562 173.255 81.562 L 173.255 81.562 L 173.255 81.562 Q 167.795 81.562 163.595 79.432 L 163.595 79.432 L 163.595 79.432 Q 159.395 77.302 157.115 73.522 L 157.115 73.522 L 157.115 73.522 Q 154.835 69.742 154.835 64.942 L 154.835 64.942 L 154.835 64.942 Q 154.835 60.202 157.085 56.392 L 157.085 56.392 L 157.085 56.392 Q 159.335 52.582 163.265 50.452 L 163.265 50.452 L 163.265 50.452 Q 167.195 48.322 172.055 48.322 L 172.055 48.322 L 172.055 48.322 Q 176.795 48.322 180.635 50.362 L 180.635 50.362 L 180.635 50.362 Q 184.475 52.402 186.665 56.212 L 186.665 56.212 L 186.665 56.212 Q 188.855 60.022 188.855 65.062 L 188.855 65.062 Z  M 172.115 55.402 L 172.115 55.402 Q 168.935 55.402 166.775 57.202 L 166.775 57.202 L 166.775 57.202 Q 164.615 59.002 164.135 62.122 L 164.135 62.122 L 180.035 62.122 L 180.035 62.122 Q 179.555 59.062 177.395 57.232 L 177.395 57.232 L 177.395 57.232 Q 175.235 55.402 172.115 55.402 L 172.115 55.402 Z " fill-rule="evenodd" fill="none"/><linearGradient id="_lgradient_62" x1="0" y1="0.5" x2="1" y2="0.5" gradientTransform="matrix(20.04,0,0,32.76,195.265,34.982)" gradientUnits="userSpaceOnUse"><stop offset="1.7391304347826086%" stop-opacity="1" style="stop-color:rgb(113,108,108)"/><stop offset="33.04347826086956%" stop-opacity="1" style="stop-color:rgb(0,0,0)"/></linearGradient><path d=" M 204.205 39.722 L 204.205 39.722 Q 205.885 37.382 208.735 36.182 L 208.735 36.182 L 208.735 36.182 Q 211.585 34.982 215.305 34.982 L 215.305 34.982 L 215.305 43.622 L 215.305 43.622 Q 213.745 43.502 213.205 43.502 L 213.205 43.502 L 213.205 43.502 Q 209.185 43.502 206.905 45.752 L 206.905 45.752 L 206.905 45.752 Q 204.625 48.002 204.625 52.502 L 204.625 52.502 L 204.625 67.742 L 195.265 67.742 L 195.265 35.462 L 204.205 35.462 L 204.205 39.722 Z " fill-rule="evenodd" fill="url(#_lgradient_62)"/><g style="isolation: isolate;"><mask id="_mask_VR0KuoYPfbBZmyDWw1fKq6P3VcEduhzH" x="-200%" y="-200%" width="400%" height="400%"><rect x="-200%" y="-200%" width="400%" height="400%" style="fill:white;"/><path d=" M 204.205 39.722 L 204.205 39.722 Q 205.885 37.382 208.735 36.182 L 208.735 36.182 L 208.735 36.182 Q 211.585 34.982 215.305 34.982 L 215.305 34.982 L 215.305 43.622 L 215.305 43.622 Q 213.745 43.502 213.205 43.502 L 213.205 43.502 L 213.205 43.502 Q 209.185 43.502 206.905 45.752 L 206.905 45.752 L 206.905 45.752 Q 204.625 48.002 204.625 52.502 L 204.625 52.502 L 204.625 67.742 L 195.265 67.742 L 195.265 35.462 L 204.205 35.462 L 204.205 39.722 Z " fill-rule="evenodd" fill="black" stroke="none"/></mask><path d=" M 204.205 39.722 L 204.205 39.722 Q 205.885 37.382 208.735 36.182 L 208.735 36.182 L 208.735 36.182 Q 211.585 34.982 215.305 34.982 L 215.305 34.982 L 215.305 43.622 L 215.305 43.622 Q 213.745 43.502 213.205 43.502 L 213.205 43.502 L 213.205 43.502 Q 209.185 43.502 206.905 45.752 L 206.905 45.752 L 206.905 45.752 Q 204.625 48.002 204.625 52.502 L 204.625 52.502 L 204.625 67.742 L 195.265 67.742 L 195.265 35.462 L 204.205 35.462 L 204.205 39.722 Z " fill-rule="evenodd" fill="none" mask="url(#_mask_VR0KuoYPfbBZmyDWw1fKq6P3VcEduhzH)" vector-effect="non-scaling-stroke" stroke-width="4" stroke="rgb(165,195,238)" stroke-linejoin="miter" stroke-linecap="round" stroke-miterlimit="3"/><path d=" M 204.205 39.722 L 204.205 39.722 Q 205.885 37.382 208.735 36.182 L 208.735 36.182 L 208.735 36.182 Q 211.585 34.982 215.305 34.982 L 215.305 34.982 L 215.305 43.622 L 215.305 43.622 Q 213.745 43.502 213.205 43.502 L 213.205 43.502 L 213.205 43.502 Q 209.185 43.502 206.905 45.752 L 206.905 45.752 L 206.905 45.752 Q 204.625 48.002 204.625 52.502 L 204.625 52.502 L 204.625 67.742 L 195.265 67.742 L 195.265 35.462 L 204.205 35.462 L 204.205 39.722 Z " fill-rule="evenodd" fill="none" vector-effect="non-scaling-stroke" stroke-width="1" stroke="rgb(0,0,0)" stroke-linejoin="miter" stroke-linecap="square" stroke-miterlimit="3"/></g><path d=" M 204.205 39.722 L 204.205 39.722 Q 205.885 37.382 208.735 36.182 L 208.735 36.182 L 208.735 36.182 Q 211.585 34.982 215.305 34.982 L 215.305 34.982 L 215.305 43.622 L 215.305 43.622 Q 213.745 43.502 213.205 43.502 L 213.205 43.502 L 213.205 43.502 Q 209.185 43.502 206.905 45.752 L 206.905 45.752 L 206.905 45.752 Q 204.625 48.002 204.625 52.502 L 204.625 52.502 L 204.625 67.742 L 195.265 67.742 L 195.265 35.462 L 204.205 35.462 L 204.205 39.722 Z " fill-rule="evenodd" fill="none"/><linearGradient id="_lgradient_63" x1="0" y1="0.5" x2="1" y2="0.5" gradientTransform="matrix(32.46,0,0,46.68,212.354,47.322)" gradientUnits="userSpaceOnUse"><stop offset="1.7391304347826086%" stop-opacity="1" style="stop-color:rgb(113,108,108)"/><stop offset="33.04347826086956%" stop-opacity="1" style="stop-color:rgb(0,0,0)"/></linearGradient><path d=" M 226.249 80.194 Q 223.487 79.677 221.084 78.432 L 221.084 78.432 L 221.084 78.432 Q 216.974 76.302 214.664 72.522 L 214.664 72.522 L 214.664 72.522 Q 212.354 68.742 212.354 63.942 L 212.354 63.942 L 212.354 63.942 Q 212.354 59.142 214.664 55.362 L 214.664 55.362 L 214.664 55.362 Q 216.974 51.582 221.084 49.452 L 221.084 49.452 L 221.084 49.452 Q 225.194 47.322 230.354 47.322 L 230.354 47.322 L 230.354 47.322 Q 235.454 47.322 239.264 49.452 L 239.264 49.452 L 239.264 49.452 Q 243.074 51.582 244.814 55.542 L 244.814 55.542 L 237.554 59.442 L 237.554 59.442 Q 235.034 55.002 230.294 55.002 L 230.294 55.002 L 230.294 55.002 Q 226.634 55.002 224.234 57.402 L 224.234 57.402 L 224.234 57.402 Q 221.834 59.802 221.834 63.942 L 221.834 63.942 L 221.834 63.942 Q 221.834 68.082 224.234 70.482 L 224.234 70.482 L 224.234 70.482 Q 226.634 72.882 230.294 72.882 L 230.294 72.882 L 230.294 72.882 Q 235.094 72.882 237.554 68.442 L 237.554 68.442 L 244.814 72.402 L 244.814 72.402 Q 243.074 76.242 239.264 78.402 L 239.264 78.402 L 239.264 78.402 Q 235.753 80.392 231.145 80.548 L 230.534 83.082 L 230.534 83.082 Q 233.174 83.382 234.464 84.732 L 234.464 84.732 L 234.464 84.732 Q 235.754 86.082 235.754 88.062 L 235.754 88.062 L 235.754 88.062 Q 235.754 90.822 233.354 92.412 L 233.354 92.412 L 233.354 92.412 Q 230.954 94.002 226.934 94.002 L 226.934 94.002 L 226.934 94.002 Q 225.374 94.002 223.874 93.672 L 223.874 93.672 L 223.874 93.672 Q 222.374 93.342 221.354 92.742 L 221.354 92.742 L 222.794 88.722 L 222.794 88.722 Q 224.714 89.622 226.694 89.622 L 226.694 89.622 L 226.694 89.622 Q 229.814 89.622 229.814 87.702 L 229.814 87.702 L 229.814 87.702 Q 229.814 85.962 226.874 85.962 L 226.874 85.962 L 224.834 85.962 L 226.249 80.194 Z " fill-rule="evenodd" fill="url(#_lgradient_63)"/><g style="isolation: isolate;"><mask id="_mask_hATuftSJYXAyDBGMcxXH7y3iiGa3etCT" x="-200%" y="-200%" width="400%" height="400%"><rect x="-200%" y="-200%" width="400%" height="400%" style="fill:white;"/><path d=" M 226.249 80.194 Q 223.487 79.677 221.084 78.432 L 221.084 78.432 L 221.084 78.432 Q 216.974 76.302 214.664 72.522 L 214.664 72.522 L 214.664 72.522 Q 212.354 68.742 212.354 63.942 L 212.354 63.942 L 212.354 63.942 Q 212.354 59.142 214.664 55.362 L 214.664 55.362 L 214.664 55.362 Q 216.974 51.582 221.084 49.452 L 221.084 49.452 L 221.084 49.452 Q 225.194 47.322 230.354 47.322 L 230.354 47.322 L 230.354 47.322 Q 235.454 47.322 239.264 49.452 L 239.264 49.452 L 239.264 49.452 Q 243.074 51.582 244.814 55.542 L 244.814 55.542 L 237.554 59.442 L 237.554 59.442 Q 235.034 55.002 230.294 55.002 L 230.294 55.002 L 230.294 55.002 Q 226.634 55.002 224.234 57.402 L 224.234 57.402 L 224.234 57.402 Q 221.834 59.802 221.834 63.942 L 221.834 63.942 L 221.834 63.942 Q 221.834 68.082 224.234 70.482 L 224.234 70.482 L 224.234 70.482 Q 226.634 72.882 230.294 72.882 L 230.294 72.882 L 230.294 72.882 Q 235.094 72.882 237.554 68.442 L 237.554 68.442 L 244.814 72.402 L 244.814 72.402 Q 243.074 76.242 239.264 78.402 L 239.264 78.402 L 239.264 78.402 Q 235.753 80.392 231.145 80.548 L 230.534 83.082 L 230.534 83.082 Q 233.174 83.382 234.464 84.732 L 234.464 84.732 L 234.464 84.732 Q 235.754 86.082 235.754 88.062 L 235.754 88.062 L 235.754 88.062 Q 235.754 90.822 233.354 92.412 L 233.354 92.412 L 233.354 92.412 Q 230.954 94.002 226.934 94.002 L 226.934 94.002 L 226.934 94.002 Q 225.374 94.002 223.874 93.672 L 223.874 93.672 L 223.874 93.672 Q 222.374 93.342 221.354 92.742 L 221.354 92.742 L 222.794 88.722 L 222.794 88.722 Q 224.714 89.622 226.694 89.622 L 226.694 89.622 L 226.694 89.622 Q 229.814 89.622 229.814 87.702 L 229.814 87.702 L 229.814 87.702 Q 229.814 85.962 226.874 85.962 L 226.874 85.962 L 224.834 85.962 L 226.249 80.194 Z " fill-rule="evenodd" fill="black" stroke="none"/></mask><path d=" M 226.249 80.194 Q 223.487 79.677 221.084 78.432 L 221.084 78.432 L 221.084 78.432 Q 216.974 76.302 214.664 72.522 L 214.664 72.522 L 214.664 72.522 Q 212.354 68.742 212.354 63.942 L 212.354 63.942 L 212.354 63.942 Q 212.354 59.142 214.664 55.362 L 214.664 55.362 L 214.664 55.362 Q 216.974 51.582 221.084 49.452 L 221.084 49.452 L 221.084 49.452 Q 225.194 47.322 230.354 47.322 L 230.354 47.322 L 230.354 47.322 Q 235.454 47.322 239.264 49.452 L 239.264 49.452 L 239.264 49.452 Q 243.074 51.582 244.814 55.542 L 244.814 55.542 L 237.554 59.442 L 237.554 59.442 Q 235.034 55.002 230.294 55.002 L 230.294 55.002 L 230.294 55.002 Q 226.634 55.002 224.234 57.402 L 224.234 57.402 L 224.234 57.402 Q 221.834 59.802 221.834 63.942 L 221.834 63.942 L 221.834 63.942 Q 221.834 68.082 224.234 70.482 L 224.234 70.482 L 224.234 70.482 Q 226.634 72.882 230.294 72.882 L 230.294 72.882 L 230.294 72.882 Q 235.094 72.882 237.554 68.442 L 237.554 68.442 L 244.814 72.402 L 244.814 72.402 Q 243.074 76.242 239.264 78.402 L 239.264 78.402 L 239.264 78.402 Q 235.753 80.392 231.145 80.548 L 230.534 83.082 L 230.534 83.082 Q 233.174 83.382 234.464 84.732 L 234.464 84.732 L 234.464 84.732 Q 235.754 86.082 235.754 88.062 L 235.754 88.062 L 235.754 88.062 Q 235.754 90.822 233.354 92.412 L 233.354 92.412 L 233.354 92.412 Q 230.954 94.002 226.934 94.002 L 226.934 94.002 L 226.934 94.002 Q 225.374 94.002 223.874 93.672 L 223.874 93.672 L 223.874 93.672 Q 222.374 93.342 221.354 92.742 L 221.354 92.742 L 222.794 88.722 L 222.794 88.722 Q 224.714 89.622 226.694 89.622 L 226.694 89.622 L 226.694 89.622 Q 229.814 89.622 229.814 87.702 L 229.814 87.702 L 229.814 87.702 Q 229.814 85.962 226.874 85.962 L 226.874 85.962 L 224.834 85.962 L 226.249 80.194 Z " fill-rule="evenodd" fill="none" mask="url(#_mask_hATuftSJYXAyDBGMcxXH7y3iiGa3etCT)" vector-effect="non-scaling-stroke" stroke-width="4" stroke="rgb(165,195,238)" stroke-linejoin="miter" stroke-linecap="round" stroke-miterlimit="3"/><path d=" M 226.249 80.194 Q 223.487 79.677 221.084 78.432 L 221.084 78.432 L 221.084 78.432 Q 216.974 76.302 214.664 72.522 L 214.664 72.522 L 214.664 72.522 Q 212.354 68.742 212.354 63.942 L 212.354 63.942 L 212.354 63.942 Q 212.354 59.142 214.664 55.362 L 214.664 55.362 L 214.664 55.362 Q 216.974 51.582 221.084 49.452 L 221.084 49.452 L 221.084 49.452 Q 225.194 47.322 230.354 47.322 L 230.354 47.322 L 230.354 47.322 Q 235.454 47.322 239.264 49.452 L 239.264 49.452 L 239.264 49.452 Q 243.074 51.582 244.814 55.542 L 244.814 55.542 L 237.554 59.442 L 237.554 59.442 Q 235.034 55.002 230.294 55.002 L 230.294 55.002 L 230.294 55.002 Q 226.634 55.002 224.234 57.402 L 224.234 57.402 L 224.234 57.402 Q 221.834 59.802 221.834 63.942 L 221.834 63.942 L 221.834 63.942 Q 221.834 68.082 224.234 70.482 L 224.234 70.482 L 224.234 70.482 Q 226.634 72.882 230.294 72.882 L 230.294 72.882 L 230.294 72.882 Q 235.094 72.882 237.554 68.442 L 237.554 68.442 L 244.814 72.402 L 244.814 72.402 Q 243.074 76.242 239.264 78.402 L 239.264 78.402 L 239.264 78.402 Q 235.753 80.392 231.145 80.548 L 230.534 83.082 L 230.534 83.082 Q 233.174 83.382 234.464 84.732 L 234.464 84.732 L 234.464 84.732 Q 235.754 86.082 235.754 88.062 L 235.754 88.062 L 235.754 88.062 Q 235.754 90.822 233.354 92.412 L 233.354 92.412 L 233.354 92.412 Q 230.954 94.002 226.934 94.002 L 226.934 94.002 L 226.934 94.002 Q 225.374 94.002 223.874 93.672 L 223.874 93.672 L 223.874 93.672 Q 222.374 93.342 221.354 92.742 L 221.354 92.742 L 222.794 88.722 L 222.794 88.722 Q 224.714 89.622 226.694 89.622 L 226.694 89.622 L 226.694 89.622 Q 229.814 89.622 229.814 87.702 L 229.814 87.702 L 229.814 87.702 Q 229.814 85.962 226.874 85.962 L 226.874 85.962 L 224.834 85.962 L 226.249 80.194 Z " fill-rule="evenodd" fill="none" vector-effect="non-scaling-stroke" stroke-width="1" stroke="rgb(0,0,0)" stroke-linejoin="miter" stroke-linecap="square" stroke-miterlimit="3"/></g><path d=" M 226.249 80.194 Q 223.487 79.677 221.084 78.432 L 221.084 78.432 L 221.084 78.432 Q 216.974 76.302 214.664 72.522 L 214.664 72.522 L 214.664 72.522 Q 212.354 68.742 212.354 63.942 L 212.354 63.942 L 212.354 63.942 Q 212.354 59.142 214.664 55.362 L 214.664 55.362 L 214.664 55.362 Q 216.974 51.582 221.084 49.452 L 221.084 49.452 L 221.084 49.452 Q 225.194 47.322 230.354 47.322 L 230.354 47.322 L 230.354 47.322 Q 235.454 47.322 239.264 49.452 L 239.264 49.452 L 239.264 49.452 Q 243.074 51.582 244.814 55.542 L 244.814 55.542 L 237.554 59.442 L 237.554 59.442 Q 235.034 55.002 230.294 55.002 L 230.294 55.002 L 230.294 55.002 Q 226.634 55.002 224.234 57.402 L 224.234 57.402 L 224.234 57.402 Q 221.834 59.802 221.834 63.942 L 221.834 63.942 L 221.834 63.942 Q 221.834 68.082 224.234 70.482 L 224.234 70.482 L 224.234 70.482 Q 226.634 72.882 230.294 72.882 L 230.294 72.882 L 230.294 72.882 Q 235.094 72.882 237.554 68.442 L 237.554 68.442 L 244.814 72.402 L 244.814 72.402 Q 243.074 76.242 239.264 78.402 L 239.264 78.402 L 239.264 78.402 Q 235.753 80.392 231.145 80.548 L 230.534 83.082 L 230.534 83.082 Q 233.174 83.382 234.464 84.732 L 234.464 84.732 L 234.464 84.732 Q 235.754 86.082 235.754 88.062 L 235.754 88.062 L 235.754 88.062 Q 235.754 90.822 233.354 92.412 L 233.354 92.412 L 233.354 92.412 Q 230.954 94.002 226.934 94.002 L 226.934 94.002 L 226.934 94.002 Q 225.374 94.002 223.874 93.672 L 223.874 93.672 L 223.874 93.672 Q 222.374 93.342 221.354 92.742 L 221.354 92.742 L 222.794 88.722 L 222.794 88.722 Q 224.714 89.622 226.694 89.622 L 226.694 89.622 L 226.694 89.622 Q 229.814 89.622 229.814 87.702 L 229.814 87.702 L 229.814 87.702 Q 229.814 85.962 226.874 85.962 L 226.874 85.962 L 224.834 85.962 L 226.249 80.194 Z " fill-rule="evenodd" fill="none"/><linearGradient id="_lgradient_64" x1="0" y1="0.5" x2="1" y2="0.5" gradientTransform="matrix(30.66,0,0,33.24,250.783,34.982)" gradientUnits="userSpaceOnUse"><stop offset="1.7391304347826086%" stop-opacity="1" style="stop-color:rgb(113,108,108)"/><stop offset="33.04347826086956%" stop-opacity="1" style="stop-color:rgb(0,0,0)"/></linearGradient><path d=" M 265.903 34.982 L 265.903 34.982 Q 273.403 34.982 277.423 38.552 L 277.423 38.552 L 277.423 38.552 Q 281.443 42.122 281.443 49.322 L 281.443 49.322 L 281.443 67.742 L 272.683 67.742 L 272.683 63.722 L 272.683 63.722 Q 270.043 68.222 262.843 68.222 L 262.843 68.222 L 262.843 68.222 Q 259.123 68.222 256.393 66.962 L 256.393 66.962 L 256.393 66.962 Q 253.663 65.702 252.223 63.482 L 252.223 63.482 L 252.223 63.482 Q 250.783 61.262 250.783 58.442 L 250.783 58.442 L 250.783 58.442 Q 250.783 53.942 254.173 51.362 L 254.173 51.362 L 254.173 51.362 Q 257.563 48.782 264.643 48.782 L 264.643 48.782 L 272.083 48.782 L 272.083 48.782 Q 272.083 45.722 270.223 44.072 L 270.223 44.072 L 270.223 44.072 Q 268.363 42.422 264.643 42.422 L 264.643 42.422 L 264.643 42.422 Q 262.063 42.422 259.573 43.232 L 259.573 43.232 L 259.573 43.232 Q 257.083 44.042 255.343 45.422 L 255.343 45.422 L 251.983 38.882 L 251.983 38.882 Q 254.623 37.022 258.313 36.002 L 258.313 36.002 L 258.313 36.002 Q 262.003 34.982 265.903 34.982 L 265.903 34.982 Z  M 265.183 61.922 L 265.183 61.922 Q 267.583 61.922 269.443 60.812 L 269.443 60.812 L 269.443 60.812 Q 271.303 59.702 272.083 57.542 L 272.083 57.542 L 272.083 54.242 L 265.663 54.242 L 265.663 54.242 Q 259.903 54.242 259.903 58.022 L 259.903 58.022 L 259.903 58.022 Q 259.903 59.822 261.313 60.872 L 261.313 60.872 L 261.313 60.872 Q 262.723 61.922 265.183 61.922 L 265.183 61.922 Z " fill-rule="evenodd" fill="url(#_lgradient_64)"/><g style="isolation: isolate;"><mask id="_mask_thYoVuSEB5qUzTaVOWOtyWpihRT2vhtI" x="-200%" y="-200%" width="400%" height="400%"><rect x="-200%" y="-200%" width="400%" height="400%" style="fill:white;"/><path d=" M 265.903 34.982 L 265.903 34.982 Q 273.403 34.982 277.423 38.552 L 277.423 38.552 L 277.423 38.552 Q 281.443 42.122 281.443 49.322 L 281.443 49.322 L 281.443 67.742 L 272.683 67.742 L 272.683 63.722 L 272.683 63.722 Q 270.043 68.222 262.843 68.222 L 262.843 68.222 L 262.843 68.222 Q 259.123 68.222 256.393 66.962 L 256.393 66.962 L 256.393 66.962 Q 253.663 65.702 252.223 63.482 L 252.223 63.482 L 252.223 63.482 Q 250.783 61.262 250.783 58.442 L 250.783 58.442 L 250.783 58.442 Q 250.783 53.942 254.173 51.362 L 254.173 51.362 L 254.173 51.362 Q 257.563 48.782 264.643 48.782 L 264.643 48.782 L 272.083 48.782 L 272.083 48.782 Q 272.083 45.722 270.223 44.072 L 270.223 44.072 L 270.223 44.072 Q 268.363 42.422 264.643 42.422 L 264.643 42.422 L 264.643 42.422 Q 262.063 42.422 259.573 43.232 L 259.573 43.232 L 259.573 43.232 Q 257.083 44.042 255.343 45.422 L 255.343 45.422 L 251.983 38.882 L 251.983 38.882 Q 254.623 37.022 258.313 36.002 L 258.313 36.002 L 258.313 36.002 Q 262.003 34.982 265.903 34.982 L 265.903 34.982 Z  M 265.183 61.922 L 265.183 61.922 Q 267.583 61.922 269.443 60.812 L 269.443 60.812 L 269.443 60.812 Q 271.303 59.702 272.083 57.542 L 272.083 57.542 L 272.083 54.242 L 265.663 54.242 L 265.663 54.242 Q 259.903 54.242 259.903 58.022 L 259.903 58.022 L 259.903 58.022 Q 259.903 59.822 261.313 60.872 L 261.313 60.872 L 261.313 60.872 Q 262.723 61.922 265.183 61.922 L 265.183 61.922 Z " fill-rule="evenodd" fill="black" stroke="none"/></mask><path d=" M 265.903 34.982 L 265.903 34.982 Q 273.403 34.982 277.423 38.552 L 277.423 38.552 L 277.423 38.552 Q 281.443 42.122 281.443 49.322 L 281.443 49.322 L 281.443 67.742 L 272.683 67.742 L 272.683 63.722 L 272.683 63.722 Q 270.043 68.222 262.843 68.222 L 262.843 68.222 L 262.843 68.222 Q 259.123 68.222 256.393 66.962 L 256.393 66.962 L 256.393 66.962 Q 253.663 65.702 252.223 63.482 L 252.223 63.482 L 252.223 63.482 Q 250.783 61.262 250.783 58.442 L 250.783 58.442 L 250.783 58.442 Q 250.783 53.942 254.173 51.362 L 254.173 51.362 L 254.173 51.362 Q 257.563 48.782 264.643 48.782 L 264.643 48.782 L 272.083 48.782 L 272.083 48.782 Q 272.083 45.722 270.223 44.072 L 270.223 44.072 L 270.223 44.072 Q 268.363 42.422 264.643 42.422 L 264.643 42.422 L 264.643 42.422 Q 262.063 42.422 259.573 43.232 L 259.573 43.232 L 259.573 43.232 Q 257.083 44.042 255.343 45.422 L 255.343 45.422 L 251.983 38.882 L 251.983 38.882 Q 254.623 37.022 258.313 36.002 L 258.313 36.002 L 258.313 36.002 Q 262.003 34.982 265.903 34.982 L 265.903 34.982 Z  M 265.183 61.922 L 265.183 61.922 Q 267.583 61.922 269.443 60.812 L 269.443 60.812 L 269.443 60.812 Q 271.303 59.702 272.083 57.542 L 272.083 57.542 L 272.083 54.242 L 265.663 54.242 L 265.663 54.242 Q 259.903 54.242 259.903 58.022 L 259.903 58.022 L 259.903 58.022 Q 259.903 59.822 261.313 60.872 L 261.313 60.872 L 261.313 60.872 Q 262.723 61.922 265.183 61.922 L 265.183 61.922 Z " fill-rule="evenodd" fill="none" mask="url(#_mask_thYoVuSEB5qUzTaVOWOtyWpihRT2vhtI)" vector-effect="non-scaling-stroke" stroke-width="4" stroke="rgb(165,195,238)" stroke-linejoin="miter" stroke-linecap="round" stroke-miterlimit="3"/><path d=" M 265.903 34.982 L 265.903 34.982 Q 273.403 34.982 277.423 38.552 L 277.423 38.552 L 277.423 38.552 Q 281.443 42.122 281.443 49.322 L 281.443 49.322 L 281.443 67.742 L 272.683 67.742 L 272.683 63.722 L 272.683 63.722 Q 270.043 68.222 262.843 68.222 L 262.843 68.222 L 262.843 68.222 Q 259.123 68.222 256.393 66.962 L 256.393 66.962 L 256.393 66.962 Q 253.663 65.702 252.223 63.482 L 252.223 63.482 L 252.223 63.482 Q 250.783 61.262 250.783 58.442 L 250.783 58.442 L 250.783 58.442 Q 250.783 53.942 254.173 51.362 L 254.173 51.362 L 254.173 51.362 Q 257.563 48.782 264.643 48.782 L 264.643 48.782 L 272.083 48.782 L 272.083 48.782 Q 272.083 45.722 270.223 44.072 L 270.223 44.072 L 270.223 44.072 Q 268.363 42.422 264.643 42.422 L 264.643 42.422 L 264.643 42.422 Q 262.063 42.422 259.573 43.232 L 259.573 43.232 L 259.573 43.232 Q 257.083 44.042 255.343 45.422 L 255.343 45.422 L 251.983 38.882 L 251.983 38.882 Q 254.623 37.022 258.313 36.002 L 258.313 36.002 L 258.313 36.002 Q 262.003 34.982 265.903 34.982 L 265.903 34.982 Z  M 265.183 61.922 L 265.183 61.922 Q 267.583 61.922 269.443 60.812 L 269.443 60.812 L 269.443 60.812 Q 271.303 59.702 272.083 57.542 L 272.083 57.542 L 272.083 54.242 L 265.663 54.242 L 265.663 54.242 Q 259.903 54.242 259.903 58.022 L 259.903 58.022 L 259.903 58.022 Q 259.903 59.822 261.313 60.872 L 261.313 60.872 L 261.313 60.872 Q 262.723 61.922 265.183 61.922 L 265.183 61.922 Z " fill-rule="evenodd" fill="none" vector-effect="non-scaling-stroke" stroke-width="1" stroke="rgb(0,0,0)" stroke-linejoin="miter" stroke-linecap="square" stroke-miterlimit="3"/></g><path d=" M 265.903 34.982 L 265.903 34.982 Q 273.403 34.982 277.423 38.552 L 277.423 38.552 L 277.423 38.552 Q 281.443 42.122 281.443 49.322 L 281.443 49.322 L 281.443 67.742 L 272.683 67.742 L 272.683 63.722 L 272.683 63.722 Q 270.043 68.222 262.843 68.222 L 262.843 68.222 L 262.843 68.222 Q 259.123 68.222 256.393 66.962 L 256.393 66.962 L 256.393 66.962 Q 253.663 65.702 252.223 63.482 L 252.223 63.482 L 252.223 63.482 Q 250.783 61.262 250.783 58.442 L 250.783 58.442 L 250.783 58.442 Q 250.783 53.942 254.173 51.362 L 254.173 51.362 L 254.173 51.362 Q 257.563 48.782 264.643 48.782 L 264.643 48.782 L 272.083 48.782 L 272.083 48.782 Q 272.083 45.722 270.223 44.072 L 270.223 44.072 L 270.223 44.072 Q 268.363 42.422 264.643 42.422 L 264.643 42.422 L 264.643 42.422 Q 262.063 42.422 259.573 43.232 L 259.573 43.232 L 259.573 43.232 Q 257.083 44.042 255.343 45.422 L 255.343 45.422 L 251.983 38.882 L 251.983 38.882 Q 254.623 37.022 258.313 36.002 L 258.313 36.002 L 258.313 36.002 Q 262.003 34.982 265.903 34.982 L 265.903 34.982 Z  M 265.183 61.922 L 265.183 61.922 Q 267.583 61.922 269.443 60.812 L 269.443 60.812 L 269.443 60.812 Q 271.303 59.702 272.083 57.542 L 272.083 57.542 L 272.083 54.242 L 265.663 54.242 L 265.663 54.242 Q 259.903 54.242 259.903 58.022 L 259.903 58.022 L 259.903 58.022 Q 259.903 59.822 261.313 60.872 L 261.313 60.872 L 261.313 60.872 Q 262.723 61.922 265.183 61.922 L 265.183 61.922 Z " fill-rule="evenodd" fill="none"/><linearGradient id="_lgradient_65" x1="0" y1="0.5" x2="1" y2="0.5" gradientTransform="matrix(20.04,0,0,32.76,288.573,47.322)" gradientUnits="userSpaceOnUse"><stop offset="1.7391304347826086%" stop-opacity="1" style="stop-color:rgb(113,108,108)"/><stop offset="33.04347826086956%" stop-opacity="1" style="stop-color:rgb(0,0,0)"/></linearGradient><path d=" M 297.513 52.062 L 297.513 52.062 Q 299.193 49.722 302.043 48.522 L 302.043 48.522 L 302.043 48.522 Q 304.893 47.322 308.613 47.322 L 308.613 47.322 L 308.613 55.962 L 308.613 55.962 Q 307.053 55.842 306.513 55.842 L 306.513 55.842 L 306.513 55.842 Q 302.493 55.842 300.213 58.092 L 300.213 58.092 L 300.213 58.092 Q 297.933 60.342 297.933 64.842 L 297.933 64.842 L 297.933 80.082 L 288.573 80.082 L 288.573 47.802 L 297.513 47.802 L 297.513 52.062 Z " fill-rule="evenodd" fill="url(#_lgradient_65)"/><g style="isolation: isolate;"><mask id="_mask_TwPGbztt1ohWiVJdfzeq9iWAy9w1lPFB" x="-200%" y="-200%" width="400%" height="400%"><rect x="-200%" y="-200%" width="400%" height="400%" style="fill:white;"/><path d=" M 297.513 52.062 L 297.513 52.062 Q 299.193 49.722 302.043 48.522 L 302.043 48.522 L 302.043 48.522 Q 304.893 47.322 308.613 47.322 L 308.613 47.322 L 308.613 55.962 L 308.613 55.962 Q 307.053 55.842 306.513 55.842 L 306.513 55.842 L 306.513 55.842 Q 302.493 55.842 300.213 58.092 L 300.213 58.092 L 300.213 58.092 Q 297.933 60.342 297.933 64.842 L 297.933 64.842 L 297.933 80.082 L 288.573 80.082 L 288.573 47.802 L 297.513 47.802 L 297.513 52.062 Z " fill-rule="evenodd" fill="black" stroke="none"/></mask><path d=" M 297.513 52.062 L 297.513 52.062 Q 299.193 49.722 302.043 48.522 L 302.043 48.522 L 302.043 48.522 Q 304.893 47.322 308.613 47.322 L 308.613 47.322 L 308.613 55.962 L 308.613 55.962 Q 307.053 55.842 306.513 55.842 L 306.513 55.842 L 306.513 55.842 Q 302.493 55.842 300.213 58.092 L 300.213 58.092 L 300.213 58.092 Q 297.933 60.342 297.933 64.842 L 297.933 64.842 L 297.933 80.082 L 288.573 80.082 L 288.573 47.802 L 297.513 47.802 L 297.513 52.062 Z " fill-rule="evenodd" fill="none" mask="url(#_mask_TwPGbztt1ohWiVJdfzeq9iWAy9w1lPFB)" vector-effect="non-scaling-stroke" stroke-width="4" stroke="rgb(165,195,238)" stroke-linejoin="miter" stroke-linecap="round" stroke-miterlimit="3"/><path d=" M 297.513 52.062 L 297.513 52.062 Q 299.193 49.722 302.043 48.522 L 302.043 48.522 L 302.043 48.522 Q 304.893 47.322 308.613 47.322 L 308.613 47.322 L 308.613 55.962 L 308.613 55.962 Q 307.053 55.842 306.513 55.842 L 306.513 55.842 L 306.513 55.842 Q 302.493 55.842 300.213 58.092 L 300.213 58.092 L 300.213 58.092 Q 297.933 60.342 297.933 64.842 L 297.933 64.842 L 297.933 80.082 L 288.573 80.082 L 288.573 47.802 L 297.513 47.802 L 297.513 52.062 Z " fill-rule="evenodd" fill="none" vector-effect="non-scaling-stroke" stroke-width="1" stroke="rgb(0,0,0)" stroke-linejoin="miter" stroke-linecap="square" stroke-miterlimit="3"/></g><path d=" M 297.513 52.062 L 297.513 52.062 Q 299.193 49.722 302.043 48.522 L 302.043 48.522 L 302.043 48.522 Q 304.893 47.322 308.613 47.322 L 308.613 47.322 L 308.613 55.962 L 308.613 55.962 Q 307.053 55.842 306.513 55.842 L 306.513 55.842 L 306.513 55.842 Q 302.493 55.842 300.213 58.092 L 300.213 58.092 L 300.213 58.092 Q 297.933 60.342 297.933 64.842 L 297.933 64.842 L 297.933 80.082 L 288.573 80.082 L 288.573 47.802 L 297.513 47.802 L 297.513 52.062 Z " fill-rule="evenodd" fill="none"/><linearGradient id="_lgradient_66" x1="0" y1="0.5" x2="1" y2="0.5" gradientTransform="matrix(9.36,0,0,32.28,316.146,36.462)" gradientUnits="userSpaceOnUse"><stop offset="1.7391304347826086%" stop-opacity="1" style="stop-color:rgb(113,108,108)"/><stop offset="33.04347826086956%" stop-opacity="1" style="stop-color:rgb(0,0,0)"/></linearGradient><path d=" M 316.146 68.742 L 316.146 36.462 L 325.506 36.462 L 325.506 68.742 L 316.146 68.742 Z " fill-rule="evenodd" fill="url(#_lgradient_66)"/><g style="isolation: isolate;"><mask id="_mask_FxOpLvv4hZlugfv95Ki54NYDuXHnuLLB" x="-200%" y="-200%" width="400%" height="400%"><rect x="-200%" y="-200%" width="400%" height="400%" style="fill:white;"/><path d=" M 316.146 68.742 L 316.146 36.462 L 325.506 36.462 L 325.506 68.742 L 316.146 68.742 Z " fill-rule="evenodd" fill="black" stroke="none"/></mask><path d=" M 316.146 68.742 L 316.146 36.462 L 325.506 36.462 L 325.506 68.742 L 316.146 68.742 Z " fill-rule="evenodd" fill="none" mask="url(#_mask_FxOpLvv4hZlugfv95Ki54NYDuXHnuLLB)" vector-effect="non-scaling-stroke" stroke-width="4" stroke="rgb(165,195,238)" stroke-linejoin="miter" stroke-linecap="round" stroke-miterlimit="3"/><path d=" M 316.146 68.742 L 316.146 36.462 L 325.506 36.462 L 325.506 68.742 L 316.146 68.742 Z " fill-rule="evenodd" fill="none" vector-effect="non-scaling-stroke" stroke-width="1" stroke="rgb(0,0,0)" stroke-linejoin="miter" stroke-linecap="square" stroke-miterlimit="3"/></g><path d=" M 316.146 68.742 L 316.146 36.462 L 325.506 36.462 L 325.506 68.742 L 316.146 68.742 Z " fill-rule="evenodd" fill="none"/><linearGradient id="_lgradient_67" x1="0" y1="0.5" x2="1" y2="0.5" gradientTransform="matrix(11.64,0,0,10.44,315.006,23.225)" gradientUnits="userSpaceOnUse"><stop offset="1.7391304347826086%" stop-opacity="1" style="stop-color:rgb(113,108,108)"/><stop offset="33.04347826086956%" stop-opacity="1" style="stop-color:rgb(0,0,0)"/></linearGradient><path d=" M 320.826 33.665 L 320.826 33.665 Q 318.246 33.665 316.626 32.165 L 316.626 32.165 L 316.626 32.165 Q 315.006 30.665 315.006 28.445 L 315.006 28.445 L 315.006 28.445 Q 315.006 26.225 316.626 24.725 L 316.626 24.725 L 316.626 24.725 Q 318.246 23.225 320.826 23.225 L 320.826 23.225 L 320.826 23.225 Q 323.406 23.225 325.026 24.665 L 325.026 24.665 L 325.026 24.665 Q 326.646 26.105 326.646 28.265 L 326.646 28.265 L 326.646 28.265 Q 326.646 30.605 325.026 32.135 L 325.026 32.135 L 325.026 32.135 Q 323.406 33.665 320.826 33.665 L 320.826 33.665 Z " fill-rule="evenodd" fill="url(#_lgradient_67)"/><g style="isolation: isolate;"><mask id="_mask_PSNk8si0INkY3Hk9PE1OTqTceqYm4CU1" x="-200%" y="-200%" width="400%" height="400%"><rect x="-200%" y="-200%" width="400%" height="400%" style="fill:white;"/><path d=" M 320.826 33.665 L 320.826 33.665 Q 318.246 33.665 316.626 32.165 L 316.626 32.165 L 316.626 32.165 Q 315.006 30.665 315.006 28.445 L 315.006 28.445 L 315.006 28.445 Q 315.006 26.225 316.626 24.725 L 316.626 24.725 L 316.626 24.725 Q 318.246 23.225 320.826 23.225 L 320.826 23.225 L 320.826 23.225 Q 323.406 23.225 325.026 24.665 L 325.026 24.665 L 325.026 24.665 Q 326.646 26.105 326.646 28.265 L 326.646 28.265 L 326.646 28.265 Q 326.646 30.605 325.026 32.135 L 325.026 32.135 L 325.026 32.135 Q 323.406 33.665 320.826 33.665 L 320.826 33.665 Z " fill-rule="evenodd" fill="black" stroke="none"/></mask><path d=" M 320.826 33.665 L 320.826 33.665 Q 318.246 33.665 316.626 32.165 L 316.626 32.165 L 316.626 32.165 Q 315.006 30.665 315.006 28.445 L 315.006 28.445 L 315.006 28.445 Q 315.006 26.225 316.626 24.725 L 316.626 24.725 L 316.626 24.725 Q 318.246 23.225 320.826 23.225 L 320.826 23.225 L 320.826 23.225 Q 323.406 23.225 325.026 24.665 L 325.026 24.665 L 325.026 24.665 Q 326.646 26.105 326.646 28.265 L 326.646 28.265 L 326.646 28.265 Q 326.646 30.605 325.026 32.135 L 325.026 32.135 L 325.026 32.135 Q 323.406 33.665 320.826 33.665 L 320.826 33.665 Z " fill-rule="evenodd" fill="none" mask="url(#_mask_PSNk8si0INkY3Hk9PE1OTqTceqYm4CU1)" vector-effect="non-scaling-stroke" stroke-width="4" stroke="rgb(165,195,238)" stroke-linejoin="miter" stroke-linecap="round" stroke-miterlimit="3"/><path d=" M 320.826 33.665 L 320.826 33.665 Q 318.246 33.665 316.626 32.165 L 316.626 32.165 L 316.626 32.165 Q 315.006 30.665 315.006 28.445 L 315.006 28.445 L 315.006 28.445 Q 315.006 26.225 316.626 24.725 L 316.626 24.725 L 316.626 24.725 Q 318.246 23.225 320.826 23.225 L 320.826 23.225 L 320.826 23.225 Q 323.406 23.225 325.026 24.665 L 325.026 24.665 L 325.026 24.665 Q 326.646 26.105 326.646 28.265 L 326.646 28.265 L 326.646 28.265 Q 326.646 30.605 325.026 32.135 L 325.026 32.135 L 325.026 32.135 Q 323.406 33.665 320.826 33.665 L 320.826 33.665 Z " fill-rule="evenodd" fill="none" vector-effect="non-scaling-stroke" stroke-width="1" stroke="rgb(0,0,0)" stroke-linejoin="miter" stroke-linecap="square" stroke-miterlimit="3"/></g><path d=" M 320.826 33.665 L 320.826 33.665 Q 318.246 33.665 316.626 32.165 L 316.626 32.165 L 316.626 32.165 Q 315.006 30.665 315.006 28.445 L 315.006 28.445 L 315.006 28.445 Q 315.006 26.225 316.626 24.725 L 316.626 24.725 L 316.626 24.725 Q 318.246 23.225 320.826 23.225 L 320.826 23.225 L 320.826 23.225 Q 323.406 23.225 325.026 24.665 L 325.026 24.665 L 325.026 24.665 Q 326.646 26.105 326.646 28.265 L 326.646 28.265 L 326.646 28.265 Q 326.646 30.605 325.026 32.135 L 325.026 32.135 L 325.026 32.135 Q 323.406 33.665 320.826 33.665 L 320.826 33.665 Z " fill-rule="evenodd" fill="none"/><linearGradient id="_lgradient_68" x1="0" y1="0.5" x2="1" y2="0.5" gradientTransform="matrix(24.66,0,0,39.9,331.751,47.322)" gradientUnits="userSpaceOnUse"><stop offset="1.7391304347826086%" stop-opacity="1" style="stop-color:rgb(113,108,108)"/><stop offset="33.04347826086956%" stop-opacity="1" style="stop-color:rgb(0,0,0)"/></linearGradient><path d=" M 353.891 78.582 L 356.411 85.182 L 356.411 85.182 Q 355.031 86.202 353.021 86.712 L 353.021 86.712 L 353.021 86.712 Q 351.011 87.222 348.791 87.222 L 348.791 87.222 L 348.791 87.222 Q 343.031 87.222 339.881 84.282 L 339.881 84.282 L 339.881 84.282 Q 336.731 81.342 336.731 75.642 L 336.731 75.642 L 336.731 62.382 L 331.751 62.382 L 331.751 55.182 L 336.731 55.182 L 336.731 47.322 L 346.091 47.322 L 346.091 55.182 L 354.131 55.182 L 354.131 62.382 L 346.091 62.382 L 346.091 75.522 L 346.091 75.522 Q 346.091 77.562 347.141 78.672 L 347.141 78.672 L 347.141 78.672 Q 348.191 79.782 350.111 79.782 L 350.111 79.782 L 350.111 79.782 Q 352.331 79.782 353.891 78.582 L 353.891 78.582 Z " fill-rule="evenodd" fill="url(#_lgradient_68)"/><g style="isolation: isolate;"><mask id="_mask_ZeIZHXbH2pEX53fXO6ZXMiFtL0FpyGl2" x="-200%" y="-200%" width="400%" height="400%"><rect x="-200%" y="-200%" width="400%" height="400%" style="fill:white;"/><path d=" M 353.891 78.582 L 356.411 85.182 L 356.411 85.182 Q 355.031 86.202 353.021 86.712 L 353.021 86.712 L 353.021 86.712 Q 351.011 87.222 348.791 87.222 L 348.791 87.222 L 348.791 87.222 Q 343.031 87.222 339.881 84.282 L 339.881 84.282 L 339.881 84.282 Q 336.731 81.342 336.731 75.642 L 336.731 75.642 L 336.731 62.382 L 331.751 62.382 L 331.751 55.182 L 336.731 55.182 L 336.731 47.322 L 346.091 47.322 L 346.091 55.182 L 354.131 55.182 L 354.131 62.382 L 346.091 62.382 L 346.091 75.522 L 346.091 75.522 Q 346.091 77.562 347.141 78.672 L 347.141 78.672 L 347.141 78.672 Q 348.191 79.782 350.111 79.782 L 350.111 79.782 L 350.111 79.782 Q 352.331 79.782 353.891 78.582 L 353.891 78.582 Z " fill-rule="evenodd" fill="black" stroke="none"/></mask><path d=" M 353.891 78.582 L 356.411 85.182 L 356.411 85.182 Q 355.031 86.202 353.021 86.712 L 353.021 86.712 L 353.021 86.712 Q 351.011 87.222 348.791 87.222 L 348.791 87.222 L 348.791 87.222 Q 343.031 87.222 339.881 84.282 L 339.881 84.282 L 339.881 84.282 Q 336.731 81.342 336.731 75.642 L 336.731 75.642 L 336.731 62.382 L 331.751 62.382 L 331.751 55.182 L 336.731 55.182 L 336.731 47.322 L 346.091 47.322 L 346.091 55.182 L 354.131 55.182 L 354.131 62.382 L 346.091 62.382 L 346.091 75.522 L 346.091 75.522 Q 346.091 77.562 347.141 78.672 L 347.141 78.672 L 347.141 78.672 Q 348.191 79.782 350.111 79.782 L 350.111 79.782 L 350.111 79.782 Q 352.331 79.782 353.891 78.582 L 353.891 78.582 Z " fill-rule="evenodd" fill="none" mask="url(#_mask_ZeIZHXbH2pEX53fXO6ZXMiFtL0FpyGl2)" vector-effect="non-scaling-stroke" stroke-width="4" stroke="rgb(165,195,238)" stroke-linejoin="miter" stroke-linecap="round" stroke-miterlimit="3"/><path d=" M 353.891 78.582 L 356.411 85.182 L 356.411 85.182 Q 355.031 86.202 353.021 86.712 L 353.021 86.712 L 353.021 86.712 Q 351.011 87.222 348.791 87.222 L 348.791 87.222 L 348.791 87.222 Q 343.031 87.222 339.881 84.282 L 339.881 84.282 L 339.881 84.282 Q 336.731 81.342 336.731 75.642 L 336.731 75.642 L 336.731 62.382 L 331.751 62.382 L 331.751 55.182 L 336.731 55.182 L 336.731 47.322 L 346.091 47.322 L 346.091 55.182 L 354.131 55.182 L 354.131 62.382 L 346.091 62.382 L 346.091 75.522 L 346.091 75.522 Q 346.091 77.562 347.141 78.672 L 347.141 78.672 L 347.141 78.672 Q 348.191 79.782 350.111 79.782 L 350.111 79.782 L 350.111 79.782 Q 352.331 79.782 353.891 78.582 L 353.891 78.582 Z " fill-rule="evenodd" fill="none" vector-effect="non-scaling-stroke" stroke-width="1" stroke="rgb(0,0,0)" stroke-linejoin="miter" stroke-linecap="square" stroke-miterlimit="3"/></g><path d=" M 353.891 78.582 L 356.411 85.182 L 356.411 85.182 Q 355.031 86.202 353.021 86.712 L 353.021 86.712 L 353.021 86.712 Q 351.011 87.222 348.791 87.222 L 348.791 87.222 L 348.791 87.222 Q 343.031 87.222 339.881 84.282 L 339.881 84.282 L 339.881 84.282 Q 336.731 81.342 336.731 75.642 L 336.731 75.642 L 336.731 62.382 L 331.751 62.382 L 331.751 55.182 L 336.731 55.182 L 336.731 47.322 L 346.091 47.322 L 346.091 55.182 L 354.131 55.182 L 354.131 62.382 L 346.091 62.382 L 346.091 75.522 L 346.091 75.522 Q 346.091 77.562 347.141 78.672 L 347.141 78.672 L 347.141 78.672 Q 348.191 79.782 350.111 79.782 L 350.111 79.782 L 350.111 79.782 Q 352.331 79.782 353.891 78.582 L 353.891 78.582 Z " fill-rule="evenodd" fill="none"/><linearGradient id="_lgradient_69" x1="0" y1="0.5" x2="1" y2="0.5" gradientTransform="matrix(35.46,0,0,33.24,359.44,35.982)" gradientUnits="userSpaceOnUse"><stop offset="1.7391304347826086%" stop-opacity="1" style="stop-color:rgb(113,108,108)"/><stop offset="33.04347826086956%" stop-opacity="1" style="stop-color:rgb(0,0,0)"/></linearGradient><path d=" M 377.2 69.222 L 377.2 69.222 Q 372.1 69.222 368.05 67.092 L 368.05 67.092 L 368.05 67.092 Q 364 64.962 361.72 61.182 L 361.72 61.182 L 361.72 61.182 Q 359.44 57.402 359.44 52.602 L 359.44 52.602 L 359.44 52.602 Q 359.44 47.802 361.72 44.022 L 361.72 44.022 L 361.72 44.022 Q 364 40.242 368.05 38.112 L 368.05 38.112 L 368.05 38.112 Q 372.1 35.982 377.2 35.982 L 377.2 35.982 L 377.2 35.982 Q 382.3 35.982 386.32 38.112 L 386.32 38.112 L 386.32 38.112 Q 390.34 40.242 392.62 44.022 L 392.62 44.022 L 392.62 44.022 Q 394.9 47.802 394.9 52.602 L 394.9 52.602 L 394.9 52.602 Q 394.9 57.402 392.62 61.182 L 392.62 61.182 L 392.62 61.182 Q 390.34 64.962 386.32 67.092 L 386.32 67.092 L 386.32 67.092 Q 382.3 69.222 377.2 69.222 L 377.2 69.222 Z  M 377.2 61.542 L 377.2 61.542 Q 380.8 61.542 383.11 59.112 L 383.11 59.112 L 383.11 59.112 Q 385.42 56.682 385.42 52.602 L 385.42 52.602 L 385.42 52.602 Q 385.42 48.522 383.11 46.092 L 383.11 46.092 L 383.11 46.092 Q 380.8 43.662 377.2 43.662 L 377.2 43.662 L 377.2 43.662 Q 373.6 43.662 371.26 46.092 L 371.26 46.092 L 371.26 46.092 Q 368.92 48.522 368.92 52.602 L 368.92 52.602 L 368.92 52.602 Q 368.92 56.682 371.26 59.112 L 371.26 59.112 L 371.26 59.112 Q 373.6 61.542 377.2 61.542 L 377.2 61.542 Z " fill-rule="evenodd" fill="url(#_lgradient_69)"/><g style="isolation: isolate;"><mask id="_mask_6dQR95hykjl6cfmtETeFet30MbW8QzjE" x="-200%" y="-200%" width="400%" height="400%"><rect x="-200%" y="-200%" width="400%" height="400%" style="fill:white;"/><path d=" M 377.2 69.222 L 377.2 69.222 Q 372.1 69.222 368.05 67.092 L 368.05 67.092 L 368.05 67.092 Q 364 64.962 361.72 61.182 L 361.72 61.182 L 361.72 61.182 Q 359.44 57.402 359.44 52.602 L 359.44 52.602 L 359.44 52.602 Q 359.44 47.802 361.72 44.022 L 361.72 44.022 L 361.72 44.022 Q 364 40.242 368.05 38.112 L 368.05 38.112 L 368.05 38.112 Q 372.1 35.982 377.2 35.982 L 377.2 35.982 L 377.2 35.982 Q 382.3 35.982 386.32 38.112 L 386.32 38.112 L 386.32 38.112 Q 390.34 40.242 392.62 44.022 L 392.62 44.022 L 392.62 44.022 Q 394.9 47.802 394.9 52.602 L 394.9 52.602 L 394.9 52.602 Q 394.9 57.402 392.62 61.182 L 392.62 61.182 L 392.62 61.182 Q 390.34 64.962 386.32 67.092 L 386.32 67.092 L 386.32 67.092 Q 382.3 69.222 377.2 69.222 L 377.2 69.222 Z  M 377.2 61.542 L 377.2 61.542 Q 380.8 61.542 383.11 59.112 L 383.11 59.112 L 383.11 59.112 Q 385.42 56.682 385.42 52.602 L 385.42 52.602 L 385.42 52.602 Q 385.42 48.522 383.11 46.092 L 383.11 46.092 L 383.11 46.092 Q 380.8 43.662 377.2 43.662 L 377.2 43.662 L 377.2 43.662 Q 373.6 43.662 371.26 46.092 L 371.26 46.092 L 371.26 46.092 Q 368.92 48.522 368.92 52.602 L 368.92 52.602 L 368.92 52.602 Q 368.92 56.682 371.26 59.112 L 371.26 59.112 L 371.26 59.112 Q 373.6 61.542 377.2 61.542 L 377.2 61.542 Z " fill-rule="evenodd" fill="black" stroke="none"/></mask><path d=" M 377.2 69.222 L 377.2 69.222 Q 372.1 69.222 368.05 67.092 L 368.05 67.092 L 368.05 67.092 Q 364 64.962 361.72 61.182 L 361.72 61.182 L 361.72 61.182 Q 359.44 57.402 359.44 52.602 L 359.44 52.602 L 359.44 52.602 Q 359.44 47.802 361.72 44.022 L 361.72 44.022 L 361.72 44.022 Q 364 40.242 368.05 38.112 L 368.05 38.112 L 368.05 38.112 Q 372.1 35.982 377.2 35.982 L 377.2 35.982 L 377.2 35.982 Q 382.3 35.982 386.32 38.112 L 386.32 38.112 L 386.32 38.112 Q 390.34 40.242 392.62 44.022 L 392.62 44.022 L 392.62 44.022 Q 394.9 47.802 394.9 52.602 L 394.9 52.602 L 394.9 52.602 Q 394.9 57.402 392.62 61.182 L 392.62 61.182 L 392.62 61.182 Q 390.34 64.962 386.32 67.092 L 386.32 67.092 L 386.32 67.092 Q 382.3 69.222 377.2 69.222 L 377.2 69.222 Z  M 377.2 61.542 L 377.2 61.542 Q 380.8 61.542 383.11 59.112 L 383.11 59.112 L 383.11 59.112 Q 385.42 56.682 385.42 52.602 L 385.42 52.602 L 385.42 52.602 Q 385.42 48.522 383.11 46.092 L 383.11 46.092 L 383.11 46.092 Q 380.8 43.662 377.2 43.662 L 377.2 43.662 L 377.2 43.662 Q 373.6 43.662 371.26 46.092 L 371.26 46.092 L 371.26 46.092 Q 368.92 48.522 368.92 52.602 L 368.92 52.602 L 368.92 52.602 Q 368.92 56.682 371.26 59.112 L 371.26 59.112 L 371.26 59.112 Q 373.6 61.542 377.2 61.542 L 377.2 61.542 Z " fill-rule="evenodd" fill="none" mask="url(#_mask_6dQR95hykjl6cfmtETeFet30MbW8QzjE)" vector-effect="non-scaling-stroke" stroke-width="4" stroke="rgb(165,195,238)" stroke-linejoin="miter" stroke-linecap="round" stroke-miterlimit="3"/><path d=" M 377.2 69.222 L 377.2 69.222 Q 372.1 69.222 368.05 67.092 L 368.05 67.092 L 368.05 67.092 Q 364 64.962 361.72 61.182 L 361.72 61.182 L 361.72 61.182 Q 359.44 57.402 359.44 52.602 L 359.44 52.602 L 359.44 52.602 Q 359.44 47.802 361.72 44.022 L 361.72 44.022 L 361.72 44.022 Q 364 40.242 368.05 38.112 L 368.05 38.112 L 368.05 38.112 Q 372.1 35.982 377.2 35.982 L 377.2 35.982 L 377.2 35.982 Q 382.3 35.982 386.32 38.112 L 386.32 38.112 L 386.32 38.112 Q 390.34 40.242 392.62 44.022 L 392.62 44.022 L 392.62 44.022 Q 394.9 47.802 394.9 52.602 L 394.9 52.602 L 394.9 52.602 Q 394.9 57.402 392.62 61.182 L 392.62 61.182 L 392.62 61.182 Q 390.34 64.962 386.32 67.092 L 386.32 67.092 L 386.32 67.092 Q 382.3 69.222 377.2 69.222 L 377.2 69.222 Z  M 377.2 61.542 L 377.2 61.542 Q 380.8 61.542 383.11 59.112 L 383.11 59.112 L 383.11 59.112 Q 385.42 56.682 385.42 52.602 L 385.42 52.602 L 385.42 52.602 Q 385.42 48.522 383.11 46.092 L 383.11 46.092 L 383.11 46.092 Q 380.8 43.662 377.2 43.662 L 377.2 43.662 L 377.2 43.662 Q 373.6 43.662 371.26 46.092 L 371.26 46.092 L 371.26 46.092 Q 368.92 48.522 368.92 52.602 L 368.92 52.602 L 368.92 52.602 Q 368.92 56.682 371.26 59.112 L 371.26 59.112 L 371.26 59.112 Q 373.6 61.542 377.2 61.542 L 377.2 61.542 Z " fill-rule="evenodd" fill="none" vector-effect="non-scaling-stroke" stroke-width="1" stroke="rgb(0,0,0)" stroke-linejoin="miter" stroke-linecap="square" stroke-miterlimit="3"/></g><path d=" M 377.2 69.222 L 377.2 69.222 Q 372.1 69.222 368.05 67.092 L 368.05 67.092 L 368.05 67.092 Q 364 64.962 361.72 61.182 L 361.72 61.182 L 361.72 61.182 Q 359.44 57.402 359.44 52.602 L 359.44 52.602 L 359.44 52.602 Q 359.44 47.802 361.72 44.022 L 361.72 44.022 L 361.72 44.022 Q 364 40.242 368.05 38.112 L 368.05 38.112 L 368.05 38.112 Q 372.1 35.982 377.2 35.982 L 377.2 35.982 L 377.2 35.982 Q 382.3 35.982 386.32 38.112 L 386.32 38.112 L 386.32 38.112 Q 390.34 40.242 392.62 44.022 L 392.62 44.022 L 392.62 44.022 Q 394.9 47.802 394.9 52.602 L 394.9 52.602 L 394.9 52.602 Q 394.9 57.402 392.62 61.182 L 392.62 61.182 L 392.62 61.182 Q 390.34 64.962 386.32 67.092 L 386.32 67.092 L 386.32 67.092 Q 382.3 69.222 377.2 69.222 L 377.2 69.222 Z  M 377.2 61.542 L 377.2 61.542 Q 380.8 61.542 383.11 59.112 L 383.11 59.112 L 383.11 59.112 Q 385.42 56.682 385.42 52.602 L 385.42 52.602 L 385.42 52.602 Q 385.42 48.522 383.11 46.092 L 383.11 46.092 L 383.11 46.092 Q 380.8 43.662 377.2 43.662 L 377.2 43.662 L 377.2 43.662 Q 373.6 43.662 371.26 46.092 L 371.26 46.092 L 371.26 46.092 Q 368.92 48.522 368.92 52.602 L 368.92 52.602 L 368.92 52.602 Q 368.92 56.682 371.26 59.112 L 371.26 59.112 L 371.26 59.112 Q 373.6 61.542 377.2 61.542 L 377.2 61.542 Z " fill-rule="evenodd" fill="none"/></g></svg>