<?xml version="1.0" encoding="iso-8859-1"?>
<!-- Generator: Adobe Illustrator 19.0.0, SVG Export Plug-In . SVG Version: 6.00 Build 0)  -->
<svg version="1.1" id="Layer_1" xmlns="http://www.w3.org/2000/svg" xmlns:xlink="http://www.w3.org/1999/xlink" x="0px" y="0px"
	 viewBox="0 0 511.991 511.991" style="enable-background:new 0 0 511.991 511.991;" xml:space="preserve">
<path style="fill:#ED5564;" d="M107.498,115.498c-1-1.5-35.499-30.5-35.499-30.5l-31.5,9.5l-20,19.5l-8.5,26.499v49.999l38.5,40.999
	l-5,220.496l15,14l18-6.5l3.5-26l1.499-199.496l25.5-36.499l3.5-44.999C112.498,152.497,108.498,116.998,107.498,115.498z"/>
<polygon style="fill:#F5F7FA;" points="459.991,101.998 459.991,90.998 221.996,90.998 221.996,106.998 186.668,147.997 
	181.996,441.992 193.996,469.992 485.991,469.992 504.991,451.992 504.991,168.997 "/>
<rect x="186.665" y="194.665" style="fill:#FFCE54;" width="312" height="208.67"/>
<g>
	<path style="fill:#A0D468;" d="M398.993,269.996l-15-18.5l-20-5h-21.328h-20.171c0,0-22.499,2.5-24.999,3s-15,11.5-15,11.5l-8,26.5
		l4,30.499l8.5,27.999l29.999,15l24.327-3.5l21.172-3.5l18.5-7l22.5-24.999l2.5-29.187L398.993,269.996z"/>
	<rect x="200.995" y="42.996" style="fill:#A0D468;" width="285" height="37.999"/>
</g>
<path d="M488.319,123.998c-7.516-9.375-14.938-17.406-18.984-21.656v-6.344h10.656c5.891,0,10.656-4.781,10.656-10.656V42.656
	c0-5.875-4.766-10.656-10.656-10.656h-277.33c-5.891,0-10.664,4.781-10.664,10.656v42.687c0,5.875,4.773,10.656,10.664,10.656
	h10.671v6.344c-4.055,4.25-11.492,12.281-19,21.656c-15.93,19.905-23.671,35.187-23.671,46.655v21.343v213.341v42.654
	c0,17.656,14.359,32,32,32h277.331c17.656,0,31.999-14.344,31.999-32v-42.654V191.997v-21.343
	C511.99,159.184,504.241,143.904,488.319,123.998z M213.332,53.344h256.003v21.312h-10.688h-21.312
	c0-5.875-4.781-10.656-10.687-10.656c-5.875,0-10.656,4.781-10.656,10.656h-21.343c0-5.875-4.766-10.656-10.656-10.656
	s-10.656,4.781-10.656,10.656h-21.344c0-5.875-4.781-10.656-10.656-10.656c-5.906,0-10.687,4.781-10.687,10.656h-21.312
	c0-5.875-4.78-10.656-10.687-10.656c-5.875,0-10.656,4.781-10.656,10.656h-21.336c0-5.875-4.773-10.656-10.664-10.656
	c-5.89,0-10.664,4.781-10.664,10.656h-21.335h-10.664L213.332,53.344L213.332,53.344z M231.535,114.217
	c2.008-2,3.125-4.719,3.125-7.562V95.998h213.332v10.656c0,2.844,1.125,5.562,3.125,7.562c19.016,19.03,39.531,46.03,39.531,56.437
	v10.687H191.996v-10.687C191.996,160.247,212.519,133.247,231.535,114.217z M490.647,394.65H191.996V202.652h298.651V394.65z
	 M479.991,458.648h-277.33c-5.883,0-10.664-4.781-10.664-10.656v-31.999h298.651v31.999
	C490.647,453.867,485.866,458.648,479.991,458.648z"/>
<path d="M63.999,74.656c-17.789,0-34.265,9.374-46.39,26.358C6.25,116.904,0,137.872,0,160.029c0,22.155,6.25,43.108,17.609,58.999
	c5.711,8.016,12.398,14.327,19.726,18.749v215.559c0,14.688,11.961,26.656,26.664,26.656s26.664-11.969,26.664-26.656V237.777
	c7.328-4.422,14.015-10.733,19.726-18.749c11.359-15.891,17.609-36.844,17.609-58.999c0-22.156-6.25-43.124-17.609-59.015
	C98.264,84.029,81.787,74.656,63.999,74.656z M69.335,453.336c0,2.938-2.398,5.312-5.336,5.312c-2.938,0-5.336-2.375-5.336-5.312
	V245.089c1.766,0.188,3.547,0.297,5.336,0.297c1.789,0,3.57-0.109,5.336-0.297V453.336z M93.03,206.652
	c-8.016,11.219-18.328,17.406-29.031,17.406s-21.015-6.188-29.031-17.406c-8.797-12.328-13.632-28.874-13.632-46.624
	s4.835-34.312,13.632-46.624c8.016-11.219,18.328-17.406,29.031-17.406s21.015,6.188,29.031,17.406
	c8.796,12.312,13.632,28.874,13.632,46.624S101.826,194.324,93.03,206.652z"/>
<path d="M327.338,373.338c4.812,0,9.483-0.75,13.999-2.25c4.5,1.5,9.172,2.25,13.969,2.25l0,0c15.844,0,32.031-8.297,44.406-22.75
	c12.108-14.156,19.062-32.624,19.062-50.686c0-17.5-4.953-33.547-13.952-45.188c-9.859-12.75-24.109-19.781-40.141-19.781
	c-0.312,0-0.625,0.031-0.938,0.031c1.219-2.25,2.438-4.453,3.688-6.53c3.031-5.047,1.391-11.594-3.656-14.625
	c-5.062-3.031-11.609-1.391-14.641,3.656c-0.203,0.344-4.984,8.359-9.625,18.39c-0.406,0.859-0.781,1.719-1.156,2.562
	c-6.953-2.312-13.796-3.484-20.374-3.484c-16.03,0-30.28,7.031-40.14,19.781c-9.008,11.625-13.961,27.688-13.961,45.188
	c0,18.062,6.953,36.529,19.086,50.686C295.339,365.041,311.51,373.338,327.338,373.338z M317.978,256.277
	c5.891,0,12.297,1.5,19.046,4.469l4.312,1.891l4.281-1.891c6.75-2.969,13.172-4.469,19.062-4.469
	c16.312,0,32.766,13.484,32.766,43.625c0,13.03-5.078,26.468-13.953,36.811c-8.188,9.562-18.719,15.281-28.188,15.281
	c-3.328,0-6.562-0.688-9.594-2.062l-4.375-1.969l-4.391,1.969c-3.047,1.375-6.265,2.062-9.608,2.062
	c-9.453,0-19.984-5.719-28.187-15.281c-8.859-10.343-13.938-23.78-13.938-36.811C285.214,269.762,301.667,256.277,317.978,256.277z"
	/>
<g>
</g>
<g>
</g>
<g>
</g>
<g>
</g>
<g>
</g>
<g>
</g>
<g>
</g>
<g>
</g>
<g>
</g>
<g>
</g>
<g>
</g>
<g>
</g>
<g>
</g>
<g>
</g>
<g>
</g>
</svg>
