<?xml version="1.0" encoding="iso-8859-1"?>
<!-- Generator: Adobe Illustrator 19.0.0, SVG Export Plug-In . SVG Version: 6.00 Build 0)  -->
<svg version="1.1" id="Layer_1" xmlns="http://www.w3.org/2000/svg" xmlns:xlink="http://www.w3.org/1999/xlink" x="0px" y="0px"
	 viewBox="0 0 511.995 511.995" style="enable-background:new 0 0 511.995 511.995;" xml:space="preserve">
<path style="fill:#F6BB42;" d="M256.065,149.304c-5.891,0-10.671-4.773-10.671-10.664v-21.344c0-5.89,4.781-10.663,10.671-10.663
	c5.89,0,10.672,4.773,10.672,10.663v21.344C266.737,144.53,261.956,149.304,256.065,149.304z"/>
<g>
	<path style="fill:#434A54;" d="M405.976,145.569l-16.219-13.867l13.422-15.695c-3.625-5.405-10.906-14.249-24.094-23.038
		c-19.811-13.234-57.263-29.016-123.021-29.016c-37.023,0-88.701,5.219-124.638,30.109c-12.273,8.5-19.078,16.789-22.5,21.913
		l13.445,15.727l-16.227,13.867l-18.233-21.336c-2.555-2.992-3.258-7.133-1.836-10.796c1.125-2.891,29.124-70.827,169.989-70.827
		c140.864,0,168.864,67.937,169.989,70.827c1.422,3.663,0.719,7.804-1.844,10.796L405.976,145.569z"/>
	<path style="fill:#434A54;" d="M138.692,469.384c-1.859,0-3.742-0.484-5.453-1.5c-5.062-3.016-6.718-9.562-3.703-14.625
		l42.89-72.03c3.016-5.062,9.562-6.719,14.625-3.719c5.062,3.016,6.727,9.562,3.711,14.641l-42.898,72.03
		C145.872,467.524,142.325,469.384,138.692,469.384z"/>
	<path style="fill:#434A54;" d="M373.556,469.384c-3.656,0-7.188-1.859-9.188-5.203l-42.904-72.03
		c-3-5.078-1.344-11.625,3.718-14.641c5.062-3.016,11.609-1.344,14.625,3.719l42.904,72.03c3,5.062,1.344,11.609-3.719,14.625
		C377.273,468.899,375.398,469.384,373.556,469.384z"/>
</g>
<path style="fill:#ED5564;" d="M341.416,106.633c-37.108,0-69.374,21.163-85.351,52.062c-15.976-30.898-48.241-52.062-85.358-52.062
	c-52.944,0-96.021,43.069-96.021,96.021s43.077,96.029,96.021,96.029c37.117,0,69.382-21.171,85.358-52.077
	c15.977,30.906,48.242,52.077,85.351,52.077c52.951,0,96.029-43.077,96.029-96.029S394.367,106.633,341.416,106.633z"/>
<path style="fill:#FFCE54;" d="M405.43,288.012c0,82.498-66.873,149.373-149.364,149.373c-82.499,0-149.373-66.875-149.373-149.373
	S173.567,138.64,256.066,138.64C338.557,138.64,405.43,205.514,405.43,288.012z"/>
<path style="fill:#F6BB42;" d="M256.065,448.056c-42.75,0-82.936-16.655-113.17-46.874c-30.226-30.234-46.875-70.42-46.875-113.17
	c0-42.749,16.648-82.936,46.875-113.169c30.234-30.227,70.42-46.875,113.17-46.875c42.742,0,82.929,16.648,113.162,46.875
	c30.233,30.233,46.874,70.42,46.874,113.169c0,42.75-16.641,82.936-46.874,113.17C338.994,431.4,298.808,448.056,256.065,448.056z
	 M256.065,149.304c-76.483,0-138.701,62.225-138.701,138.708s62.218,138.701,138.701,138.701
	c76.491,0,138.708-62.218,138.708-138.701S332.557,149.304,256.065,149.304z"/>
<g>
	<path style="fill:#434A54;" d="M256.065,298.684c-5.891,0-10.671-4.781-10.671-10.672v-85.357c0-5.891,4.781-10.672,10.671-10.672
		c5.89,0,10.672,4.781,10.672,10.672v85.357C266.737,293.902,261.956,298.684,256.065,298.684z"/>
	<path style="fill:#434A54;" d="M316.417,359.026c-2.734,0-5.453-1.031-7.547-3.125l-60.352-60.343
		c-4.164-4.172-4.164-10.921,0-15.093s10.922-4.172,15.086,0l60.358,60.358c4.156,4.155,4.156,10.921,0,15.077
		C321.87,357.995,319.151,359.026,316.417,359.026z"/>
</g>
<g>
	<path style="fill:#ED5564;" d="M468.148,199.264c-4.828,3.375-6,10.031-2.625,14.858c43.874,62.656,28.593,149.311-34.062,193.185
		c-4.812,3.375-6,10.031-2.625,14.859c3.391,4.828,10.031,6,14.875,2.609c34.999-24.516,58.374-61.202,65.812-103.295
		c7.421-42.108-2-84.577-26.516-119.592C479.616,197.06,472.976,195.889,468.148,199.264z"/>
	<path style="fill:#ED5564;" d="M43.843,199.264c4.828,3.375,6,10.031,2.625,14.858C2.593,276.778,17.874,363.433,80.522,407.307
		c4.828,3.375,6.008,10.031,2.625,14.859s-10.031,6-14.859,2.609C33.273,400.259,9.898,363.573,2.476,321.48
		c-7.43-42.108,1.992-84.577,26.507-119.592C32.366,197.06,39.015,195.889,43.843,199.264z"/>
</g>
<g>
</g>
<g>
</g>
<g>
</g>
<g>
</g>
<g>
</g>
<g>
</g>
<g>
</g>
<g>
</g>
<g>
</g>
<g>
</g>
<g>
</g>
<g>
</g>
<g>
</g>
<g>
</g>
<g>
</g>
</svg>
