<?xml version="1.0" standalone="no"?><!-- Generator: Gravit.io --><svg xmlns="http://www.w3.org/2000/svg" xmlns:xlink="http://www.w3.org/1999/xlink" style="isolation:isolate" viewBox="0 0 26.016 26.947" width="26.016px" height="26.947px"><defs><clipPath id="_clipPath_LJ9jOVKmFJb8OOiippiSHQ8vl2nJxjIW"><rect width="26.016" height="26.947"/></clipPath></defs><g clip-path="url(#_clipPath_LJ9jOVKmFJb8OOiippiSHQ8vl2nJxjIW)"><path d=" M 25.62 24.544 L 19.207 17.874 C 20.856 15.914 21.76 13.447 21.76 10.88 C 21.76 4.881 16.879 0 10.88 0 C 4.881 0 0 4.881 0 10.88 C 0 16.879 4.881 21.76 10.88 21.76 C 13.132 21.76 15.278 21.08 17.113 19.791 L 23.575 26.512 C 23.845 26.792 24.208 26.947 24.598 26.947 C 24.966 26.947 25.316 26.806 25.581 26.551 C 26.145 26.008 26.163 25.109 25.62 24.544 Z  M 10.88 2.838 C 15.314 2.838 18.921 6.446 18.921 10.88 C 18.921 15.314 15.314 18.921 10.88 18.921 C 6.446 18.921 2.838 15.314 2.838 10.88 C 2.838 6.446 6.446 2.838 10.88 2.838 Z " fill="rgb(0,0,0)"/></g></svg>