<?xml version="1.0" encoding="iso-8859-1"?>
<!-- Generator: Adobe Illustrator 19.0.0, SVG Export Plug-In . SVG Version: 6.00 Build 0)  -->
<svg version="1.1" id="Layer_1" xmlns="http://www.w3.org/2000/svg" xmlns:xlink="http://www.w3.org/1999/xlink" x="0px" y="0px"
	 viewBox="0 0 511.99 511.99" style="enable-background:new 0 0 511.99 511.99;" xml:space="preserve">
<polygon style="fill:#A0D468;" points="74.67,212.997 80.998,496.836 101.997,501.992 416.991,496.836 433.991,481.992 
	433.991,212.997 "/>
<g>
	<polygon style="fill:#656D78;" points="141.325,52 93.998,52 96.67,93.999 155.996,56 	"/>
	<polygon style="fill:#656D78;" points="355.992,52 414.663,88.671 414.663,54.672 	"/>
</g>
<polygon style="fill:#FC6E51;" points="385.337,76.016 282.667,56.016 189.324,56.016 114.607,82.515 74.67,127.358 74.67,201.341 
	124.997,231.356 155.996,240.012 221.995,240.012 309.992,243.356 385.337,230.012 414.663,215.356 433.991,195.357 
	433.991,122.015 "/>
<g>
	<polygon style="fill:#FFCE54;" points="358.492,450.492 317.492,431.493 264.495,415.493 220.495,422.493 178.996,434.992 
		146.997,458.742 132.997,501.992 369.992,501.992 372.992,487.492 	"/>
	<rect x="238.015" y="204.326" style="fill:#FFCE54;" width="35.656" height="85.34"/>
</g>
<polygon style="fill:#A0D468;" points="31.749,394.244 31.749,477.492 72.248,472.492 72.248,374.994 "/>
<g>
	<path style="fill:#FC6E51;" d="M73.498,349.744l-41.75,3.25l2.75,32.75c0,0,40.093-12.25,40.171-16.375
		S73.498,349.744,73.498,349.744z"/>
	<polygon style="fill:#FC6E51;" points="475.663,353.666 440.335,349.744 442.335,379.994 482.335,395.666 	"/>
</g>
<polygon style="fill:#A0D468;" points="438.335,383.322 442.663,477.492 476.007,475.664 479.007,397.666 "/>
<path style="fill:#080808;" d="M479.975,341.307h-32V138.655c0-0.984-0.266-23.062-21.328-45.718V53.328
	c0-5.89-4.781-10.671-10.672-10.671h-63.982c-4.969,0-9.125,3.406-10.312,8c-13.891-2.969-29.016-5.125-45.311-6.438
	c-0.625-4.531-1.797-10.234-3.938-15.969C285.588,10.032,272.104,0,254.447,0c-17.718,0-31.218,10.281-38.03,28.968
	c-2,5.531-3.141,11.016-3.797,15.5c-15.156,1.328-29.281,3.391-42.312,6.188c-1.188-4.594-5.344-8-10.312-8H96.014
	c-5.891,0-10.672,4.781-10.672,10.671v39.609c-21.062,22.656-21.328,44.733-21.328,45.718v202.652h-32
	c-5.891,0-10.671,4.781-10.671,10.656V479.96c0,5.891,4.781,10.672,10.671,10.672h34c4.781,12.422,17.703,21.327,32.843,21.327
	h39.218c0.188,0.016,0.391,0.031,0.594,0.031c0.172,0,0.328,0,0.5-0.016c0.062,0,0.125-0.016,0.172-0.016h273.791
	c15.141,0,28.062-8.905,32.844-21.327h34c5.891,0,10.672-4.781,10.672-10.672V351.963
	C490.647,346.088,485.866,341.307,479.975,341.307z M469.303,362.65v14.734l-21.328-10.672v-4.062H469.303z M405.32,75.312
	c-6.438-4.156-13.5-7.938-21.188-11.312h21.188V75.312z M236.62,35.875c4.891-13.031,12.516-14.546,17.828-14.546
	c5.329,0,12.985,1.453,17.844,14c1.016,2.594,1.719,5.219,2.234,7.641c-6.047-0.188-12.219-0.312-18.532-0.312
	c-7.343,0-14.5,0.156-21.468,0.438C235.026,40.782,235.698,38.313,236.62,35.875z M127.856,64
	c-7.687,3.375-14.765,7.156-21.187,11.312V64H127.856z M106.122,102.405c27.515-24.687,73.358-34.218,115.373-37.218
	c0.297,0.031,0.609,0.047,0.922,0.047c0,0,0.016,0,0.031,0c0.812,0,1.609-0.109,2.375-0.266c10.812-0.703,21.328-0.969,31.171-0.969
	c48.844,0,114.499,6.656,149.874,38.405c19.811,17.781,20.748,35.171,20.779,36.343v59.937c-3.328,3.25-11.844,10.062-29.779,16.843
	c-31.406,11.922-72.547,16.734-108.873,18.375v-31.249c0-5.891-4.781-10.656-10.672-10.656h-42.656
	c-5.89,0-10.671,4.766-10.671,10.656v31.39c-36.75-1.516-78.733-6.203-110.029-18.312c-17.64-6.828-25.625-13.64-28.625-16.765
	v-60.218C85.373,137.577,86.31,120.186,106.122,102.405z M245.323,255.934c3,0.031,6.031,0.047,9.125,0.047
	c4.157,0,8.219-0.031,12.219-0.078v21.406h-21.344V255.934z M254.448,234.653c-2.968,0-6.015-0.031-9.125-0.062V213.31h21.344v21.25
	C262.464,234.621,258.37,234.653,254.448,234.653z M64.014,362.65v4.062l-21.343,10.672V362.65H64.014z M42.671,401.228
	l21.343-10.672v78.748H42.671V401.228z M150.325,490.633c1.672-9.281,6.156-23.359,18.078-35.719
	c18.109-18.766,47.483-28.28,87.326-28.28c39.86,0,69.311,9.515,87.545,28.312c12,12.359,16.562,26.422,18.312,35.688H150.325
	V490.633z M413.132,490.633h-29.904c-1.719-12.188-7.188-32.359-24.297-50.188c-22.391-23.327-57.107-35.139-103.202-35.139
	c-46.108,0-80.764,11.827-103.014,35.154c-17,17.812-22.359,37.969-24,50.172H98.857c-7.328,0-13.516-4.891-13.516-10.672V351.963
	V225.622c20.578,12.281,60.983,26.75,138.654,29.78v32.578c0,5.891,4.781,10.672,10.671,10.672h42.656
	c5.891,0,10.672-4.781,10.672-10.672v-32.703c77.436-3.328,118.014-18.031,138.652-30.187v126.872V479.96
	C426.647,485.742,420.46,490.633,413.132,490.633z M447.975,469.305v-78.748l21.328,10.672v68.076L447.975,469.305L447.975,469.305z
	"/>
<g>
</g>
<g>
</g>
<g>
</g>
<g>
</g>
<g>
</g>
<g>
</g>
<g>
</g>
<g>
</g>
<g>
</g>
<g>
</g>
<g>
</g>
<g>
</g>
<g>
</g>
<g>
</g>
<g>
</g>
</svg>
