<?xml version="1.0" encoding="iso-8859-1"?>
<!-- Generator: Adobe Illustrator 19.0.0, SVG Export Plug-In . SVG Version: 6.00 Build 0)  -->
<svg version="1.1" id="Layer_1" xmlns="http://www.w3.org/2000/svg" xmlns:xlink="http://www.w3.org/1999/xlink" x="0px" y="0px"
	 viewBox="0 0 511.99 511.99" style="enable-background:new 0 0 511.99 511.99;" xml:space="preserve">
<polygon style="fill:#A0D468;" points="465.245,427.992 445.901,402.993 396.575,381.321 357.247,362.321 290.249,371.665 
	232.577,376.321 216.906,371.665 172.391,364.524 126.908,374.321 85.244,395.321 52.581,415.32 45.581,456.663 42.581,500.319 
	473.245,505.663 "/>
<g>
	<path style="fill:#8CC153;" d="M345.997,368.993l-32.999-38.499l-11.749,25.749l-22,94.998l7,30.25l53.248-54.999
		c0,0-7.75-15-8.75-16.5c-0.999-1.5,11.75-19.249,11.75-19.249L345.997,368.993z"/>
	<polygon style="fill:#8CC153;" points="223.492,405.993 197.742,330.494 161.243,379.493 176.743,404.243 173.493,427.742 
		210.992,466.241 237.491,485.991 	"/>
</g>
<polygon style="fill:#ED5564;" points="219.242,377.665 237.491,442.991 246.577,495.319 267.905,496.663 283.499,432.882 
	288.249,377.665 "/>
<g>
	<polygon style="fill:#434A54;" points="188.242,317.666 144.243,270.011 127.243,187.34 103.244,184.012 86.908,292.667 
		64.909,319.666 85.908,332.009 126.908,345.665 256.905,350.727 234.577,348.009 	"/>
	<polygon style="fill:#434A54;" points="261.905,351.337 262.647,350.946 256.905,350.727 	"/>
	<polygon style="fill:#434A54;" points="425.574,278.667 400.903,154.669 384.903,152.341 386.247,190.012 354.575,281.011 
		310.576,326.01 262.647,350.946 349.575,354.337 397.903,337.009 443.573,315.666 	"/>
</g>
<polygon style="fill:#656D78;" points="383.747,67.499 328.748,25.499 273.749,11 201.742,17 146.743,48.499 115.744,116.498 
	102.244,173.497 107.439,184.59 145.743,179.496 188.742,155.497 222.742,132.497 262.647,107.998 279.249,97.795 340.247,133.997 
	407.246,147.997 "/>
<polygon style="fill:#EAC6BB;" points="282.577,104.201 268.811,104.201 224.578,144.669 138.595,192.121 138.595,242.542 
	160.907,273.995 210.726,332.399 219.242,377.665 295.905,377.665 295.905,339.321 345.997,289.792 378.575,207.324 
	378.575,152.341 "/>
<g>
	<polygon style="fill:#4FC2E9;" points="234.991,178.746 213.492,169.247 184.492,169.247 163.493,175.497 156.993,184.012 
		156.993,207.996 172.243,214.996 228.492,214.996 238.991,197.246 	"/>
	<path style="fill:#4FC2E9;" d="M346.747,176.747c-1-1-12-5.25-13-4.875s-33.248-2.625-33.248-2.625l-23.25,5.25L276,192.122
		c0,0,3,15.875,2.75,16.875s7,4,7,4l38.499,7.75l26.749-17v-11.625C350.997,192.121,347.747,177.747,346.747,176.747z"/>
</g>
<path d="M438.886,386.352l-1.828-0.516c-26.468-7.125-35.404-13.938-47.186-18.438c-9.062-3.438-16.688-6.688-23.062-9.703
	c16.5-2.797,31.531-6.312,44.999-10.547c30.218-9.516,41.437-19.39,42.624-20.483l8.875-8.203l-9.25-7.781
	c-22.749-19.124-27.171-63.405-31.843-110.279c-4.625-46.375-9.406-94.311-31.249-132.81C365.278,22.281,321.139,0.172,255.968,0
	C190.859,0.172,146.72,22.281,121.025,67.593c-21.828,38.499-26.609,86.436-31.234,132.81c-4.68,46.874-9.094,91.155-31.843,110.279
	l-9.258,7.781l8.875,8.203c1.18,1.094,12.414,10.968,42.624,20.483c13.469,4.234,28.491,7.75,44.999,10.547
	c-6.383,3.016-13.992,6.266-23.054,9.703c-11.781,4.5-20.734,11.312-47.202,18.438l-1.82,0.516
	c-24.094,7.969-40.305,30.312-40.305,55.529v70.108h223.191h223.184v-70.108C479.183,416.664,462.979,394.321,438.886,386.352z
	 M341.934,381.993l-16.749,16.094c-3.578,3.438-4.312,8.875-1.781,13.14l8.093,13.609l-45.576,43.218l30.546-121.873
	c3.156,5.312,7.984,10.219,13.812,14.719L341.934,381.993z M255.999,490.647h-2.258l-24.96-99.592
	c8.499,2.375,17.702,3.609,27.03,3.609c9.43,0,18.781-1.266,27.438-3.672l-24.992,99.654h-2.258V490.647z M186.82,398.087
	l-16.757-16.094l11.663-21.094c5.82-4.5,10.656-9.406,13.812-14.719l30.57,121.998l-45.633-43.108l8.148-13.891
	C191.125,406.915,190.375,401.509,186.82,398.087z M271.694,117.81c2.727-2.469,5.367-4.938,7.961-7.406
	c16.547,12.469,48.905,33.734,88.311,43.952c2.094,8.625,3.438,17.641,3.969,26.984h-4.844
	c-3.094-15.421-15.062-26.671-52.39-26.671c-37.312,0-49.296,11.25-52.397,26.671h-12.992c-2.305-11.453-9.508-20.593-28.343-24.562
	C238.046,145.935,255.022,132.904,271.694,117.81z M346.716,191.996c0,9.25-0.875,10.812-1.156,11.062
	c-0.188,0.203-5.406,4.937-30.858,4.937s-30.655-4.734-30.858-4.937c-0.281-0.25-1.141-1.812-1.141-11.062
	c0-8.281,1.672-9.781,2.391-10.406c1.5-1.312,8.016-5.593,29.608-5.593c21.608,0,28.124,4.281,29.608,5.593
	C345.028,182.215,346.716,183.715,346.716,191.996z M196.914,175.997c21.602,0,28.117,4.281,29.602,5.593
	c0.719,0.625,2.398,2.125,2.398,10.406c0,9.25-0.867,10.812-1.133,11.062c-0.211,0.203-5.414,4.937-30.867,4.937
	c-25.46,0-30.655-4.734-30.866-4.937c-0.266-0.25-1.133-1.812-1.133-11.062c0-4.062,0.406-6.5,0.898-7.984
	c6.195-2.172,12.397-4.656,18.601-7.421C187.883,176.216,192.008,175.997,196.914,175.997z M144.095,202.668
	c1.977,15.421,11.211,26.671,52.819,26.671c41.601,0,50.835-11.25,52.812-26.671h12.164c1.977,15.421,11.203,26.671,52.812,26.671
	s50.843-11.25,52.827-26.671h4.109c-3.078,31.827-18.453,65.342-43.265,93.624c-12.25,13.952-25.968,25.64-39.687,33.765
	c-12.234,7.28-23.844,11.28-32.688,11.28s-20.453-4-32.694-11.28c-13.711-8.125-27.43-19.812-39.68-33.765
	c-24.812-28.281-40.194-61.796-43.265-93.624H144.095z M289.561,365.727c-4.562,2.406-16.406,7.609-33.75,7.609
	c-17.32,0-28.944-5.188-33.366-7.562l-3.438-13.703c13.062,6.797,25.78,10.578,36.991,10.578c11.211,0,23.938-3.781,37-10.578
	L289.561,365.727z M430.496,316.775c-12.953,6.625-40.655,17.343-91.812,23.296c-2.25-2.234-3.547-4.062-4.281-5.484
	c-0.094-0.188-0.172-0.406-0.266-0.594l-0.078-12.624c32.719-32.405,59.5-80.249,59.5-130.341c0-11.25-1-22-2.844-32.25
	c1.781,0.25,3.594,0.453,5.406,0.625c1.969,14.25,3.438,28.75,4.859,43.109C405.466,247.48,409.746,290.261,430.496,316.775z
	 M372.403,78.123c9.938,17.5,16,37.843,20.141,59.374c-42.016-5.75-78.874-28.75-97.545-42.343
	c24.624-25.656,40.217-47.499,44.123-53.155C352.778,50.936,363.731,62.811,372.403,78.123z M139.587,78.123
	c10.211-18.031,23.555-31.312,40.788-40.608c19.742-10.656,45.188-16.109,75.593-16.171c24.781,0.062,46.25,3.672,64.03,10.75
	c-7.078,9.906-29.827,40.265-62.983,70.217c-23.367,21.125-47.249,37.906-70.991,49.89c-2.484,1.265-4.961,2.453-7.438,3.609
	c-12.218,1.688-20.327,5.219-25.632,10c-13.086,4.172-26.077,6.828-38.905,7.969C118.096,139.122,124.221,105.217,139.587,78.123z
	 M109.299,327.619c-12.875-3.875-21.867-7.781-27.805-10.844c20.766-26.499,25.039-69.295,29.523-114.263
	c0.234-2.391,0.477-4.766,0.719-7.141c2.25-0.156,4.508-0.344,6.766-0.594c1.289,48.718,27.522,94.999,59.444,126.591l-0.086,12.624
	c-0.094,0.188-0.172,0.406-0.266,0.594c-0.734,1.422-2.016,3.25-4.266,5.469C151.188,337.509,129.04,333.587,109.299,327.619z
	 M54.143,441.882c0-15.905,10.164-29.983,25.327-35.17l1.195-0.344c19.945-5.359,30.953-10.625,39.812-14.875
	c3.422-1.641,6.375-3.062,9.257-4.156c5.32-2.016,11.094-4.312,16.961-6.859c-1.367,3.891-0.375,8.297,2.672,11.203l16.602,15.968
	l-8.188,13.953c-2.516,4.297-1.734,9.734,1.875,13.155l59.194,55.891H54.143V441.882z M457.854,490.647H293.077l59.279-56.188
	c3.609-3.437,4.375-8.905,1.828-13.187l-8.125-13.656l16.562-15.937c3.062-2.906,4.047-7.312,2.688-11.203
	c5.875,2.547,11.641,4.844,16.969,6.875c2.875,1.078,5.812,2.5,9.25,4.141c8.844,4.25,19.858,9.516,39.812,14.875l1.187,0.344
	c15.156,5.187,25.328,19.265,25.328,35.17v48.766H457.854z"/>
<g>
</g>
<g>
</g>
<g>
</g>
<g>
</g>
<g>
</g>
<g>
</g>
<g>
</g>
<g>
</g>
<g>
</g>
<g>
</g>
<g>
</g>
<g>
</g>
<g>
</g>
<g>
</g>
<g>
</g>
</svg>
